<svg width="229" height="80" viewBox="0 0 229 80" fill="none" xmlns="http://www.w3.org/2000/svg">
<path d="M41.0692 22.6679L48.0339 15.7031L41.1028 8.77197L34.138 15.7368L41.0692 22.6679Z" fill="#FF5112"/>
<path d="M49.7699 -0.000133749L42.8049 6.96484L49.7359 13.8958L56.7009 6.93082L49.7699 -0.000133749Z" fill="#FF5112"/>
<path d="M58.5927 8.73054L51.6279 15.6953L58.5591 22.6265L65.5239 15.6617L58.5927 8.73054Z" fill="#FF5112"/>
<path d="M49.7296 17.3588L42.7646 24.3237L49.6958 31.2549L56.6608 24.2899L49.7296 17.3588Z" fill="#FF5112"/>
<path d="M120.261 27.251H114.173L104.449 40.6091H95.9558V27.251H90.5032V59.0565H95.9558V45.6984H104.404L114.128 59.0565H120.852L108.993 42.7449L120.261 27.251Z" fill="#FF5112"/>
<path d="M223.103 27.251V40.6091H202.495V27.251H197.042V59.0565H202.495V45.6984H223.103V59.0565H228.555V27.251H223.103Z" fill="#FF5112"/>
<path d="M84.3298 37.0973L74.6492 27.4167V27.3418H62.6024V27.436L62.5144 27.3481L52.7654 37.0973L52.7777 37.1096H52.7617V59.0568H58.214V48.6066H78.9456V59.0568H84.3982V37.1096H84.3179L84.3298 37.0973ZM58.2143 43.154V39.3596L64.7795 32.7944H72.3163L78.9459 39.4239V43.154H58.2143Z" fill="#FF5112"/>
<path d="M148.044 27.2621L148.025 27.2812V27.2559H128.021V27.2761L128.008 27.2621L122.248 33.0219L122.28 33.0541H122.167V53.2575H122.28L122.247 53.2906L128.007 59.0503L128.021 59.0364V59.0563H148.025V59.0312L148.044 59.05L153.804 53.2903L153.771 53.2572H153.804V33.0538H153.772L153.804 33.0216L148.044 27.2621ZM145.78 53.6043H130.272L127.62 50.9526V35.3604L130.272 32.7084H145.78L148.352 35.2804V51.0323L145.78 53.6043Z" fill="#FF5112"/>
<path d="M190.682 39.8739H165.18V35.2698L167.746 32.7038H190.336V27.2515H165.523V27.2871L165.487 27.2515L159.727 33.0112L159.738 33.022H159.727V39.8739H159.727V45.3262H185.23V51.0384L182.664 53.6044H159.727V59.0567H184.887V59.0211L184.922 59.0567L190.683 53.297L190.671 53.2864H190.683V44.3463H190.682V39.8739Z" fill="#FF5112"/>
<path d="M46.832 37.0973L37.1514 27.4167V27.3418H30.6406V27.436L30.5526 27.3481L23.4937 34.4069L16.5038 27.4167V27.3418H9.99325V27.436L9.90499 27.3481L0.155994 37.0973L0.168818 37.1096H0.152588V59.0568H5.60458V39.3596L12.1701 32.7944H14.1701L20.8002 39.4236V59.0568H26.2522V39.3596L32.8174 32.7944H34.818L41.4475 39.4236V59.0568H46.9001V37.1096H46.8198L46.832 37.0973Z" fill="#FF5112"/>
<path d="M0 68.4067H2.33084L1.22706 70.7134H1.10406L0 68.4067ZM0.306908 71.4126H2.01198V77.5465H0.306908V71.4126Z" fill="#FF5112"/>
<path d="M4.02368 71.4128V77.5466H5.72903V74.3446C5.72903 73.9195 5.86797 73.5676 6.14613 73.2898C6.42399 73.0116 6.77589 72.8727 7.20094 72.8727C7.6018 72.8727 7.91866 73.0034 8.15183 73.2653C8.385 73.5269 8.50571 73.8871 8.51369 74.3446V77.5466H10.2313V74.0747C10.2313 73.5184 10.1188 73.0298 9.89392 72.6088C9.66901 72.1877 9.35413 71.8626 8.94929 71.6334C8.54444 71.4045 8.08038 71.29 7.55682 71.29C7.15625 71.29 6.78813 71.3615 6.45303 71.5047C6.11737 71.6479 5.82698 71.8503 5.58185 72.112V71.4128H4.02368Z" fill="#FF5112"/>
<path d="M18.2304 71.4126H16.3898L14.7214 76.0498H14.6235L12.9549 71.4126H11.0781L13.4824 77.5465H15.8133L18.2304 71.4126Z" fill="#FF5112"/>
<path d="M25.2354 74.4551C25.2354 73.8498 25.0942 73.3063 24.8121 72.8234C24.5299 72.3409 24.1413 71.9645 23.6465 71.6949C23.1517 71.425 22.6017 71.29 21.9964 71.29C21.3831 71.29 20.8206 71.429 20.3095 71.7071C19.7985 71.9853 19.3937 72.3716 19.0953 72.8664C18.7966 73.3609 18.6475 73.9153 18.6475 74.5285C18.6475 75.1417 18.7884 75.6861 19.0705 76.1601C19.353 76.6347 19.7473 77.0048 20.2546 77.2704C20.7614 77.5361 21.3421 77.669 21.9964 77.669C22.5365 77.669 23.025 77.5768 23.4626 77.3929C23.8999 77.2089 24.2538 76.9675 24.5237 76.6692C24.7936 76.3705 24.9652 76.0457 25.039 75.6938H23.3339C23.2192 75.8737 23.0455 76.0169 22.8123 76.1228C22.5795 76.2296 22.3195 76.2828 22.0334 76.2828C21.5753 76.2828 21.191 76.1581 20.8801 75.9084C20.5692 75.6593 20.3773 75.3462 20.3036 74.9701H25.1984C25.2226 74.7981 25.2354 74.627 25.2354 74.4551ZM20.34 73.854C20.4382 73.5027 20.6364 73.22 20.935 73.0073C21.2337 72.7947 21.575 72.6885 21.9594 72.6885C22.3602 72.6885 22.7016 72.7927 22.9837 73.0014C23.2662 73.2098 23.456 73.4942 23.5543 73.854H20.34Z" fill="#FF5112"/>
<path d="M30.0932 76.2523C29.8558 76.3462 29.5859 76.3932 29.2833 76.3932C28.8744 76.3932 28.5351 76.3072 28.2652 76.1358C27.9953 75.9639 27.8276 75.7307 27.7621 75.4366H26.02C26.11 76.1891 26.4556 76.7576 27.0566 77.1417C27.6579 77.5263 28.3958 77.7182 29.271 77.7182C30.1052 77.7182 30.8024 77.5462 31.3627 77.2029C31.9227 76.8596 32.2031 76.3727 32.2031 75.743C32.2031 75.3504 32.0884 75.0335 31.8598 74.7921C31.6306 74.5509 31.33 74.3647 30.9579 74.2341C30.5858 74.1034 30.1177 73.9804 29.5532 73.8659C29.406 73.8335 29.2998 73.8127 29.2343 73.8044C28.7517 73.7065 28.4186 73.6205 28.2344 73.5468C28.0505 73.4733 27.9583 73.3466 27.9583 73.1664C27.9583 72.9703 28.0628 72.8291 28.2712 72.7434C28.4798 72.6577 28.715 72.6147 28.9766 72.6147C29.3365 72.6147 29.6514 72.6864 29.9216 72.8293C30.1912 72.9725 30.3668 73.1832 30.4488 73.4614H32.1909C32.1009 72.7007 31.7695 72.1404 31.197 71.7805C30.6245 71.4207 29.9335 71.2407 29.1238 71.2407C28.641 71.2407 28.1809 71.3062 27.7436 71.4369C27.306 71.5678 26.9501 71.7782 26.6765 72.0689C26.4024 72.3593 26.2654 72.7291 26.2654 73.179C26.2734 73.596 26.3941 73.9331 26.6273 74.1911C26.8605 74.4487 27.1588 74.6432 27.5229 74.7738C27.8868 74.9048 28.3509 75.0275 28.9154 75.1417L29.271 75.2157C29.7291 75.2974 30.0397 75.3731 30.2034 75.4426C30.3668 75.5121 30.4488 75.6285 30.4488 75.7922C30.4488 76.0052 30.3301 76.1583 30.0932 76.2523Z" fill="#FF5112"/>
<path d="M34.276 69.9404V70.6397C34.276 70.8933 34.2106 71.0855 34.0799 71.2162C33.9489 71.3469 33.761 71.4123 33.5153 71.4123H32.7549V72.958H34.1411V75.6205C34.1411 76.9865 34.9263 77.6692 36.4964 77.6692C36.9545 77.6692 37.4738 77.6157 38.0546 77.5092V75.9758C37.621 76.0578 37.1877 76.0988 36.7544 76.0988C36.427 76.0988 36.1938 76.0373 36.0548 75.9146C35.9156 75.7919 35.8464 75.5835 35.8464 75.2894V72.9582H38.0546V71.4126H35.8464V69.9404H34.276V69.9404Z" fill="#FF5112"/>
<path d="M39.5388 71.4128V77.5466H41.2439V74.3446C41.2439 73.9195 41.3686 73.5657 41.6183 73.2835C41.8674 73.0014 42.1763 72.8604 42.5441 72.8604C42.9205 72.8604 43.2208 72.9891 43.4457 73.2468C43.6709 73.5044 43.7874 73.8458 43.7956 74.2711V77.5466H45.501V74.3446C45.501 73.9195 45.6257 73.5657 45.8751 73.2835C46.1245 73.0014 46.4371 72.8604 46.8135 72.8604C47.1816 72.8604 47.48 72.9891 47.7091 73.2468C47.938 73.5044 48.0528 73.8458 48.0528 74.2711V77.5466H49.7701V74.0012C49.7701 73.4614 49.6576 72.9871 49.4327 72.578C49.2078 72.1692 48.8887 71.8526 48.4758 71.6274C48.0627 71.4025 47.5864 71.29 47.0466 71.29C46.6296 71.29 46.2409 71.3757 45.8814 71.5474C45.5212 71.7194 45.2186 71.9565 44.9735 72.2592C44.7525 71.948 44.4681 71.7091 44.1208 71.5414C43.7729 71.3737 43.3825 71.29 42.9489 71.29C42.5811 71.29 42.2375 71.3615 41.9186 71.5047C41.5997 71.6479 41.3256 71.8543 41.0967 72.1245V71.4128H39.5388Z" fill="#FF5112"/>
<path d="M57.7076 74.4551C57.7076 73.8498 57.5664 73.3063 57.2842 72.8234C57.0021 72.3409 56.6135 71.9645 56.1187 71.6949C55.6239 71.425 55.0738 71.29 54.4686 71.29C53.855 71.29 53.2927 71.429 52.7817 71.7071C52.2707 71.9853 51.8658 72.3716 51.5672 72.8664C51.2688 73.3609 51.1196 73.9153 51.1196 74.5285C51.1196 75.1417 51.2605 75.6861 51.5427 76.1601C51.8251 76.6347 52.2194 77.0048 52.7267 77.2704C53.2335 77.5361 53.8143 77.669 54.4686 77.669C55.0086 77.669 55.4972 77.5768 55.9348 77.3929C56.3721 77.2089 56.7259 76.9675 56.9958 76.6692C57.2657 76.3705 57.4374 76.0457 57.5111 75.6938H55.8061C55.6913 75.8737 55.5177 76.0169 55.2845 76.1228C55.0513 76.2296 54.7917 76.2828 54.5056 76.2828C54.0475 76.2828 53.6628 76.1581 53.3522 75.9084C53.0413 75.6593 52.8495 75.3462 52.7757 74.9701H57.6706C57.695 74.7981 57.7076 74.627 57.7076 74.4551ZM52.8125 73.854C52.9107 73.5027 53.1088 73.22 53.4075 73.0073C53.7061 72.7947 54.0475 72.6885 54.4318 72.6885C54.8327 72.6885 55.174 72.7927 55.4562 73.0014C55.7383 73.2098 55.9285 73.4942 56.0267 73.854H52.8125Z" fill="#FF5112"/>
<path d="M59.1179 71.4128V77.5466H60.8233V74.3446C60.8233 73.9195 60.9622 73.5676 61.2403 73.2898C61.5182 73.0116 61.8701 72.8727 62.2952 72.8727C62.696 72.8727 63.0129 73.0034 63.2461 73.2653C63.4792 73.5269 63.6 73.8871 63.6079 74.3446V77.5466H65.3255V74.0747C65.3255 73.5184 65.2131 73.0298 64.9881 72.6088C64.7632 72.1877 64.4483 71.8626 64.0435 71.6334C63.6387 71.4045 63.1746 71.29 62.651 71.29C62.2505 71.29 61.8823 71.3615 61.5473 71.5047C61.2116 71.6479 60.9212 71.8503 60.6761 72.112V71.4128H59.1179Z" fill="#FF5112"/>
<path d="M67.7673 69.9404V70.6397C67.7673 70.8933 67.7018 71.0855 67.5708 71.2162C67.4401 71.3469 67.2519 71.4123 67.0065 71.4123H66.2461V72.958H67.6323V75.6205C67.6323 76.9865 68.4175 77.6692 69.9876 77.6692C70.4457 77.6692 70.965 77.6157 71.5458 77.5092V75.9758C71.1122 76.0578 70.6789 76.0988 70.2453 76.0988C69.9182 76.0988 69.685 76.0373 69.5461 75.9146C69.4068 75.7919 69.3374 75.5835 69.3374 75.2894V72.9582H71.5458V71.4126H69.3374V69.9404H67.7673V69.9404Z" fill="#FF5112"/>
<path d="M76.2934 73.0933H72.834V74.6269H76.2934V73.0933Z" fill="#FF5112"/>
<path d="M78.1089 71.4128V80.0002H79.814V76.9698C80.0514 77.1907 80.3233 77.3624 80.6299 77.4854C80.9368 77.6078 81.2617 77.6693 81.6053 77.6693C82.1858 77.6693 82.7094 77.5301 83.1757 77.2522C83.6417 76.9738 84.0076 76.5937 84.2735 76.1109C84.5391 75.6286 84.6721 75.0848 84.6721 74.4795C84.6721 73.8745 84.5391 73.3305 84.2735 72.8482C84.0076 72.3656 83.6417 71.985 83.1757 71.7071C82.7094 71.429 82.1858 71.29 81.6053 71.29C81.2207 71.29 80.8648 71.3615 80.538 71.5047C80.2106 71.6479 79.9202 71.8503 79.6668 72.112V71.4128H78.1089V71.4128ZM80.2251 73.3265C80.5237 73.0159 80.8978 72.8604 81.3476 72.8604C81.7975 72.8604 82.1736 73.0159 82.4762 73.3265C82.7785 73.6377 82.9303 74.0217 82.9303 74.4798C82.9303 74.9379 82.7785 75.3222 82.4762 75.6331C82.1736 75.944 81.7975 76.0995 81.3476 76.0995C80.8978 76.0995 80.5237 75.944 80.2251 75.6331C79.9264 75.3222 79.7772 74.9379 79.7772 74.4798C79.7772 74.0217 79.9264 73.6374 80.2251 73.3265Z" fill="#FF5112"/>
<path d="M87.3219 77.2525C87.8372 77.5301 88.4094 77.6693 89.0394 77.6693C89.6692 77.6693 90.2397 77.5301 90.7508 77.2525C91.2618 76.9738 91.6647 76.5917 91.9593 76.1049C92.2537 75.6186 92.4009 75.0768 92.4009 74.4795C92.4009 73.8825 92.2557 73.3407 91.9653 72.8542C91.6749 72.3673 91.2723 71.9853 90.757 71.7071C90.2417 71.429 89.6692 71.29 89.0394 71.29C88.4094 71.29 87.8372 71.429 87.3219 71.7071C86.8068 71.9856 86.4037 72.3673 86.1133 72.8542C85.8229 73.3407 85.678 73.8825 85.678 74.4795C85.678 75.0768 85.8229 75.6186 86.1133 76.1049C86.4037 76.5915 86.8068 76.9738 87.3219 77.2525ZM87.8739 73.3143C88.1765 73.0116 88.5651 72.8602 89.0394 72.8602C89.5055 72.8602 89.8918 73.0113 90.1987 73.3143C90.5054 73.6169 90.6588 74.0052 90.6588 74.4795C90.6588 74.9538 90.5054 75.3427 90.1987 75.6451C89.8918 75.9477 89.5055 76.0992 89.0394 76.0992C88.5734 76.0992 88.1871 75.9477 87.8801 75.6451C87.5735 75.3427 87.4201 74.9538 87.4201 74.4795C87.4201 74.0052 87.5712 73.6166 87.8739 73.3143Z" fill="#FF5112"/>
<path d="M97.7867 73.2774L98.915 77.5465H101.025L102.583 71.4126H100.902L99.8226 75.7306L98.6943 71.4126H96.928L95.7867 75.7677L94.6823 71.4126H92.9895L94.548 77.5465H96.6576L97.7867 73.2774Z" fill="#FF5112"/>
<path d="M109.772 74.4551C109.772 73.8498 109.631 73.3063 109.349 72.8234C109.067 72.3409 108.678 71.9645 108.183 71.6949C107.688 71.425 107.139 71.29 106.533 71.29C105.92 71.29 105.357 71.429 104.846 71.7071C104.335 71.9853 103.931 72.3716 103.632 72.8664C103.333 73.3609 103.184 73.9153 103.184 74.5285C103.184 75.1417 103.325 75.6861 103.607 76.1601C103.89 76.6347 104.284 77.0048 104.791 77.2704C105.298 77.5361 105.879 77.669 106.533 77.669C107.073 77.669 107.562 77.5768 107.999 77.3929C108.437 77.2089 108.791 76.9675 109.061 76.6692C109.33 76.3705 109.502 76.0457 109.576 75.6938H107.87C107.756 75.8737 107.582 76.0169 107.349 76.1228C107.116 76.2296 106.856 76.2828 106.57 76.2828C106.112 76.2828 105.728 76.1581 105.417 75.9084C105.106 75.6593 104.914 75.3462 104.84 74.9701H109.735C109.76 74.7981 109.772 74.627 109.772 74.4551ZM104.877 73.854C104.975 73.5027 105.173 73.22 105.472 73.0073C105.771 72.7947 106.112 72.6885 106.497 72.6885C106.897 72.6885 107.239 72.7927 107.521 73.0014C107.803 73.2101 107.993 73.4942 108.091 73.854H104.877Z" fill="#FF5112"/>
<path d="M111.183 71.4128V77.5466H112.888V74.2344C112.888 73.8583 113.008 73.5392 113.25 73.2775C113.491 73.0159 113.787 72.8849 114.139 72.8849C114.442 72.8849 114.683 72.9624 114.863 73.1181C115.043 73.2736 115.133 73.4982 115.133 73.7925V74.038H116.838V73.6206C116.838 72.9011 116.625 72.3326 116.2 71.9155C115.775 71.4984 115.227 71.29 114.556 71.29C114.196 71.29 113.859 71.3615 113.544 71.5047C113.229 71.6479 112.961 71.8503 112.74 72.112V71.4128H111.183V71.4128Z" fill="#FF5112"/>
<path d="M123.929 74.4551C123.929 73.8498 123.788 73.3063 123.506 72.8234C123.224 72.3409 122.835 71.9645 122.34 71.6949C121.845 71.425 121.295 71.29 120.69 71.29C120.077 71.29 119.514 71.429 119.003 71.7071C118.492 71.9853 118.087 72.3716 117.788 72.8664C117.49 73.3609 117.341 73.9153 117.341 74.5285C117.341 75.1417 117.482 75.6861 117.764 76.1601C118.046 76.6347 118.441 77.0048 118.948 77.2704C119.454 77.5361 120.035 77.669 120.69 77.669C121.229 77.669 121.718 77.5768 122.155 77.3929C122.593 77.2089 122.947 76.9675 123.216 76.6692C123.487 76.3705 123.659 76.0457 123.732 75.6938H122.027C121.913 75.8737 121.739 76.0169 121.506 76.1228C121.273 76.2296 121.013 76.2828 120.727 76.2828C120.269 76.2828 119.884 76.1581 119.574 75.9084C119.263 75.6593 119.07 75.3462 118.997 74.9701H123.892C123.917 74.7981 123.929 74.627 123.929 74.4551ZM119.034 73.854C119.132 73.5027 119.33 73.22 119.628 73.0073C119.927 72.7947 120.269 72.6885 120.653 72.6885C121.053 72.6885 121.396 72.7927 121.678 73.0014C121.96 73.2098 122.15 73.4942 122.248 73.854H119.034Z" fill="#FF5112"/>
<path d="M131.449 77.5463V68.8359H129.743V71.9887C129.506 71.7681 129.234 71.5961 128.928 71.4737C128.621 71.3507 128.292 71.2898 127.94 71.2898C127.359 71.2898 126.838 71.4287 126.376 71.7069C125.914 71.9847 125.55 72.3654 125.284 72.8479C125.018 73.3302 124.885 73.8743 124.885 74.4793C124.885 75.0848 125.018 75.6283 125.284 76.1106C125.55 76.5934 125.914 76.9735 126.376 77.252C126.838 77.5298 127.359 77.669 127.94 77.669C128.324 77.669 128.682 77.5973 129.014 77.4544C129.345 77.3112 129.633 77.1085 129.879 76.8468V77.5461H131.449V77.5463ZM129.327 75.6326C129.024 75.9435 128.652 76.0989 128.21 76.0989C127.76 76.0989 127.384 75.9435 127.081 75.6326C126.778 75.3217 126.627 74.9374 126.627 74.4793C126.627 74.0212 126.778 73.6371 127.081 73.3259C127.384 73.0153 127.76 72.8599 128.21 72.8599C128.652 72.8599 129.023 73.0153 129.327 73.3259C129.629 73.6371 129.78 74.0212 129.78 74.4793C129.78 74.9374 129.629 75.3217 129.327 75.6326Z" fill="#FF5112"/>
<path d="M136.528 71.4128V80.0002H138.233V76.9698C138.47 77.1907 138.742 77.3624 139.049 77.4854C139.355 77.6078 139.68 77.6693 140.024 77.6693C140.605 77.6693 141.128 77.5301 141.594 77.2522C142.06 76.9738 142.427 76.5937 142.692 76.1109C142.958 75.6286 143.091 75.0848 143.091 74.4795C143.091 73.8745 142.958 73.3305 142.692 72.8482C142.426 72.3656 142.06 71.985 141.594 71.7071C141.128 71.429 140.605 71.29 140.024 71.29C139.64 71.29 139.283 71.3615 138.957 71.5047C138.63 71.6479 138.339 71.8503 138.085 72.112V71.4128H136.528V71.4128ZM138.644 73.3265C138.942 73.0159 139.316 72.8604 139.766 72.8604C140.216 72.8604 140.592 73.0159 140.895 73.3265C141.197 73.6377 141.349 74.0217 141.349 74.4798C141.349 74.9379 141.197 75.3222 140.895 75.6331C140.592 75.944 140.216 76.0995 139.766 76.0995C139.316 76.0995 138.942 75.944 138.644 75.6331C138.345 75.3222 138.196 74.9379 138.196 74.4798C138.196 74.0217 138.345 73.6374 138.644 73.3265Z" fill="#FF5112"/>
<path d="M146.255 68.8359H144.55V77.5463H146.255V68.8359Z" fill="#FF5112"/>
<path d="M151.666 73.7803C151.486 73.8623 151.184 73.9192 150.759 73.952C148.698 74.075 147.667 74.7412 147.667 75.9517C147.667 76.4835 147.855 76.9046 148.231 77.2152C148.607 77.5261 149.123 77.6816 149.777 77.6816C150.251 77.6816 150.699 77.6018 151.121 77.4421C151.542 77.2827 151.883 77.064 152.145 76.7856V77.5586L154.28 77.5463V76.0497H153.568V73.7923C153.568 73.0316 153.325 72.4243 152.838 71.9705C152.352 71.5167 151.699 71.29 150.882 71.29C150.08 71.29 149.413 71.4942 148.882 71.903C148.35 72.3124 148.035 72.8599 147.937 73.5466H149.533C149.598 73.2605 149.743 73.0398 149.968 72.8844C150.193 72.7289 150.473 72.6515 150.808 72.6515C151.135 72.6515 151.405 72.7232 151.618 72.8661C151.83 73.0093 151.937 73.1913 151.937 73.4119C151.936 73.5759 151.846 73.6989 151.666 73.7803ZM152.01 74.7007V74.7742C152.01 75.0526 151.926 75.314 151.758 75.5594C151.59 75.8045 151.366 76.001 151.083 76.1482C150.801 76.2954 150.501 76.3688 150.182 76.3688C149.928 76.3688 149.734 76.3176 149.599 76.2156C149.464 76.1134 149.396 75.9682 149.396 75.78C149.396 75.5511 149.509 75.3732 149.734 75.2465C149.959 75.1198 150.329 75.0361 150.844 74.9948C151.114 74.9704 151.358 74.9296 151.574 74.8724C151.79 74.8152 151.936 74.7577 152.01 74.7007Z" fill="#FF5112"/>
<path d="M155.689 71.4128V77.5466H157.395V74.3446C157.395 73.9195 157.534 73.5676 157.812 73.2898C158.09 73.0116 158.442 72.8727 158.867 72.8727C159.268 72.8727 159.585 73.0034 159.818 73.2653C160.051 73.5269 160.171 73.8871 160.179 74.3446V77.5466H161.897V74.0747C161.897 73.5184 161.784 73.0298 161.559 72.6088C161.334 72.1877 161.019 71.8626 160.615 71.6334C160.21 71.4045 159.745 71.29 159.222 71.29C158.821 71.29 158.454 71.3615 158.118 71.5047C157.783 71.6479 157.493 71.8503 157.247 72.112V71.4128H155.689Z" fill="#FF5112"/>
<path d="M164.338 69.9404V70.6397C164.338 70.8933 164.273 71.0855 164.142 71.2162C164.011 71.3469 163.823 71.4123 163.578 71.4123H162.817V72.958H164.204V75.6205C164.204 76.9865 164.989 77.6692 166.559 77.6692C167.017 77.6692 167.536 77.6157 168.117 77.5092V75.9758C167.683 76.0578 167.25 76.0988 166.817 76.0988C166.489 76.0988 166.257 76.0373 166.117 75.9146C165.978 75.7919 165.909 75.5835 165.909 75.2894V72.9582H168.117V71.4126H165.909V69.9404H164.338V69.9404Z" fill="#FF5112"/>
<path d="M172.668 71.4128V77.5466H174.374V74.3446C174.374 73.9195 174.512 73.5676 174.791 73.2898C175.069 73.0119 175.42 72.8727 175.845 72.8727C176.246 72.8727 176.563 73.0034 176.796 73.2653C177.03 73.5269 177.151 73.8871 177.158 74.3446V77.5466H178.876V74.0747C178.876 73.5184 178.763 73.0298 178.538 72.6088C178.313 72.1877 177.998 71.8626 177.594 71.6334C177.189 71.4045 176.724 71.29 176.201 71.29C175.8 71.29 175.432 71.3615 175.097 71.5047C174.762 71.6479 174.471 71.8503 174.226 72.112V71.4128H172.668Z" fill="#FF5112"/>
<path d="M186.85 77.5465V71.4126H185.145V74.6143C185.145 75.0397 185.006 75.3913 184.728 75.6694C184.45 75.9476 184.098 76.0868 183.673 76.0868C183.272 76.0868 182.955 75.9535 182.722 75.6882C182.489 75.4223 182.372 75.0647 182.372 74.6146L182.36 71.4129H180.642V74.8848C180.642 75.4408 180.755 75.9294 180.98 76.3504C181.205 76.7715 181.52 77.0966 181.925 77.3258C182.329 77.5547 182.793 77.6694 183.317 77.6694C183.718 77.6694 184.086 77.5977 184.421 77.4548C184.756 77.3116 185.047 77.1089 185.292 76.8472V77.5465H186.85V77.5465Z" fill="#FF5112"/>
<path d="M189.573 69.9404V70.6397C189.573 70.8933 189.508 71.0855 189.377 71.2162C189.247 71.3469 189.058 71.4123 188.813 71.4123H188.052V72.958H189.439V75.6205C189.439 76.9865 190.224 77.6692 191.794 77.6692C192.252 77.6692 192.771 77.6157 193.352 77.5092V75.9758C192.919 76.0578 192.485 76.0988 192.052 76.0988C191.725 76.0988 191.491 76.0373 191.352 75.9146C191.213 75.7919 191.144 75.5835 191.144 75.2894V72.9582H193.352V71.4126H191.144V69.9404H189.573V69.9404Z" fill="#FF5112"/>
<path d="M194.836 71.4128V77.5466H196.541V74.2344C196.541 73.8583 196.662 73.5392 196.903 73.2775C197.144 73.0159 197.441 72.8849 197.793 72.8849C198.095 72.8849 198.337 72.9624 198.516 73.1181C198.696 73.2736 198.786 73.4982 198.786 73.7925V74.038H200.491V73.6206C200.491 72.9011 200.279 72.3326 199.854 71.9155C199.428 71.4984 198.88 71.29 198.21 71.29C197.85 71.29 197.513 71.3615 197.198 71.5047C196.883 71.6479 196.615 71.8503 196.394 72.112V71.4128H194.836V71.4128Z" fill="#FF5112"/>
<path d="M201.142 68.4067L202.246 70.7134H202.368L203.472 68.4067H201.142Z" fill="#FF5112"/>
<path d="M203.154 71.4126H201.448V77.5465H203.154V71.4126Z" fill="#FF5112"/>
<path d="M205.877 69.9404V70.6397C205.877 70.8933 205.812 71.0855 205.681 71.2162C205.55 71.3469 205.362 71.4123 205.117 71.4123H204.356V72.958H205.743V75.6205C205.743 76.9865 206.528 77.6692 208.098 77.6692C208.556 77.6692 209.075 77.6157 209.656 77.5092V75.9758C209.223 76.0578 208.789 76.0988 208.356 76.0988C208.029 76.0988 207.795 76.0373 207.656 75.9146C207.517 75.7919 207.448 75.5835 207.448 75.2894V72.9582H209.656V71.4126H207.448V69.9404H205.877V69.9404Z" fill="#FF5112"/>
<path d="M212.845 71.4126H211.14V77.5465H212.845V71.4126Z" fill="#FF5112"/>
<path d="M210.834 68.4067L211.938 70.7134H212.06L213.164 68.4067H210.834Z" fill="#FF5112"/>
<path d="M215.961 77.2525C216.477 77.5301 217.049 77.6693 217.679 77.6693C218.309 77.6693 218.879 77.5301 219.39 77.2525C219.901 76.9738 220.304 76.5917 220.599 76.1049C220.893 75.6186 221.041 75.0768 221.041 74.4795C221.041 73.8825 220.895 73.3407 220.605 72.8542C220.315 72.3673 219.912 71.9853 219.397 71.7071C218.881 71.429 218.309 71.29 217.679 71.29C217.05 71.29 216.477 71.429 215.962 71.7071C215.446 71.9856 215.044 72.3673 214.753 72.8542C214.463 73.3407 214.318 73.8825 214.318 74.4795C214.318 75.0768 214.463 75.6186 214.753 76.1049C215.043 76.5915 215.446 76.9738 215.961 77.2525ZM216.513 73.3143C216.816 73.0116 217.204 72.8602 217.679 72.8602C218.145 72.8602 218.531 73.0113 218.838 73.3143C219.145 73.6169 219.298 74.0052 219.298 74.4795C219.298 74.9538 219.145 75.3427 218.838 75.6451C218.531 75.9477 218.145 76.0992 217.679 76.0992C217.213 76.0992 216.826 75.9477 216.52 75.6451C216.213 75.3427 216.06 74.9538 216.06 74.4795C216.06 74.0052 216.211 73.6166 216.513 73.3143Z" fill="#FF5112"/>
<path d="M227.425 71.6334C227.021 71.4045 226.556 71.29 226.032 71.29C225.632 71.29 225.264 71.3615 224.929 71.5047C224.593 71.6479 224.303 71.8503 224.057 72.112V71.4128H222.499V77.5466H224.205V74.3446C224.205 73.9195 224.344 73.5676 224.622 73.2898C224.9 73.0119 225.251 72.8727 225.676 72.8727C226.077 72.8727 226.395 73.0034 226.627 73.2653C226.861 73.5269 226.982 73.8871 226.99 74.3446V77.5466H228.707V74.0747C228.707 73.5184 228.594 73.0298 228.369 72.6088C228.145 72.1877 227.83 71.8626 227.425 71.6334Z" fill="#FF5112"/>
</svg>
