<svg class="svg-hero" width="792" height="853" fill="none" xmlns="http://www.w3.org/2000/svg"><path stroke="#000" d="M50.473 0v852.077M742.527 0v852.077M276.11 0v852.077M509.318 0v852.077M283.682 0v852.077M516.89 0v852.077M0 36.787h792M0 166.601h792M0 337.845h792M0 620.95h792M0 829.48h792"/><rect class="height-1 anim" x="51" y="622" width="225" rx="15" fill="#FF5112"/><rect class="height-2 anim" x="284" y="339" width="225" rx="15" fill="#FF5112"/><rect class="height-3 anim" x="518" y="37" width="224" rx="15" fill="#FF5112"/><g clip-path="url(#clip0_213_2)" fill="#D9420C"><path d="M583.333 736.313l-4.371-.676-1.886 2.754c-3.828 0-7.803.12-11.769 0-7.178-.268-14.346-.706-21.514-1.063-.92 0-1.923-.08-2.871-.179-4.785-.498-5.153-.677-9.064-4.276l-2.365 1.114c-3.147-2.118-6.552-3.033-9.892.785-2.852-6.025-.745-11.603-.184-16.982l5.024-4.544c-2.217-3.122-3.68.338-5.944-.139-.064-5.667-.92-11.394.156-17.181.24-1.322.737-2.764.47-3.977-1.905-8.551-.755-17.211-.921-25.851-.239-12.439 0-24.857 0-37.325 0-2.397.231-4.803.369-7.477a16.266 16.266 0 001.95-1.154 16.807 16.807 0 001.592-1.61c-.092-.786 0-1.402-.239-1.78-4.38-6.851-4.205-14.477-3.221-22.262.102-.657.158-1.322.166-1.989-.202-12.597-.515-25.185-.626-37.782-.119-14.546-.055-29.053-.064-43.559v-5.807c4.665-.994 8.622-2.088 13.085-.994a68.353 68.353 0 0014.217 1.561c13.407.477 26.86.219 40.23 1.203a168.175 168.175 0 0133.9 6.413c3.855 1.104 7.711 2.197 11.539 3.381 4.398 1.362 6.653 4.603 6.708 9.515.101 9.664.147 19.338.175 29.003 0 3.45-.194 6.91-.12 10.35.35 15.909-.745 31.757-1.794 47.596-.138 2.068-.065 4.146-.166 6.214-.681 13.92-1.417 27.9-2.07 41.859-.102 2.238.11 4.485.147 6.722.248 14.685.672 29.361.626 44.046a92.757 92.757 0 01-1.841 16.903c-1.242 6.542-4.858 9.495-11.042 10.38a115.346 115.346 0 01-24.891.408c-3.027-.219-6.073-.259-9.091-.557-1.841-.189-4.003-.169-4.445-3.082m-30.605-58.961l.248-.169-.358.09.082-.209.028.288zm-1.399-12.548h.129l-.304-.139.175.139zm-2.116-11.772l.349-1.282-4.518-3.659 1.252-3.868-4.905-4.116c.148 3.38.304 6.88.451 10.38v3.092l.773-.109-.819-3.043c2.604.378 5.034 2.128 7.803 1.223l-.276 1.521-1.03 1.372-.81 1.929a46.285 46.285 0 004.95 3.222c.663.328 1.684-.209 2.549-.348l2.54.388a6.436 6.436 0 001.861-2.99c.341-1.17.362-2.42.062-3.602h.138c-1.389.666-2.76 1.72-4.187 1.899-.709.016-1.4.253-1.988.684a3.928 3.928 0 00-1.324 1.742c-1.454-.806-3.212-1.154-3.911-3.073l1.021-1.352m-.681-30.276l-.174.07h.294v.686l-.12-.795m21.542-5.708l.23-.089-.359.06-.276-.219.405.248m-40.737 98.116l-.23.188.35-.079.258 2.456.773-.269-1.151-2.296zm6.635 8.521l-.202.049h.34l1.067 1.502 6.874-2.705-5.116-.666-2.972 1.859m-1.344-6.164l.332.258-.451-.149 1.26-4.156-2.033-5.11c-.433.328-.92.497-.92.725-.111.995 1.334 7.447 1.84 8.432m51.668 7.835l-.754 1.7.478.179.203-1.8 2.852-2.983c-1.472-1.67-2.825-2.734-5.033-1.63 0 2.088 0 3.917 2.263 4.524m-37.451-9.346l-.755.198.792-.159 1.178 5.32-2.586 3.112 4.868 3.579 1.84-2.834-1.656-5.617-3.681-3.54m12.551-41.222c-1.785 3.977-1.951 8.898-6.091 11.424l-3.589-2.058-2.503-3.908c-1.96-.278-2.991.467-3.506 2.287l7.509 15.113 2.429-1.293-4.371-5.607.239-4.514 2.835 1.63 4.26-.716c1.095-4.096 3.773-7.675 2.678-12.279h.359l-.249-.079zm-30.237-67.094l.11.099-3.625-1.243a12.072 12.072 0 00-.487 6.072c.359 2.034 1.231 3.921 2.521 5.452 2.677 3.291 6.165 5.836 9.367 8.601.331.288 1.141-.06 1.84-.13v-3.37c-1.84-5.707-7.223-6.801-10.379-10.023l.653-5.478m7.233-17.281l.644 4.326 3.432 1.749 1.325 16.018-.874 3.709 1.942 2.058 8.732-2.605-1.224-1.76h-4.067l1.693-5.836-4.601-4.813.838-3.33c-2.374-5.588-2.374-5.588-7.85-9.506m-7.839 63.535l6.395 2.982.865-1.322-2.568-2.913c1.924-2.913 4.022-5.518 1.51-9.028-2.605-.239-5.089-.398-7.159 2.873l2.328 5.379-1.371 1.989m58.146 37.335c1.012-3.977.8-5.121-2.153-13.433l-2.835 5.081 4.997 8.352m-51.65-27.422l2.88 3.301-.22 2.227c2.042.119 4.03 1.571 5.741-.448-1.371-1.113-2.64-2.117-3.883-3.151-1.242-1.034-2.015-2.685-4.509-1.909m-1.591-26.945c-.543-1.76-.921-3.401-3.046-3.719-.92 2.287.202 3.599 1.49 5.16l1.546-1.441m46.009-1.134l-2.76.468c-.147 1.799-.469 3.45 2.172 3.977l.598-4.465m-60.631 49.714c.469 1.412-.184 3.311 2.42 3.808l1.665-2.794c-1.131-.556-1.95-.994-2.76-1.352-.23-.089-.571.139-1.279.348m29.869 44.335l-.865-.656-1.261 1.521 1.896 1.66.23-2.525m-20.713-165.686c.699 1.71 1.647 1.988 3.257 1.193-.488-2.188-1.481-2.366-3.257-1.193m38.776 73.755l-.92.935 1.38 1.173.58-.607-1.04-1.501zm-34.663-59.885l-.488.885 1.647 1.133.387-.576-1.519-1.432m1.841 154.809l1.012-.766-1.187-1.591-.709.497.921 1.87m7.821-41.492l-.184.159.653.885.221-.198-.681-.846m10.941 9.665c-.165-.229-.303-.617-.487-.637-.184-.019-.46.259-.7.418.166.229.304.626.497.656.193.03.46-.268.69-.427m-10.674-76.033l.497.667.92-.786c-.165-.199-.405-.596-.478-.567a6.11 6.11 0 00-.92.686m-15.938 1.283l-.708-.05-.157 1.591.488.08.377-1.611m-5.99 3.868c-.184-.179-.378-.517-.562-.507-.184.01-.451.278-.681.437l.755.756.497-.676m23.925 2.098l-.175.467.92.348c.051-.125.091-.255.12-.388a8.322 8.322 0 00-.921-.427m-4.324 78.269l-.267.666 1.04.398.156-.338-.92-.726m22.158-72.224l.524.119.35-1.571-.635-.139-.239 1.591m-8.76 3.39l-.378-.159-.313.994.304.12.35-.995m5.907 4.395l-.653-.527-.773 2.277 1.426-1.75m24.486 25.752l-.414.149.322.994c.126-.044.246-.104.359-.179-.064-.328-.175-.656-.267-.994m-59.195 18.891v-.437l-.616.229c.082.119.147.308.257.338.111.029.258-.08.396-.13m54.852-134.366c-.083-.547 0-.278 0 0 .055-.278.101-.547 0 0zm-51.723 84.245l-.203-.388-.396.497c.12.07.249.199.368.189.12-.01.157-.189.24-.298m44.978-96.624l.157-.288-.212-.05.055.338zm-34.543 72.413c0-.129.147-.268.119-.378-.027-.109-.193-.139-.294-.208l-.184.626h.359m28.949 58.662c-.129-.049-.295-.179-.369-.139-.073.04-.128.259-.193.408.129.05.304.189.378.139.073-.05.128-.259.184-.408zm-44.592-82.445l-.267-.199-.056.308.323-.109zM537.6 705.799v-.288l-.285.109.285.179zm16.066-67.213h-.276l.12.308.156-.308zm142.261-410.914c.523 1.96.934 3.952 1.233 5.966.211 2.197.046 4.444.533 6.691.055-.994.138-1.988.175-2.913.301-7.954.607-15.882.92-23.783.184-4.972.313-10.003.589-15.004a8.6 8.6 0 01.738-3.518 7.966 7.966 0 012.087-2.815 4.035 4.035 0 011.675-.995c4.941-.775 9.883-.676 14.493 1.532 2.374 1.143 3.892 5.408 2.604 8.192-2.687 5.807-1.491 11.872-1.721 17.808-.488 13.104-.653 26.229-.92 39.333-.166 7.955-.221 15.849-.442 23.774-.368 12.766-.865 25.533-1.233 38.299-.294 10.022-.441 20.045-.699 30.057-.276 11.027-.598 22.053-.313 33.189.158-.311.27-.646.331-.994.7-18.981 1.427-37.962 2.052-56.943.663-20.024 1.276-40.052 1.841-60.084.147-5.17-.276-10.39.211-15.51 1.298-13.562-.239-27.313 2.476-40.766.423-2.19.995-4.343 1.711-6.442.549-1.829 1.611-3.427 3.039-4.573 1.428-1.146 3.151-1.782 4.93-1.821 3-.218 5.99-.537 8.65-.775.478.586.589.716.69.855.101.139.248.258.276.408.113.679.181 1.367.202 2.058v304.417a6.67 6.67 0 01-.303 1.422c-5.862 3.132-21.984 4.394-27.229 2.108-1.619-2.347-1.371-5.22-1.334-7.955.147-10.022.497-20.034.727-30.056.193-8.462.322-16.903.488-25.384.248-12.926.423-25.851.819-38.837.11-3.718.745-7.407-.608-11.076 0 2.734.111 5.469 0 8.193-.533 11.712-1.159 23.435-1.711 35.148-.847 17.896-1.905 35.883-1.206 53.869.129 3.232.645 6.453 1.003 9.943-6.975 4.773-14.17 3.271-21.854 2.068a47.094 47.094 0 01-.681-5.647c0-13.135 0-26.269.239-39.403.212-12.091.672-24.171 1.077-36.252.764-22.6 1.601-45.19 2.337-67.789.617-18.991 1.059-37.982 1.693-56.972.387-11.564.985-23.117 1.519-34.671.156-3.261.487-6.512.644-9.764a4.56 4.56 0 00-.246-1.657 4.306 4.306 0 00-.822-1.425l-.616 6.731-2.319 1.482 1.196 6.343c-3.441.696-2.825-2.674-4.518-3.977l-1.647 5.658 2.457-.309c.12 3.162 3.386 6.095.202 9.466l.12-.119 3.377 1.62-2.061 2.476 1.325 2.764c-.764.119-1.325.418-1.629.229-1.288-.805-2.493-1.76-4.003-2.864-1.269 3.361-1.628 6.085-.211 8.631-1.896 5.18-1.298 7.109 2.466 8.471l-.387 2.486-2.521 1.193.966 4.076-1.233 1.293-.083-.129 1.206-1.243 1.932-2.297-.414-2.983 1.095-.358-.616-1.919-.295-6.701 3.166-3.649c2.521 2.058-.286 3.669-.212 5.816a9.652 9.652 0 01.987 3.454 9.8 9.8 0 01-.334 3.596 11.786 11.786 0 00-.248 5.568c.92 4.424-.497 8.481-.865 12.856l-4.656 1.173.322 2.655 3.681-.179c.303.546.616.835.607 1.113-.111 4.295-.258 8.581-.405 12.876-.083 2.237-.212 4.464-.285 6.701-.479 14.298-1.031 28.596-1.399 42.903-.304 11.713-.294 23.436-.58 35.158-.331 13.98-1.012 27.949-1.187 41.929-.156 12.418.138 24.857.322 37.255.056 3.48-1.168 5.32-4.306 5.429-9.607.348-18.164-3.192-26.262-8.372a7.01 7.01 0 01-2.277-2.275 7.679 7.679 0 01-1.1-3.134 146.885 146.885 0 01-1.62-14.914c-.276-10.181 0-20.383-.23-30.574-.377-14.655-1.316-29.311-1.5-43.967-.184-15.013.175-30.027.479-45.04.166-8.452.616-16.903 1.067-25.325.534-10.171 1.289-20.323 1.841-30.494.653-13.085 1.113-26.179 1.72-39.264.313-6.88.921-13.751 1.086-20.631.239-9.297.212-18.603.267-27.9a47.757 47.757 0 012.595-15.689c.977-2.929 2.789-5.447 5.175-7.191 2.387-1.744 5.224-2.624 8.103-2.513 1.114 0 2.218.189 3.248.278 5.715-3.39 13.058-1.67 17.797 4.743.055 3.669.175 7.656 2.475 10.45v13.919a6.64 6.64 0 01-.874 2.198c-3.478 1.451-7.223-.756-10.573 1.541a12.48 12.48 0 00-.258 7.02l-8.373-5.419.736 3.897c2.549 2.277 5.181 1.054 7.61 1.422l3.993-2.774-.497-2.287c3.166-1.988 3.166-1.988 7.206 0 1.113 2.208.22 4.216-.663 6.214l-.248-.099zm-13.923 64.051l-1.445.408.369.646 1.003-1.203.248-3.182 1.251-.129c.323-1.511.12-2.545-1.242-2.983v3.162a627.527 627.527 0 01-.193 3.251m-1.279 43.003c1.104 2.615 1.417 2.714 2.825.994l3.607 2.665v-3.073c0-.934-.092-1.988-.138-2.913 4.674-2.207 4.674-2.207 3.819-6.294-3.736-.904-6.166-3.658-7.481-7.457-3.681-.447-6.985-3.122-11.208-.377 1.603.276 3.093 1.066 4.276 2.268 1.183 1.202 2.004 2.76 2.358 4.473l2.669.755-.727 7.955v1.054m-10.674-84.017l-1.933-.278-.322.756 4.794 5.08.267-.258-.359.209.313-2.426-2.889-3.232h2.825c.57-.686 1.058-1.332 1.601-1.909.543-.577 1.113-.994 1.666-1.541a6.938 6.938 0 00-3.4.998 7.63 7.63 0 00-2.582 2.591m5.347 113.586c-1.16.368-3.111-1.223-3.479 1.86l3.552-1.909c-.239 1.511-.589 3.052 1.196 4.414l2.945-2.227-1.978-4.186c-.865.925-.332 3.053-2.227 2.048m11.935-109.658l3.791 2.913.92-2.048-1.592-2.118 2.199-3.043c-.865-1.63-1.656-3.251-2.604-4.762-.119-.199-1.04.199-1.73.348l1.04 4.514-1.914 4.295-.11-.099zm-10.444 78.19l-6.994-.806-.285 4.972c-.92 1.988-3.377 2.893-2.761 6.283l3.423 1.522.175 1.59.58-.268-.874-1.203.488-1.989-3.93-.994 4.334-1.64.783-4.882 4.159-.229.745-2.486.276-.228-.156.358m-1.482-24.748l4.491 2.446 3.911-.259-4.454-3.977 1.012-3.688a29.14 29.14 0 00-1.435-4.047c-1.013-1.869-1.51-4.206-3.617-5.17-.221-.1-.561.069-1.04.159l1.436 3.977-2.549 1.571c2.991 2.396 2.448 5.697 2.254 8.948m.479-31.23c-1.702 4.156-1.702 4.156.975 6.483.801-2.168 4.252-.995 4.436-4.842l-5.402-1.641m5.521-62.739l-.727-7.377c-1.84-.408-3.009.059-3.515 2.227l4.251 5.16m-18.596 92.985l2.07 6.274 1.629-.497-.322-6.254-3.377.477m28.452 4.255c.8-2.406.542-3.788-1.841-4.335-1.132 2.148-.92 3.49 1.841 4.335zm-26.686 15.213c1.353 1.531 2.301 3.977 5.245 3.132-1.233-2.615-3.487-2.436-5.245-3.132zm22.306-126.562c.432-2.485 1.067-3.977-.359-5.418-1.841 2.237-1.841 2.237.359 5.418zm2.456 70.514l-.8-.994-2.025 2.078.617.736 2.208-1.79m-.92-68.018l.147 1.253 1.97-.418-.083-.835h-2.034zm-2.227-14.188l-.285 1.073 1.693.179.111-.666-1.519-.586zm-11.732 3.897l-.672.517.819 1.293c.23-.158.449-.334.654-.527a13.508 13.508 0 00-.801-1.283m19.324 18.484l.57-.229-.423-1.163-.524.219.368 1.183m-24.063 113.576l.212.447 1.067-.368-.359-.745-.92.666zm5.521-119.631l-.478.636c.22.159.441.437.662.427.221-.01.313-.377.469-.576l-.662-.487m11.566 155.276l-.174-.488-1.684 1.193 1.84-.705m1.923-124.702l-.147-.428c-.129.05-.331.07-.368.169-.037.099.074.278.129.418l.386-.159zm-.561 2.813v.408l.57-.219c-.073-.109-.138-.288-.23-.308-.092-.02-.239.08-.358.129m-17.337-33.736a1.103 1.103 0 00-.405 0c-.046 0 0 .229 0 .349.135.023.271.023.405 0v-.349zm13.95 6.046c.102-.05.267-.09.295-.169.027-.08-.065-.239-.101-.368l-.461.278.267.259m.562 6.661c.11 0 .285-.069.322-.159.036-.089-.065-.238-.102-.358l-.487.279.276.238m-15.073 134.605l-.147-.358-.184.488.331-.13m-10.913-68.426l.258-.199-.295-.159.037.358zm30.127-41.988l-.276.348.588.249c0-.15.102-.328.056-.428-.046-.099-.24-.109-.368-.159m-16.877-13.602l-.165.259h.257l-.092-.259zm68.701 514.737c-5.309 0-10.573.069-15.827 0-16.627-.259-33.246-.666-49.874-.835-8.944-.1-17.897.099-26.841.278-8.945.179-13.647-6.532-12.883-17.012.515-7.566 1.748-15.073 2.328-22.64a1077.525 1077.525 0 002.034-33.059c.57-12.24.837-24.499 1.288-36.788.515-13.98.92-27.969 1.693-41.939.497-9.306 1.445-18.583 2.291-27.84.764-8.401 1.491-16.823 2.568-25.175a83.222 83.222 0 012.88-13.055c1.049-3.509 3.386-5.836 6.552-7.775 7.913-4.852 16.397-5.22 25.056-4.971 14.53.388 29.059.994 43.589 1.243 5.07.079 10.122-.786 14.999-1.203.359.447.469.566.561.705.092.14.23.279.24.428.064 1.551.156 3.102.156 4.653-.037 74.485-.083 148.969-.138 223.454 0 .308-.239.606-.626 1.541M579.763 496.644c-6.856 2.336-36.55 1.203-43.396-1.691-2.227-3.857.92-7.954-.101-11.931l-2.761 7.875c-4.766 1.73-9.432 3.241-14.778 2.903a34.974 34.974 0 01-.58-3.41c-.101-1.372 0-2.764 0-4.147v-244.73c0-9.496.138-19.011.681-28.486a151.905 151.905 0 012.485-17.937 24.969 24.969 0 012.595-6.642 7.522 7.522 0 012.524-3.091 6.745 6.745 0 013.641-1.234c7.975-.252 15.95-.424 23.925-.517 1.253.162 2.487.469 3.68.915 0 2.108.102 4.136 0 6.144-.8 14.298-1.564 28.596-2.512 42.883-.791 11.852-1.923 23.674-2.76 35.526-1.031 15.202-1.868 30.415-2.88 45.528-.562 8.431-1.289 16.902-1.942 25.284-.064.855-.101 1.72-.147 2.585-.571 9.943-1.16 19.965-1.684 29.948-.12 2.227 0 4.474 0 7.079 1.343-14.447 2.76-28.516 3.938-42.605.92-10.489 1.408-21.009 2.209-31.498 1.463-19.269 3.036-38.538 4.499-57.807.35-4.624.313-9.277.681-13.92.92-11.504 1.96-22.988 2.991-34.472.451-4.971 1.003-9.943 1.444-14.168a9.026 9.026 0 013.38-3.066 8.26 8.26 0 014.332-.911c8.944.218 17.879.646 26.814 1.123 1.371.07 2.76.835 4.518 1.412.543 2.297 1.518 4.584 1.537 6.88 0 6.553-.212 13.105-.525 19.647-.258 5.509-.727 11.007-1.141 16.505-.479 6.354-.92 12.717-1.518 19.061-.718 8.063-1.601 16.117-2.282 24.18-.792 9.456-1.39 18.892-2.181 28.377-.746 8.948-1.666 17.897-2.439 26.796-.837 9.614-1.518 19.249-2.383 28.834-1.04 11.503-2.227 22.987-3.294 34.491-.193 2.048 0 4.126-.184 6.175-1.169 13.412-2.522 26.845-3.552 40.228a1810.353 1810.353 0 00-2.761 42.376c-.331 6.343-.055 12.727-.055 19.478m-42.706-18.355l.129-.924-.129.924zm7.905-88.957c0 .288-.083.576-.129.865 0-.289.083-.577.129-.865zm0-4.892v-.825a1.991 1.991 0 00-.267.139c.064.199.147.388.267.686zm99.481 79.89l1.527 5.846v6.622l-2.972-1.293-2.834 2.556-3.037-1.571.35-2.814-1.96-2.565c.101-2.426 1.325-4.892-.644-6.96l-.258.218.377-.208-1.987 5.379h-2.567c-1.528-2.486.312-3.689 1.325-5.399l-1.74-1.989-3.377.905c2.899 6.542 3.423 14.119 10.674 18.424h1.979l1.067 3.47-1.316 2.366c0 3.222 2.761 3.669 4.095 5.091l-2.135 6.86c-5.079 1.989-10.609 3.838-16.066 1.77-2.31-1.62-2.392-4.971-5.852-5.041l2.365 3.57c-.35.447-.543.914-.727.914-2.853 0-5.798.388-8.531-.238-5.944-1.362-11.962-1.68-17.98-2.406h-.478c-10.122-.995-12.993-5.21-11.714-15.978.819-6.96 2.337-13.92 1.518-21.029a9.893 9.893 0 01.193-3.609c1.62-5.966 1.417-12.19 1.841-18.325.23-3.361 1.297-6.662 2.125-10.639l-.708-1.869c.92-18.891 1.96-37.076 4.886-55.391l3.855-3.45-3.22-.259c-1.307-2.823.285-4.971 1.472-7.099s2.485-4.066 3.681-6.055h3.174l-2.604-6.811 3.341-2.605 6.671 2.983.092 2.217 3.515-.447 1.656-6.105 2.374 1.342h-.092c.387 2.158 1.289 3.61 3.617 3.162.423 1.372-.608 3.242 1.049 4.474 1.104-2.187-.589-3.042-1.141-4.335-.194-2.177-.994-4.543 1.84-6.055l4.822 1.173-.423-6.055 1.996-1.372-2.917-3.42c0-2.605 1.703-2.883 3.147-3.739l2.862 2.208 2.448-1.402 6.625 5.329c.69-1.094 1.472-1.8 1.583-2.615.131-1.707.61-3.361 1.402-4.845a11.32 11.32 0 013.18-3.735l-4.601-5.896 3.322-.269-3.11-1.889c-.478.408-1.003.636-1.187.994-.69 1.521-1.233 3.122-1.914 4.653-.57 1.283-1.288 2.446-3.211 1.402.082-.696.23-1.471.257-2.247.028-.775-.064-1.302-.138-2.426l-3.68 1.531c-.148-.447-.534-1.083-.387-1.282.975-1.412 2.07-2.734 3.359-4.375-3.101-1.173-5.227 1.909-8.76.706l3.239 4.802c-1.298 3.977-2.844 7.577-5.751 10.003-2.448-.587-2.605-4.305-5.384-3.401.031-.61.065-1.216.102-1.819l-.525.089.506 1.621-.377 8.491-3.929 2.704c-.497-.507-1.426-.994-1.5-1.61a26.914 26.914 0 011.095-11.424c.386-1.204.69-2.436 1.205-4.266l-5.778 1.432-.488 8.68c-2.071 3.251-4.941.994-8.355 1.929l5.374 2.058 2.263 5.727 3.828.358c.276 2.157-3.966 3.201-7.959 2.277l.432-2.794-4.049.527-5.171-2.903c.313-8.879 1.73-17.321 2.052-25.852.322-8.531 1.104-17.161 1.702-26.079l3.893 1.292 3.211 6.334-1.141 4.126c.662.089 1.187.338 1.5.159 1.656-.935 3.266-1.989 5.024-3.062l.212-3.272-1.463-1.153 1.085-3.39c-.414-.199-.745-.508-.92-.428-1.325.487-2.622 1.054-3.754 1.521-2.273-1.551-.497-2.644 0-3.698l-1.684-1.313 2.908-2.187.598-2.725 3.625-1.62-.34-6.175 1.638-3.629c2.76.477 1.84 3.232 2.659 5.071 1.84-3.669 1.454-5.508-1.739-8.372-.359.139-.801.269-1.215.467-.414.199-.837.498-1.104.657l-1.84 6.96-3.957 1.799c-1.169 6.761-1.574 7.229-6.119 6.881-.626-5.966.745-11.782 1.306-18.056l6.156-2.983c.764-2.297-.404-3.311-2.585-3.977l-2.439 3.072c-.349-.497-.754-.825-.856-1.243-.699-3.042.921-4.852 3.516-6.363-3.414-4.435-2.687-9.346-2.393-14.328.46-7.725.525-15.471.791-23.206.074-.811.203-1.616.387-2.406 3.073-3.43 7.518-5.339 8.171-10.987l-4.03 3.381-2.503-3.649 3.193-2.496-2.521-1.929c-.203-3.848.92-6.87 5.033-8.521l1.896 4.504c2.512.517 3.073-1.859 4.508-3.162l-1.564-2.177 4.859-1.263c1.408 4.972 1.408 4.972-3.626 7.537l6.902 3.609c1.904.129 3.386-3.241 5.806-1.352l3.809-4.315-.552-5.359a47.79 47.79 0 0113.904-.279l.304 1.293-3.257 3.47 1.601 2.495-.562.776.46-.895 4.997 1.452 3.488 4.106c.533 3.281 2.291 6.473.496 10.321l-3.082-2.178c-1.841 1.492-4.509 2.078-4.307 5.558 2.255 3.56 4.068-.537 6.57-.557a10.272 10.272 0 011.436 2.675c.258 1.353.32 2.742.184 4.116-.552 7.716-1.187 15.421-1.758 23.127-.248 3.41-.423 6.821-.653 10.579l-4.711.627-.276-.786 3.036-2.456-5.466-.209.129-.129c.212 2.536 1.841 4.584 2.338 6.811.579 2.824 2.263 4.305 3.745 6.035l-.755 13.343-2.273.338-.524 3.301-3.874 1.074v.945l3.239 1.282 2.227 2.536-1.427 2.684 2.706 2.317-1.197 12.508c1.528 3.768.773 8.471.166 13.025-.589 4.355.506 8.948-1.518 13.174.456 1.18.766 2.421.92 3.689 0 5.508-.064 11.036-.304 16.535-.184 4.235-1.546 8.401-.46 12.736.249.995-.368 2.267-.635 3.709l-3.395-.716-.92-1.382v-2.774l-2.936-2.128-.533-4.454-5.641-.736 1.546-4.544-.497-.228-3.432 4.076c-1.197-1.392-1.997-2.416-2.899-3.331-.276-.288-.801-.288-1.463-.507l-.626 3.262c1.058 1.909 2.135 2.883 4.067 2.595.654-.1 1.427.745 2.466 1.342l-3.864 3.977a47.738 47.738 0 011.546 4.255c.377 1.462.533 2.983.791 4.534l3.938 1.233c1.279-1.163 3.506-.427 5.144-2.794l-4.868-.288-.22-2.784c2.502-2.983 5.079-.646 7.471-.895l.921 1.412.46 2.555 3.266 1.691-.662 8.381c1.84 3.679.414 8.482.46 13.194-3.819 1.73-6.23 6.573-10.932 4.664l-1.306 1.561-4.519-.647-1.509 4.455 2.098 1.203.921 6.771 3.22 2.426-2.374 3.768 1.666 4.047 4.196-9.863 2.079 2.555-1.086 4.136 2.375 7.636 3.947-1.631v17.639l-4.95-.905-6.874 5.051c.221 1.422-.304 3.858 2.595 4.971l.506-2.555 5.107-3.977 3.542 7.268-.8 3.749-2.935 1.571 3.193 2.316c.147 3.659.727 7.378-1.684 10.609a13.67 13.67 0 01-.801-2.863c-.193-3.212-2.632-4.564-4.196-6.96-1.592 3.082 1.518 4.126 1.601 6.144l-1.527 1.989 5.051 1.531m-4.14-166.044l1.067-.994.12.119-1.059.994-.128-.119zM591.136 429.43l.111-.328-.102.189-.009.139zm54.843-115.027l.046-.388-.101.248.598.14h-.543zm-44.058 20.472l.119-.11.387.259-.506-.149zm41.224-45.11l.442-.12-.277-.736v-1.59l-1.306.994 1.408.537-.332 1.084v.268l.065-.437zm-23.492-74.79l-.415.199.405-.278-.174-.786.184.865zm18.339 128.59v-.209.119l.57.318-.616-.218m-41.445 34.262v.368l-.065-.248-.441-.348.506.228zm18.983 69.659v.299-.159l-.442-.13h.47m-1.841-166.243l-1.582-.089.082.646 1.565-.676-.138-.278.073.397zm9.856-30.941l-1.298.467.479.676.819-1.213-.194-.875.23.945m.543-49.297l.111-.129.294 4.852-3.285-1.541-.92-4.554c-2.126 2.824-4.739 3.848-5.917 6.791l5.595 2.685 4.5-3.47.607-4.723 1.84-.766-.414-.636-1.334 1.521h-1.123m-8.981 114.213l.184.049h-.294l-.239-2.485-.746.209 1.095 2.227zm12.644-107.879l.092-.229v.129c1.251 2.108 2.41.358 4.6.309-2.245-1.512-3.45-.597-4.674-.199M592.48 453.283c-2.623 2.714-2.623 2.714.469 4.753-.837-1.989-.847-2.068-.515-4.902v-.149l.046.298zm35.62 41.521l-3.221-3.221-2.263 1.789c1.693 2.267 3.45 2.247 5.364 1.283l1.141-1.591-.764-.358-.266 2.088m-.709-112.989v4.514c-2.438-.995-3.837.636-5.227 2.336-1.03.994-.92 2.088 0 3.132l.819 3.112c2.43 1.094 4.215.865 5.687-1.551a36.363 36.363 0 01-1.435-4.235 10.515 10.515 0 01.156-2.834v-4.445c.561-1.451 2.31-2.595.847-4.842l-3.865.219 3.018 4.584m-22.268-10.281c-3.736.934-4.132 1.501-4.132 6.164l3.883-3.619-.129.139.414-2.754-.23-.288.194.358zm2.328-62.291v-1.283c0 .636 0 .905.046 1.163 1.638 2.198 0 4.534.064 7.248l2.282-.596.065.398-.166-.279c1.454-2.515-.083-4.802-.212-7.437l-2.07.795m9.202-10.211l.165 1.73.479-.139-.736-1.462v-10.042l-1.841-2.913-.543.239 1.197 3.977c-1.721 2.406-2.19 5.647-5.135 6.711l.101.159v-.328h4.022l2.282 1.989m-13.619 84.513l.129.139.8-2.058-2.76-1.491c-3.212 1.859-3.883 5.16-5.172 8.292l5.42-.587.423 2.665-2.604 3.371c2.457-.587 2.623-1.989 2.503-3.5l2.761-1.989-1.445-4.862m33.219-169.414l-2.982-3.789c-1.905-.139-2.65 1.313-2.604 2.894a15.014 15.014 0 01-1.454 6.96c-.487 1.064-.083 2.605-.083 4.027l4.022 2.117 3.229-1.988 3.037 4.653c.175-2.158.322-4.425-.644-5.717-2.089-2.784-2.31-5.966-2.678-9.177l2.512 1.233c.129 1.511.203 2.843.378 4.156 0 .179.497.288 1.113.626l.322-2.655c1.666-.318 3.81-.189 4.601-3.44l-3.313-4.444-5.521 4.623m2.43 89.962l-1.5-3.718.303.089-.165-.079-2.669.188-2.981-3.489.506-3.918-2.337-1.69 1.288-1.502-3.35-2.276c-1.638 1.789.35 4.703-2.318 5.568-1.841-.597-1.049-3.898-3.442-3.709-.47.1-.929.249-1.371.447l1.84 2.615-3.174 3.977 1.573 3.063 3.313-.995 3.119 2.605c-1.582 3.272-4.481 5.807-2.107 10.072l5.521.478 6.589-5.161 1.417-2.624-.175-.259.12.318zm-46.221 167.377l2.319 9.853 3.68-.776.479 4.673-1.795 1.402.35.995 4.454-.726c2.76-3.619-1.058-6.702.708-10.709l3.028-2.197-1.307-6.035-4.131-.398c-2.66-1.7-3.856-5.17-7.288-4.971v4.603l-3.322 3.888 2.825.348m13.895-92.259c2.309.994 4.094 2.158 5.99 2.486 1.895.328 4.067-.149 6.11-.269v-.924l-8.098-2.417-4.002 1.124zm-5.586-62.331c1.785-2.277 2.383-4.574 2.88-7.348l-3.773-.189c-1.674 2.605-1.84 4.862.921 7.537m19.738-35.396l-1.537 4.424 4.26-2.863-1.951-5.111c-1.38-.994-2.594-1.66-4.6.457l3.855 3.093m9.625 199.65l-3.726-.199a48.623 48.623 0 00-2.623 4.972c-.248.626.193 1.571.46 3.251l2.181-5.19 2.898 1.223.819-4.067m-39.613-48.53l1.417 5.906 4.315 2.664-1.463-5.319-4.269-3.241m40.883-230.473c2.945.676 4.546 1.779 6.506.805 0-2.227-1.003-3.222-3.064-3.719l-3.442 2.914zm-.257 62.838l1.996-2.446c-.386-1.69-.588-3.202-2.374-3.43-.791 2.744-.791 2.744.378 5.886m-8.586 52.945c-2.079-.597-3.478-.378-3.938 1.7-.285 1.293.267 2.277 1.969 2.217l1.969-3.917zm19.49-80.536c-1.04-1.989-.736-4.186-3.313-3.978-.184 2.198.359 3.54 3.313 3.978zm-19.885 26.189c1.84 2.207 2.953.507 4.159.049.147-.059.147-.566.258-1.053l-1.473-1.194-2.944 2.188m-1.758 46.343c-.083-1.73.571-3.43-.736-5.18l-1.914.785c.635 1.571 1.178 2.923 1.748 4.266 0 .079.276 0 .921.129m6.855-53.164c-2.54-2.983-2.54-2.983-4.711-.517l4.711.517zm13.057 119.055l-3.414 2.982 4.767.229-1.353-3.211zm3.193-38.777c-1.352.915-1.84 1.78-.809 3.46l2.088-1.442-1.279-1.988m-47.73 119.313l1.197-.289-.828-1.998-.746.268.377 2.019zm47.804-183.315l1.095-.059-.433-2.367-.754.129.092 2.297zm-21.44 2.655l.34-.706-2.411-1.283-.267.547 2.374 1.452m23.207 26.06a10.044 10.044 0 00-2.438 0c-.368.149-.626.586-.92.895l.414.606 2.954-1.531m-28.388-60.82v1.183l1.739-.387-.119-.796h-1.62zm-3.681 162.833l.819-.915-1.84-1.541-.433.467 1.408 1.989m-20.547 6.801l.975.079-.129-1.481h-.616l-.23 1.431m36.062-138.761v.756l1.84.129v-.875l-1.84-.01zm13.986 79.781l.598.248.405-1.272-.506-.209-.497 1.233zm-17.943-131.364l.543-.795-1.197-.477-.211.457.865.815zm11.898 71.658l.92-.577-.791-1.342c-.221.179-.654.397-.626.517.127.48.296.946.506 1.392m-1.739 202.554l.478.139c.083-.368.175-.746.23-1.124a2.04 2.04 0 00-.395-.119c-.12.368-.212.736-.313 1.104m3.147-23.704l.846-.119a19.44 19.44 0 00-.441-1.293.744.744 0 00-.378.08v1.332m1.003-157.165l.286-.408-.838-.736-.322.458.92.686m-36.494 175.47l-.147.427.368.189c.055-.139.184-.288.156-.388-.027-.099-.23-.139-.349-.199m33.494-282.254c-.129-.527-.064-.269 0 0 0-.289 0-.567 0 0zm7.279 104.398l.57-.447a3.443 3.443 0 00-.542-.447c-.065 0-.323.159-.313.198.079.24.174.472.285.696m-33.973 153.745c.129-.069.313-.109.359-.209.046-.099-.056-.278-.092-.427l-.571.358.313.278m36.807-245.536l.819-.885-.635-.756-.828.895.635.756m-37.083 14.636l.497.467c.073-.109.23-.298.211-.318a4.679 4.679 0 00-.478-.477l-.23.328m-11.3 162.524a4.136 4.136 0 00-.405.626c0 .06.193.328.23.318.223-.1.439-.22.644-.358l-.469-.576m-5.917 1.869l-.377-.189c-.138.328-.285.656-.396.994 0 0 .212.16.322.239l.451-1.054m31.636-.537l-.046-.388c-.331 0-.663.08-.985.16a2.392 2.392 0 000 .397l1.031-.159M622.146 268l-.165.666c.119-.05.312-.07.349-.159.037-.09-.073-.259-.147-.477m15.689 163.956l.515.348.599-1.054-.507-.338-.607 1.054m-18.192-118.16l-.175-.358-.395.477c.11.06.23.169.34.159.111-.01.157-.179.23-.278m-28.194 111.627c0-.149.129-.328.083-.437-.046-.11-.24-.169-.359-.249l-.138.706h.414m51.659-230.254c-.12 0-.304.059-.35.159-.046.099.055.258.101.388.12-.05.295-.07.35-.159.055-.09-.055-.249-.092-.378m-30.09 113.884l-.589-.199.101.398.488-.199zm12.496 133.332l.212-.367-.534-.229a1.225 1.225 0 000 .427c0 .09.203.11.304.169m6.321-166.362l-.119.627.349-.1-.23-.527zm12.349-23.335l.313.218c.046-.109.157-.258.12-.338-.037-.079-.194-.139-.295-.209l-.138.339m-5.41 95.221l.266-.596h-.257a3.583 3.583 0 000 .586m-49.423 99.219c-.138.06-.331.08-.387.179-.055.099.056.278.083.428.129-.06.313-.1.377-.209.065-.11-.055-.269-.082-.408m3.883.915l.359.06-.065-.368-.294.308zm41.942-73.865l.395-.179-.524-.248.129.437m-22.618-139.129c-.046.129-.148.269-.12.368.028.099.184.149.285.219l.175-.587h-.34zM518.543 98.705c48.77 1.988 97.217.716 146.079 2.535 1.785 23.306 1.84 46.144 2.604 69.41-3.211.438-6.009.995-8.834 1.164-5.107.338-10.223.477-15.33.656-8.456.308-16.922.507-25.379.885-10.683.477-21.357 1.382-32.05 1.601-21.072.427-42.144 1.919-63.235.457-1.104-.08-2.208-.229-3.607-.378a19.355 19.355 0 01-.616-3.42c-.037-23.339-.043-46.668-.019-69.987.08-.978.209-1.95.387-2.913m-.166 645.374c2.706-.199 5.218-.597 7.711-.537 11.162.258 22.315.616 33.477.994 10.214.338 20.437.537 30.633 1.163 6.837.418 13.664 1.283 20.455 2.317 10.812 1.651 16.131 9.078 15.781 20.8a88.756 88.756 0 01-1.527 15.432c-1.933 9.217-1.426 18.523-1.675 27.839-.138 5.3 0 10.619 0 16.227a28.458 28.458 0 01-4.085.656h-84.39c-3.396 0-6.699-.507-9.616-2.605-1.856-1.226-3.429-2.892-4.602-4.871a16.358 16.358 0 01-2.171-6.553 40.837 40.837 0 01-.239-4.653V749.16c0-1.532.147-3.063.248-5.081m67.717-668.163a5.117 5.117 0 011.834 1.984c.436.828.657 1.767.641 2.719 0 1.54.211 3.082.34 4.742l3.497 1.989-3.451 5.727-53.002 1.64-1.647-6.572-2.761-.904v5.508l-1.951-1.273-2.963 2.794-5.686-2.426-.921 3.669c-1.84-2.854-1.84-5.28-1.84-7.586 0-9.635.23-19.26.368-28.894.079-.683.1-1.371.065-2.058-.746-4.633.248-8.86 2.585-13.125l3.239-1.53 1.473-3.043c3.128-2.198 6.33-2.416 9.671-2.068.441 4.623.322 4.971-3 9.634a6.706 6.706 0 01-1.684.308 9.13 9.13 0 01-1.96-.566l-1.629-4.077-.727.17 1.206 6.601c-3.479.994-3.018-2.635-4.528-4.643a6.87 6.87 0 00-.385 2.847c.073.968.35 1.905.809 2.74 1.086 2.486 2.282 5.091 1.628 8.014-.138.637-.69 1.114-1.058 1.631l.111-.13c.598 1.522 1.84 1.74 3.156 1.82 7.628.478 9.708 1.174 15.533 5.2l3.469-1.71-3.681-.517-3.984-5.558-3.838 1.432-5.64-4.892c.368-2.724 2.3-.994 3.432-1.61l-.414-4.256c2.2-3.132 5.317-5.368 8.843-6.343l3.874 5.389c3.874-3.202 3.819-9.227 9.275-11.693 8.641 0 18.404-.07 28.121.07 1.647 0 3.276.904 4.684 1.322l1.095 6.96 3.901 1.253 4.887-1.651v-.815l-4.123-.676-.552-2.576c4.233-2.744 5.521-2.267 9.966 3.68l2.125-1.005a250.68 250.68 0 01-3.975-3.48c-.212-.199-.239-.616-.423-1.104.809-2.187 2.742-1.859 4.398-1.879 5.917-.07 11.834-.1 17.741 0 6.377.12 12.754.537 19.131.577 4.748 0 9.487-.438 14.235-.537 4.941-.1 9.874 0 15.248 0a32.69 32.69 0 01.45 4.037c-.119 8.64-.395 17.27-.432 25.91a49.1 49.1 0 00.801 10.281c1.987 9.367-1.703 14.388-9.994 15.6-.313 0-.635 0-1.012.07l-5.779-2.207-1.702 1.322h-10.849l-.092-.725 3.478-2.327 2.549.815c0-.835.23-1.83 0-1.988a24.654 24.654 0 00-3.294-1.82l.147-.268-.055.159c-.994 4.404-4.739 4.553-7.739 5.448-1.84.557-4.039-.159-6.073-.09a43.177 43.177 0 00-4.822.687l-3.266-2.347-11.963 1.631-3.947-4.275c.727-3.838 3.027-.706 4.601-1.213.11-3.878-3.469-2.983-4.445-4.872l-3.368.775c-1.702-3.4-6.91-2.495-7.83-7.07 1.021-2.544 2.705-1.66 4.196-1.45l3.165-2.317 2.448.825c.248 1.919-2.144 3.977.57 5.757l4.463-1.989 2.613-5.568-2.907-3.44v-3.38c-3.111.169-1.436 3.082-2.66 4.494l-6.303.835c-2.052 1.988-4.426 4.752-8.282 3.172l-1.196 1.54-4.739-.258-1.398 3.092v.19l-.092-.26zm21.412-18.722l.092-.388-.175.258h.304l-.221.13zm-54.162.228l-.193.08h.304l-.111-.08zm11.493-7.258l-.276.249.378-.239.22.348-.312-.358m81.298-7.904l-.111-.14h.221l.175.249-.295-.1M527.064 64.93l.064.169h-.184l-1.159-1.57-.479.616 1.758.785m78.961-15.66l-.23-.1h.331l1.988.886.174-.776-2.263-.01zm27.403-1.422l.083-.378-.166.26 1.399 1.848.533-.785-1.849-.945zm13.582 22.75v-.388.248c-.046 1.164-.092 2.317-.184 4.524 1.444-2.197 2.364-3.33.248-4.385M521.175 88.454c1.84-.547 2.622-1.76 1.923-3.818l1.104-.706-1.012-9.247 4.306-5.668c-2.484-1.302-3.524-4.175-6.837-4.404v7.815c-.156 3.032-.276 5.31-.395 7.586l.773-.1 2.208 4.883h-2.484l.358 3.798.102.268-.046-.407zm93.242-39.99l-2.761-.756c-.129 2.257.377 3.47 2.678 3.828v-3.201l7.15.914 2.585 1.134-.119.12c.745-.806 1.362-1.93 2.254-2.347 1.629-.756 2.338-2.059 3.055-3.719-2.245-1.62-3.423 0-4.601 1.263-1.177 1.262-2.171 2.436-3.257 3.659a25.788 25.788 0 00-3.8-2.615c-1.436-.657-2.761-.229-3.12 1.72m23.603-6.026l1.233-2.903-2.337 1.72 1.233 1.084.92 5.717c.496-.483.949-1.015 1.353-1.59.22-.618.383-1.258.487-1.91l-2.889-2.117zm-5.862 24.052c1.841.438 3.681.895 5.521 1.273.184 0 .442-.348.865-.706l-1.444-2.337-5.061 1.83.92-2.983c-2.577.537-4.546.905-6.487 1.392-.267.07-.405.726-.921 1.66l3.101-1.421 3.469 1.322m-70.292-15.53c-3.902.815-4.325 1.322-4.325 6.223 2.245-1.71 3.846-3.569 4.426-6.333l-.193-.269.092.378zm13.158 9.803l.111.179h-.23c-.506-.537-.92-1.362-1.528-1.571-1.96-.656-3.975-1.074-6.634-1.75l-3.589 1.084c4.187 1.988 7.84 3.45 11.88 2.058m3.947 10.5l.644 3.23c2.393.826 4.242.826 5.843-1.988l-3.082-5.906.073.12-.993-1.581-2.485 2.913a1.953 1.953 0 00-.555.705 2.123 2.123 0 000 1.801c.131.28.321.52.555.705zm-20.446-1.422c3.938-2.536 1.214-6.046 1.463-9.217l-2.457-1.104-3.276 3.301-1.463 4.971 4.951-.487.92 2.625-2.761 3.241c2.54-.377 2.623-1.869 2.678-3.37m101.22-13.363c-2.181-2.118-1.233-6.602-5.521-7.09l.92 3.68-3 3.082 5.052 3.46 2.595-3.132m-24.422 15.998l-4.656-.557 2.678 9.585c2.227-3.57 2.227-3.57 1.978-9.028zm-52.202-9.615c.175-2.237 3.23-3.44 1.73-6.403l-3.349.288 1.619 6.115zm36.642-12.32l-3.083.468.783 5.797 2.291-.905.009-5.36zm23.538 2.626l-1.941 3.748 6.956-2.555-5.015-1.183m-44.343 5.965l-2.282-3.45-3.497 2.108 5.77 1.342m-51.475-8.65c2.144-1.55 3.8-1.879 4.6-3.619-1.656.328-3.34.617-4.6 3.62zm93.306 11.166c-.92 1.64-1.748 3.42 1.159 2.446l-1.159-2.446zm-15.643-7.298c-1.84-1.919-2.761-2.585-3.948-.279l3.948.279zm-15.689-10.728c1.5 1.093 1.5 1.093 2.319-.448l-2.319.448zm46.009 18.165c-1.969-.159-1.969-.159-1.518 1.91l1.518-1.91zM527.579 85.252l-.984-.219a12.788 12.788 0 00-.313 1.74c.103.767.269 1.522.497 2.257l.763-3.788m-5.861-29.6l-.792-.377-.92 2.078.819.387.893-2.087zm117.341 29.69l-2.116-2.098-.543 2.485 2.659-.407m-69.013-2.088l.846-.855-1.84-1.591-.451.477 1.426 1.989m-20.391 6.71h.865l-.377-1.311-.488.129v1.183zM527.275 77.09l-.414-.775-.92.815c.212.199.442.557.644.537.203-.02.442-.368.663-.577m26.989-1.193l-.203.795 1.022.348c.092-.25.157-.51.193-.775a5.4 5.4 0 00-1.012-.368zm24.725 1.74l.35.457 1.104-.944-.377-.487-1.077.994m75.335 4.414v.18h.921v-.23l-.921.05zm-106.189-3.142l.405.08.249-1.163-.479-.08-.175 1.173m92.378-28.655c.242.133.491.253.745.358.073-.13.138-.267.193-.407a7.296 7.296 0 00-.754-.328 2.23 2.23 0 00-.184.377m-31.664-10.072l.138-.686-.396.14.258.546M521.165 51.02l-.193.358c.111.05.249.17.322.13.074-.04.138-.22.203-.339l-.341-.159m20.677 31.568l.322-.676h-.313a3.425 3.425 0 000 .657m71.59-6.533l.295-.14-.295-.138v.278zM591.9 53.415l-.184.299h.294l-.11-.299zm149.888 49.625v80.626a41.177 41.177 0 01-5.281 0c-11.558-1.561-23.125-3.073-34.655-4.872-7.729-1.203-15.376-2.983-23.105-4.236-4.601-.756-7.215-3.689-8.227-8.193a85.165 85.165 0 01-2.438-15.242c-.359-9.475-.387-19.001.119-28.456.35-6.642.838-13.413 3-19.568 2.457-2.654 5.383-2.793 8.227-2.813 9.1-.05 18.21-.159 27.301.149 10.684.368 21.367 1.123 32.041 1.77 1.033.188 2.046.481 3.028.875m-57.383 651.866c11.696-5.09 24.504-4.464 38.795-5.617 2.613-1.104 2.613-1.104 6.653 1.213 2.125 5.061 2.125 10.748 2.236 16.415.101 5.339.239 10.669.267 16.008 0 3.977-.12 7.954-.175 11.862l-.442 31.459a8.77 8.77 0 01-.589 1.899 47.375 47.375 0 01-5.916.735c-13.435.07-26.87.05-40.304 0a35.488 35.488 0 01-3.874-.427 13.914 13.914 0 01-.534-2.635c.11-17.251-.129-34.501-.92-51.702-.295-6.483.589-12.737 4.775-19.18m38.648 5.777c-2.153 1.988-1.141 2.983.92 4.166l-.92-4.166zm18.496-668.79c-1.96.1-3.543.259-5.126.259a158.074 158.074 0 00-28.093 2.814c-7.757 1.412-15.588 1.63-23.253-.756a24.911 24.911 0 01-5.604-2.784 6.024 6.024 0 01-2.185-2.354 6.64 6.64 0 01-.75-3.234c-.111-6.363-.249-12.727-.322-19.09-.065-5.478-.147-10.937-.065-16.435.065-4.256.359-8.501.562-12.926 1.592-.189 2.677-.437 3.754-.437 15.33 0 30.67-.08 46.009 0 7.647.09 13.306 4.951 15.082 12.528.277 1.17.422 2.371.432 3.579v36.241a19.35 19.35 0 01-.432 2.595M637.302 756.796a10.301 10.301 0 013.289-2.834 9.527 9.527 0 014.072-1.143c8.77-.438 17.548-.597 26.327-.776 1.159.076 2.309.275 3.432.597 2.475 1.63 2.917 4.106 3.248 6.442a88.8 88.8 0 011.132 11.812c.092 10.361 0 20.721-.193 31.072-.129 6.721-.552 13.442-.92 20.154-.111 2.038-.433 4.076-.645 5.965-3.91.994-35.353 1.213-40.745.259a14.737 14.737 0 01-.672-3.242c0-4.285.248-8.57.35-12.856 0-1.193-.111-2.396-.166-3.599a40.31 40.31 0 01-.239-5.677c1.233-13.075.239-26.199.975-39.284.138-2.396.497-4.773.736-6.96"/><path d="M647.175 392.274v8.501c-6.441-2.883-6.441-2.883-7.361-6.631l7.361-1.87zM595.847 85.202l2.356 3.5-2.475 4.335-2.273-1.223 2.42-6.602m7.702 2.118l2.88 2.177c-2.595 1.283-4.316.676-6.368.13l.157-2.983-.111.13 3.516.615-.074-.07zm-58.698-46.592l-5.908-1.402c-.11-2.664 1.647-2.118 3.285-2.177l2.632 3.57M646.77 407.864l.111 2.287-3.294.259-.24-3.132-.128.139 3.607.497-.056-.05zm-2.788 7.219l-1.417-3.55c2.402.487 2.558 1.342 1.417 3.55zM601.194 91.526a5.269 5.269 0 01-.377 1.044 6.052 6.052 0 01-1.178-.358c.101-.299.165-.825.303-.845.413-.01.825.044 1.224.159m23.115 96.673l.184 1.313-.681.119-.193-1.312.69-.12zM595.176 349.55l1.159 1.382-.515.647-1.5-1.114.856-.915zm46.497 138.851l1.095.626c-.249.338-.461.915-.746.995-.285.079-.846-.269-1.279-.428l.92-1.153"/><path d="M646.826 407.944l-.875-1.989.58-.208.23 2.137.065.06zm-53.187-62.013l.193-.378c.181.147.351.31.506.487l-.193.358-.506-.467zm30.587-161.043h-.819l.294-.725.525.725M603.678 87.37l-1.178-1.86.709-.347.368 2.167.101.04zm5.963 258.422l-.294-.199.322-.119-.028.318zM527.699 60.335l.395-.159-.046.398-.349-.239zm102.076 123.34l.276.179-.304.11.028-.289zm-29.501-97.051l-.368.04.266.09.102-.13zm43.073 320.694l-.303-.189.175.318.128-.129zM531.131 607.714l-.239.159.35-.05-.111-.109zm3.331 12.746l.69.08-.69-.08zm20.529 39.026l-3.055-2.217c1.39.129 2.595.576 3.055 2.217zm125.624-324.711v-1.143c1.766-.487 2.282 1.064 3.036 2.207l-3.036-1.064m-50.951-25.99h-2.908c1.418-1.471 1.418-1.471 3.046-.865l-.138.875m-30.32 168.888c-2.07-2.168-.8-3.292.12-4.902 1.665 1.819 1.555 3.142-.12 4.902zm39.421-120.457l-.534.487a7.168 7.168 0 01-.377-.676s.248-.258.303-.228c.215.12.419.263.608.427m1.96-144.418c.093.256.173.519.239.785a1.931 1.931 0 01-.35.159 8.306 8.306 0 01-.23-.775c.118-.071.241-.131.368-.179m-37.745 170.707c-.737 1.412-1.224 3.41-3.387 1.68.626-2.267 2.126-1.75 3.506-1.541l-.119-.139zm19.038 8.332v-3.251l4.15.208-4.15 3.043zm3.984-.746v.288l-.276-.149.276-.139zm-67.228-326.52l-2.761.994c.396-2.336 1.16-2.694 2.761-.994zm23.612 2.049v1.859l-.516-.12.589-1.62-.073-.12zm-3.543 4.722V68.02c.966 1.114 1.104 2.227 0 3.33z"/></g><g clip-path="url(#clip1_213_2)" fill="#D9420C"><path d="M373.574 675.932l-3.543 14.029 1.218.522c1.116.677 2.057 2.083 3.912.776-1.301-1.289-2.667-.902-4.023-.676v-2.119c.826-.336 1.63-.722 2.408-1.154.832-.59 1.63-1.225 2.39-1.902l1.66 1.803 9.909 1.451 1.559 4.337 3.349.631v10.819c-8.11 2.037-10.896 1.632-15.518-2.344l1.495-5.347-1.2-2.704.102.108-2.131 1.803.101-.108-3.69-1.713c-1.532 3.75-1.107 7.474-1.845 10.972l.073-.081-2.002.36-1.642-2.704c-2.168 2.758-.922 5.148.092 7.87l6.403.64-.12-.108-.747 3.318-5.333 3.02 1.744.676-.083-.072 1.937 4.111-2.583 4.409 2.602.676 2.103-1.577 4.613 1.298a8.262 8.262 0 001.111-4.349 8.27 8.27 0 00-1.332-4.288l5.988-1.56 4.133-3.092c.378 3.218-1.015 5.22-2.491 7.537l8.303 7.771-6.209.731-2.648-2.299c-2.961.171-5.102 1.631-7.058 4.138v10.133c-4.926 2.588-9.899.902-15.582 1.695l1.707-3.002c-.462-.902-.923-1.884-1.403-2.849-.055-.108.074-.297.111-.451 3.561-1.983 3.561-1.983 4.401-5.148-2.906-1.334-3.072 2.949-5.536 2.543l-6.652-6.996c-.479-2.164 1.061-5.265-1.946-7.592l-3.451 2.399-2.546-1.326c-.101-1.622-.175-2.957-.258-4.291.821-.451 1.919-.739 1.227-3.129l-1.107 3.228-1.753-.721.452-4.508-1.799-1.082.083-.333-.12.216-.923 4.192-3.985.613 2.094-5.815-1.532-1.578-2.989 1.434 2.436 5.869c.36 4.508 3.755 7.168 7.048 10.152l3.1-.145 1.19 3.607-1.577 2.145c0 2.705 2.362 3.282 4.207 4.58l-1.43 2.958.655 4.507c-.987.37-1.974 1.073-2.934 1.028-4.936-.198-9.862-.595-14.761-.901-2.205-.821-2.27-4.274-5.933-4.238l3.137 3.552c-5.535.947-10.48 1.704-15.536.424a8.274 8.274 0 00-3.294-.361c-8.082 1.407-16.228.722-24.356.902a10.309 10.309 0 01-2.03-.388c-1.845-5.95.093-11.972-.525-17.941-.619-5.968-.231-11.936-.25-17.878-.018-5.941 0-12.108 0-18.202l3.635-.749-3.856-4.571 1.707-5.274 7.039 1.118 1.356 3.255 2.196-5.536-3.33-.478-4.263-4.724-2.768.794c-2.186-3.535-2.002-5.41 1.061-9.314l-2.454-6.491v-19.401c4.078-1.659 6.791-.568 10.223 4.03l-1.901.901.378.496 1.393-1.524 2.049-2.56a23.934 23.934 0 01-3.691-2.389 20.54 20.54 0 01-2.417-3.39l-4.198 1.109-1.845-2.534c.273-1.448.403-2.918.388-4.39-.452-3.94-.452-4.048 3.183-6.122 1.568-.901 3.081-1.875 4.502-2.705l3.598 4.734c3.976-.622 2.961-4.409 4.853-6.257 1.891-1.848 2.924-4.589 4.52-7.213l2.011.902 2.039-1.307-2.002-1.362-1.061-4.219 3.183-2.317 9.032 4.039c1.938-1.596 1.938-1.596 3.156-5.139l1.937 1.307h-.092c.563 1.037.636 2.534 2.555 2.443l2.224-5.355 5.028 1.271c1.744-1.893.369-3.687-.305-5.481l2.381-1.28-2.768-3.093c0-2.127 1.467-2.704 3.192-3.245l2.768 1.956 3.063-1.695 1.328 2.236 4.429 2.317c3.081-.261 1.236-3.074 2.371-4.418 1.065-1.463 2.021-3 2.86-4.598l2.113.406 1.236 1.037h.36l.046-.361 2.066-.117c.043.691.083 1.382.12 2.074l-.11.243v-.352l2.454-.739-2.519-1.262-1.965.144c-.205.136-.396.29-.572.46l-1.264-1.055-5.369-6.085 3.265-.803-3.053-1.127c-3.395 1.199-1.845 6.14-6.145 7.005l.397-5.616-4.142 1.983c-1.209-2.831 1.54-3.309 2.832-4.445-2.168-2.857-2.168-2.857-.406-4.697l.277-.225-.369.207 3.312-2.632c.064-1.163.138-2.624.194-3.607l-5.536-4.093c0-3.876 0-7.447-4.022-9.214-2.325 1.073.322 4.319-2.657 5.004-1.901-.361-1.089-4.913-4.798-2.876l2.002 2.2-1.845 1.893h.129l-1.624 1.803 1.919 2.804-.12-.135c3.617-.811 3.617-.811 6.256 1.875-1.486 2.218-3.645 4.346-2.602 7.907 1.027.45 2.077.847 3.146 1.19a29.4 29.4 0 003.312.55c-1.033 1.956-1.033 1.956-4.613 2.623l2.565 3.652-1.513 4.273-4.899 5.626-2.934-3.85-2.094.325 1.088-2.993c2.233-.595 3.451-2.308 3.875-5.184l-3.367.766c-1.255 2.47-2.122 4.76-1.559 7.339v7.474l-3.598 2.209c-3.599-1.524-1.624-4.508-1.726-6.564-.11-2.299 1.163-4.652 1.772-6.996a6.05 6.05 0 00-.222-1.749l-4.161.595c-2.767 3.029.434 7.032-2.767 9.701h-5.933l-.175.604c.618.261 1.218.568 1.845.784.628.217 1.523.442 2.593.758l2.454 5.526h4.253c-3.589 2.705-4.032 2.777-8.765 2.047l.785-2.597-3.986.46c-5.535-1.361-8.515-5.076-10.361-9.827l-6.679-.938-1.199 1.109-2.87-4.508c-.074-2.84 2.159-1.884 4.18-2.641l-3.525-3.381-2.463 3.11c-.304-.387-.784-.721-.793-1.063-.074-1.858 0-3.724 0-5.888l5.055-4.021 2.307 2.579c.332-.271.683-.415.738-.631.803-3.021-2.205-4.211-3.34-6.311l-.48-4.129 2.095-1.596 3.69 1.379.138-.433-5.369-4.859c-1.504-.442-4.17.117-5-3.246l3.367-4.3-3.109-.207c.332-3.805-1.412-7.673 1.494-11.576h5.065l-.193.901h.129l.092-.856c4.419-1.443 8.792-.361 13.636.054 3.644-1.488 3.958-1.524 8.414-.83v4.806l-2.214 2.876-6.901.622-1.679-5.545c-1.56 3.814-1.587 6.861-.203 10.251a12.212 12.212 0 002.039-.577 15.616 15.616 0 001.937-1.262l4.678 3.209 2.675 4.986-1.218 4.589 6.781-3.264c-.203-1.163.858-2.876-1.282-4.075l1.098-3.85-4.798 1.722c-1.005-1.803-1.005-1.803-.147-3.408l-1.467-1 3.118-2.371v-2.507l3.377-.829 1.467-4.787h14.761l2.371 3.299 2.611-3.119c5.535-.812 8.94-.433 12.575 1.46l2.352-1.947c4.002.581 8.083.36 11.994-.649 1.356-.325 3.045.532 4.548.974 1.652.486 3.266 1.127 4.927 1.713l4.096-3.039h4.309c3.238 3.255 8.303 4.607 10.259 9.566l2.325-1.037v-3.39l-3.691-5.067 5.342-.649 3.183 1.614 3.478-.694c4.069 1.803 5.536 4.814 5.324 8.808-.425 7.213-2.648 14.046-5.305 21.322l-4.023-1.902.867-4.102-3.69-1.858c-2.251 3.607.627 7.213-.129 10.819l1.236-2.795 4.346 1.695-4.069 12.803-5.877-3.544c-.609 2.822 3.487 3.192 2.048 5.662l-.184.099.055-.216 4.401 2.705a51920.38 51920.38 0 01-3.017 30.346c-.424 4.328-.784 8.655-1.19 13.163l-4.715 3.688 3.617 1.956-.415 4.192-4.041-.261 3.395 3.651c.144.38.231.777.258 1.181-.286 6.086-.562 12.18-.978 18.266-.064.956-.802 1.875-1.319 3.029 1.624 2.894 1.845 17.508.055 22.386-2.952-2.759-1.891-6.915-4.299-9.548l1.227-2.984-1.743-3.66 3.69-2.84-2.325-2.84h-7.381l2.399 2.47-1.799 1.055 4.475 10.675-5.887 2.263c.416 1.947 1.283 3.263 3.156 3.84l-.139-.135 1.79 3.318c-4.355 1.911-4.17-2.525-6.163-3.607-1.956-.622-3.349 3.03-5.628.55-.35-2.235 3.912-4.931-.396-7.032l2.611-5.409-4.373 2.11-1.707-4.553a6.659 6.659 0 011.504-2.988 6.88 6.88 0 012.786-1.917c.636-.252 1.024-1.136 1.983-2.281-4.271.271-7.86-.505-11.227 1.803l2.583 2.705v8.43l1.66 1.541.222-.117-.351.099 2.288-2.109c1.79.964 1.79.964 2.113 2.614m31.829-137.182l-.23.054h.369l-.139-.054zm-96.235 20.312v-.117l-.175-.243.175.36zm40.391-.144h-.304l.193-.126v-.153l.111.279zm-24.255 2.705l-1.171-1.064.922-8.916-2.389-3.147-.508.298 1.172 3.2-2.187 4.598 3.128 3.859 1.163 1.064.073.252-.203-.144zm30.095 65.354l-.166.108h.295l-.129.235v-.343zm3.986 2.813l-.259.234.351-.171.166 1.74h.194l-.166.054-.277-1.866m23.987 13.244l-.249.189.351-.135-.074.18-.028-.234zm-66.915-82.042v-.352l-.111.235.323.324-.249-.207m87.646-18.419l.23-.289-.101.397-.148.135.019-.243zm-52.828 9.286l.453-.144-.48-.559.12-1.371-.803.199.83 1.054-.184.902v.234l.064-.315zm-47.531 80.636l.221-.108h-.323l.111.108m32.291 88.353h-.369l.442-.135-.11-.244.037.379zM299.749 628.6l.286-.442-.194.46h-.092v-.018zm16.671-3.02l.193-.117-.323.153-.267-.279.387.234m10.785-77.408l.646-2.236 4.355.09v.342l.138-.225-3.238-5.617a3.021 3.021 0 00-4.078.271l3.764 3.363-.858 1.866-.553 2.272-.176-.126zm58.907 74.316l-.156.054.276-.118.388 1.93.793-.415-1.301-1.442m-64.507-78.644l-2.371-.189.083.685 2.233-.64-.046-.144.101.288zm-29.974-1.992l-1.938.703.415.604 1.467-1.416.074-.126-.018.235zm50.253.586l-.212.099.341-.09c.221.739.101 2.091 1.734.577l-1.845-.586m4.761 29.192h-.176l.259-.027.922 1.443.499-.469-1.486-.902m-49.377 125.183l-.101.117.378-2.615-.784.054.507 2.444zm61.288-72.775l-1.384-.703c.175.992.378 2.092 1.301.658h.166l-.083.045zm-35.833-49.045l.922-.18-.922.189c.332-1.046.793-2.118-.84-2.786l.923 2.804m-22.456 124.93c-2.334 2.317-2.334 2.317 0 3.76v-4.048.288zm55.567-80.239h.166-.295c-.526-2.525-2.611-3.147-4.751-3.724l.618-2.776-3.211-2.101v-3.886l-5.886-.901 1.559-4.31-.544-.225-4.244 5.039-2.62-5.238c-2.205 2.75-1.771 4.283.646 6.401.452.487 3.1-1.541 3.635 1.47l-3.912 3.3 1.845 2.091.923 5.716c4.511.992 8.469.46 8.506-1.28l-4.05-.55-.36-2.317c2.408-2.623 4.853-1.109 7.252-.496 1.245 1.677 1.845 4.156 4.751 3.805m-63.769 76.804h-3.543l-1.891 2.083c1.218 1.866 2.62 1.641 4.345.793l1.015-2.93h.249-.148m40.483 32.087l2.178-.902 2.565 1.01.553-3.841h-3.838l-1.347 3.796c-1.928 1.1-1.55 2.091 0 3.272 1.227-1.388.498-2.371-.147-3.362m-32.503-44.754l-.544-1.938-.794.504 1.467 1.317-.203 2.47c1.495.622 2.307 2.326 4.862 2.425l-2.694-5.265-2.103.487m18.599-107.719l-.12.325.157-.208-1.144-7.609-1.91.406-.203-.253.323.136v6.572l2.897.631zm17.16 158.468h-1.042c-1.578.063-3.165.099-3.912 1.848 3.284 2.218 3.284 2.218 6.153-.514l-1.199-1.343m13.581-32.745l-2.953-.559 1.255 4.211h-.36l.24.09 2.057.847-2.767 2.371 3.875-.207a3.808 3.808 0 00-.683-4.823 6.02 6.02 0 01-.794-1.975v-.126l.13.171zM299.287 576.58l-.092-.207.221.081-2.897 4.327 3.322 3.057 3.81-1.686-4.355-5.581m56.527 100.885c0-.848.628-1.975-1.421-1.938l1.532 1.803-1.449 4.183c2.501-.37 4.613-.73 5.721 1.433l-7.252 1.236-2.842-.532-7.223 4.562c.442 1.244.239 3.335 2.767 3.777l-.12.099c.194-2.704 2.427-2.813 3.94-3.002l1.531-3.173 2.132 5.409 1.457.153-.369-3.759c2.316-.74 2.888.622 3.506 1.92l3.69 1.334 1.762 3.967 1.43-3.895 1.984.19-.101.108a2.765 2.765 0 00.296-2.229 2.81 2.81 0 00-.545-1.017 2.883 2.883 0 00-.914-.721c-.867-.577-1.707-1.199-2.611-1.803l-1.845 3.417-3.294.757 2.454-6.852c2.27-3.209 2.187-3.822-1.061-7.104l-3.182 1.731m-27.244-32.907c.535.216 1.273.279 1.586.667 2.307 2.813 3.875 3.083 6.459.902a18.516 18.516 0 001.623-1.704l-.295 5.292 1.753.577.923 6.798 3.164 1.803c-.793 2.2-3.792 4.093-.387 6.076l-.12.072 4.096-7.699c3.386 1.668 1.227 3.922 1.227 5.274l2.131 7.213c3.211-.108 4.189-3.516 6.966-4.797 1.845.442 3.948.902 5.268-1.758l-4.373-5.761 1.752-1.226c.563.28.969.505 1.403.685.433.181.922.361 1.421.541 0-1.469-.351-2.704-1.117-3.038a61.963 61.963 0 00-7.094-1.938c-.729-2.588-6.763-.992-7.031-5.662 1.227-2.173 2.768-1.397 4.244-.902 3.109-2.614 3.109-2.614 5.831-1.082-.277 1.632-2.057 3.472.637 4.779a9.577 9.577 0 004.401-2.738 9.241 9.241 0 002.269-4.592l-3.072-2.705v-3.299l-1.956.901v3.444l-6.781.622c-2.205 2.308-4.899 4.012-8.525 3.138l-1.439 1.623-5.351-1.605-4.89-3.011 2.187-2.272 1.624-8.385h-3.894l2.279 8.43c-2.491-1.01-3.939 1.154-5.868 1.803l-.922 3.48h-.129v.054zm64.479-77.724l-.858 2.191.563.406 1.716-1.208-1.559-1.308-.951-1.668c2.242-2.344 3.746-4.787 1.597-7.78-3.995-.55-3.995-.55-7.178 2.236l1.697 5.193-.535 2.56 5.536-.649m-83.439 76.065l2.685-1.803-.627-6.491-3.054-1.939 4.53-5.292-.406-2.281c-4.475 1.803-4.18 5.662-5.185 8.862l-3.561 6.943 5.535-.361.175 2.47-2.214 2.84c2.307-.685 2.279-1.803 2.122-2.957m58.981-17.409l.111-.108c.461 1.677-.84 3.669 1.328 5.472l2.307-1.704 4.271-.721-1.337-2.191 1.328-2.75c1.91-.595 3.746-1.632 4.382-4.003-2.518-.126-2.518-.126-7.436 3.913l-5.821-2.164-4.761 2.335 1.845 2.894c2.851-3.389 2.851-3.389 5.748-2.317l-1.937 1.344m-58.797 96.287l3.635-3.787-1.162-4.85-4.318-.253-3.875-4.435-3.035-.586v4.751l-3.238 2.813 2.426.901 2.768 8.953 3.543-.262v6.005c2.611-.081 4.52-.83 4.613-2.867l-1.357-6.383zm45.936-174.002h4.853l-.766-3.76c2.768-1.496 3.93 1.389 5.941 1.407.812-.712 1.624-1.425 2.445-2.128.821-.703 1.513-1.28 2.51-2.127-2.833-1.659-5.065.459-7.483 0l-.977-2.308-2.076.108-3.515-2.705-.923 6.5 1.67 2.2-1.651 2.822m12.436 20.087l1.052-3.606-3.432-6.744c.074-1.506.147-2.858.221-4.283l-6.744-1.713-.304.559 4.456 2.705c-.978 1.902-2.694 2.209-4.327 2.795-1.458.523-2.427 1.542-1.172 3.489l3.967-.27-1.061 1.09 7.381 5.978m-70.2-5.346l-5.065.829c1.034 3.967 4.087 4.805 7.012 6.158l2.27-3.607-1.384.983-2.833-4.336m56.278 145.864l8.174-2.236-2.482-4.779-4.557.902-1.135 6.077m-45.926-132.467c2.685-1.298 2.251-3.931 3.69-6.311l-4.281-.262c-1.679 2.435-1.679 4.4.572 6.6m76.676 77.679c2.252-2.543 2.768-4.914 2.261-7.519-1.513-1.154-2.768-1.145-4.097.378l1.846 7.141m-58.252-19.564l-8.47-2.561-3.69 1.289c4.078.271 7.593 4.012 12.16 1.272m57.015 3.038c-1.78.342-3.607.658-5.406 1.091-.268.063-.397.685-.757 1.388l2.289-.829 10.868 2.191-1.919-2.921-3.174 1.135-1.891-2.055m-19.162-31.032l-.213-1.109-2.924-.847c-1.181 2.344-3.405 3.976-2.417 7.023 3.625-.28 2.85-4.355 5.535-5.103m-6.569-28.417c1.901 2.082 2.141 4.399 5.277 3.525v-3.228l-5.277-.243M288.742 719.09l1.845-5.31-2.112-1.695c.876 2.344-2.944 4.382.221 7.005m67.598-25.694l-1.255 2.118-4.696 2.804c4.318.703 4.318.703 6.006-4.913m33.748-76.823l-.609.514 1.347 6.798 1.975-3.516-2.768-3.769m2.316-65.444c-.775-1.803-1.264-3.498-3.691-3.859-1.088 2.443.812 3.435 1.772 5.049l1.845-1.199M290.966 679.529l-4.014 2.146c1.329 2.164 2.584 2.344 4.263 1.046l-.249-3.192m71.223-5.751l3.257-5.347-5.028 2.182 1.78 3.165m16.247-79.176l-.923.577a19.065 19.065 0 001.015 3.174c.166.324 1.08.279 1.845.45l1.052-2.785-2.961-1.416m-82.812-40.011c5.379-1.136 5.379-1.145 3.912-4.156l-3.912 4.156m80.265 44.708c-2.629.956-2.592 2.29-2.075 3.949l2.075.83v-4.779zm-6.956 80.384l-3.69-.361c-.277 2.416.812 2.912 2.703 2.966l.996-2.605m-41.248-110.451l.977-.261-.341-3.679-2.565.523 1.929 3.399m17.732 62.551l5.166 1.262-2.269-3.21-2.888 1.948m-57.44 95.412c2.131-1.659 2.131-1.659.433-3.48l-.433 3.48zm63.658-132.629l-.987.28c-.055.829-.111 1.658-.194 3.038l2.685-1.65-1.485-1.677m-47.541 27.399c-3.174.613-3.174.613-4.226 2.767l4.226-2.767zm67.634-41.148l-2.094 2.416 2.556 1.209-.462-3.607m-10.591 37.956c1.587 1.262 1.587 1.262 2.768-.514l-2.768.514zm-8.801-78.436l-.203 1.262h2.131l.092-.802-2.02-.46zm27.539 132.043l-.508 1.262 2.15.523.304-.901-1.955-.902m-26.894-109.504c-1.993-.27-1.993-.27-2.611 1.028l2.611-1.028zm-31.672 92.167l.71-.451-1.365-1.803-.572.388 1.227 1.893m7.012-46.313l.821-.163-.452-2.127-.812.162.461 2.128m17.215-57.087l-.867.054.129 1.704.84-.054-.102-1.704zm39.192-10.819l-.628-.108-.535 2.641.72.127.434-2.651M304.398 702.51l1.006-.541-.987-1.631-.701.315.682 1.866m43.362-23.332l-.683-.415-1.116 1.803.655.406 1.144-1.803m5.36 32.934l.517-.18-.369-.965-.489.18.341.974m-45.963-62.983l-.185-.712c-.415.126-.83.243-1.245.387.036.228.086.454.147.676l1.274-.36m82.829 7.726l-.092-.983-1.448.37.11.613h1.43zm-88.217 2.561h-.6v1.613h.6v-1.613zm26.358-122.406l-.268.406c.194.126.379.334.591.379.498.09 1.015.099 1.531.144l-1.854-.929zm22.769 70.467l.425.333.673-.901-.378-.289-.72.857zm-4.031-6.897l.36-.226-.757-1.253-.452.279.849 1.191m-42.744-47.585l-.442-.072-.176 1.136.369.063.249-1.118m97.933-12.856l-.286-.307-.923.541.554.541.636-.784m-58.141 196.459v-.369l-.581.207c.074.099.138.262.24.289.101.027.24-.072.369-.117m-13.156-87.001l.184.441 1.605-1.1-1.789.659m-31.138 24.982l.083-.379a5.332 5.332 0 00-.692-.081 1.659 1.659 0 00-.083.361l.692.099zm11.302 57.7l-.203.586c.129-.045.314-.063.36-.144.046-.081-.074-.235-.157-.442m67.533-188.093a5.525 5.525 0 00-.59.478s.147.225.221.342c.207-.144.404-.3.591-.469 0 0-.139-.225-.222-.342M359.91 614.59l-.11.424c.304.063.608.135.922.18a1.86 1.86 0 00.12-.37l-.922-.234m10.6 120.566l.231.316.147-.307-.378-.009zm1.393-169.278l-.314-.171c0 .099-.147.234-.11.298.037.063.193.117.304.18l.129-.307m-51.129 3.544l.203-.388-.591.216.388.162m31.552 1.29c-.055-.108-.092-.28-.175-.307-.083-.027-.24.063-.36.099l.286.487.249-.27m-58.612 84.197l.166-.316c-.101-.045-.24-.153-.313-.126-.074.027-.12.189-.176.298l.314.144m33.942-81.556l-.397-.189.222.577.175-.379m12.261-33.358l.129-.622-.387.118.258.504zM317.61 709.687l.332.622c.046-.135.166-.298.129-.397-.037-.099-.249-.126-.461-.225zm24.162-28.994l-.572-.127.111.352.461-.216m-8.22-70.205l-.378.162.498.433c.074-.108.221-.244.194-.325-.028-.081-.203-.18-.314-.27zm-32.023 84.837l.055-.271-.258.109.203.162zm91.687-69.97v-.343l-.526.162c.074.09.129.226.23.262.102.036.222-.054.333-.081m9.76-78.5l-.258.28.544.243c0-.117.102-.27.056-.36-.046-.09-.222-.109-.342-.163zm-62.735 1.542l.23.271.102-.262-.332-.009zm3.192 79.248v.279l.314-.117-.314-.162zm-9.918 61.549l-.203.289.314.054-.111-.343zm-2.334-13.352v-.225l-.286.09.286.135zm67.293-122.522l-.277.126.277.135v-.261zm-29.522 22.151l.147.307.157-.298-.304-.009zm-13.074-1.497v.289l.314-.126-.314-.163zm-71.122-169.647c48.039.803 95.802 3.273 143.416 5.094a8.686 8.686 0 011.799 3.755 8.561 8.561 0 01-.166 4.143c-1.956 8.7-4.087 17.373-5.784 26.145a134.16 134.16 0 00-2.768 26.146 212.159 212.159 0 002.076 31.852 34.256 34.256 0 01-.978 14.425 10.971 10.971 0 01-3.113 5.487 11.383 11.383 0 01-5.67 2.943 26.972 26.972 0 01-5.222.613c-15.841.405-31.682.667-47.522 1.172-6.394.207-12.76 1-19.153 1.343-5.923.316-11.856.316-17.779.541-9.428.352-18.848.802-28.277 1.163-3.626.135-7.279.514-10.794.09-.858-4.075-.987-119.484-.065-124.912zm192.701 273.706l2.297 4.048-1.513 4.778c-.646.595-1.55 1.344-2.343 2.191-.794.848-1.2 1.551-2.002 2.597l-3.349-3.661-2.584.217c.683-1.001 1.19-2.642 2.095-2.894 2.518-.704 2.361-2.822 4.059-5.049l-4.705 1.136-1.439 6.78 1.051 7.419-4.723 2.705c-3.442-5.626.083-10.557.922-16.093l-4.945 1.326c-2.232 3.074.332 6.797-2.685 9.43h-5.849l-.166.613 4.724 1.524 2.519 7.564-4.3.784v-3.219c-7.823 1.443-11.191-3.732-14.318-9.439l-8.35-1.316-2.122-2.831c-.083-2.47 1.412-2.524 3.396-2.588l-2.824-3.416c-.525.396-1.024.586-1.19.901-.858 1.803-1.623 3.66-2.463 5.59h-7.814l.166.045-5.314-.821.129.1c-1.015-5.41-.305-10.891.277-16.31.442-4.165 1.051-8.303.572-12.522a25.077 25.077 0 01.11-4.689c1.107-14.677 2.012-29.363 3.423-44.014 1.43-14.795 3.183-29.571 5.148-44.303a165.724 165.724 0 014.041-19.266c.923-3.543 3.257-6.131 6.864-7.961 8.672-4.4 17.741-4.778 27.143-3.841 5.249.523 10.526.812 15.803 1.055 9.605.451 19.209.785 28.822 1.181.627 0 1.255.154 2.186.262.259 1.012.432 2.043.517 3.083v80.275c0 2.011-.406 4.012-.636 6.203l-2.768.748-1.569-5.761c-1.983-1.74-4.207-.901-6.725-.748l3.303 6.311.073.144-.129-.261 5.167.198.839 3.083h2.445c-.627 5.518 1.596 11.189-2.399 17.13l-1.217-4.508-2.067.749-3.598-2.831-.784 3.272-3.691.902c0 .307 0 .613-.064.902l2.768 1.262-.13-.108 2.408 2.551-.821 2.362 3.857.83-.554-4.139c2.897-1.677 3.69 1.407 6.006 1.479 0 2.281.341 4.174-.101 5.878-.397 1.524-1.661 2.822-2.86 4.724l-5.693 2.939.923 2.335 3.838-.721 4.022 5.319V708.1l-4.4.343c-1.375 1.902-3.396 3.606-2.224 6.446 2.768.108 2.574-2.056 3.358-3.669l2.833-.902c1.254 3.66.341 7.212.701 10.882l-5.001 1.803c1.089 2.551 2.962-.604 4.134.902 1.134 1.956-1.071 2.506-2.15 3.975l2.712 3.886v12.036h-3.146l-.618-3.047c-2.482-.478-1.642 2.055-3.635 3.011l-21.302-.992c-2.768-2.632-.858-4.868.443-7.158a9.282 9.282 0 00-1.975-.956 7.785 7.785 0 00-1.909.144l.867 6.456c-4.327 1.496-14.706 1.388-21.626-.1l-2.767-3.804c-2.768 1.487-5.038 3.246-7.547 3.823-2.722.622-5.702.144-8.46.144l-3.691-4.355-3.856 1.073-6.034-4.616c.775-2.705 2.962-.451 4.235-1.145l-1.264-3.687c2.232-3.029 5.464-5.213 9.152-6.185l4.023 5.31a18.548 18.548 0 002.085-2.371c1.762-3.029 3.33-6.167 5.212-9.115.508-.793 1.845-1.046 2.869-1.55l-.129.117 2.307-1.461-2.768-5.698 3.524-2.542 9.152 4.373c2.095-.677 1.569-3.246 2.648-4.779 2.611-.378 2.122 4.102 5.111 3.075l1.366-4.743c3.247-.901 4.677 1.1 6.458 2.29a19.12 19.12 0 00.563 3.534c.38.843.87 1.634 1.457 2.354l5.222 1.063-4.53 4.508 1.716 1.975.923 5.707c4.686 1.09 7.048.712 8.857-1.371l-4.346-.351-.415-2.552c2.316-2.443 4.751-.901 7.039-.901l1.144 1.09 1.67 3.309 2.399-.901v.126l-4.152-2.353-1.125-1.082.498-2.155-3.165-2.335v-3.66l-5.876-.64-1.486-1.804c2.491-.486 2.491-.486 2.408-2.461l-2.288 2.534-.922.441-5.683-3.849-.499-7.294 2.261-1.424-3.414-2.137c0-2.705 1.393-3.327 3.201-3.886l2.934 1.416 2.381-.974 6.328 4.76 1.846-1.091c-.24-4.174 1.891-6.942 5.295-9.259-3.625-.901-4.705-3.606-5.055-6.707-3.534 1.018-1.467 6.689-6.459 6.797l.831-5.012-4.17 1.541c-1.301-2.704 1.753-2.957 2.445-4.444l-1.846-4.003 5.111-2.876a5.454 5.454 0 00.425-2.299c-.258-1.109-.923-2.957-1.55-3.021-2.5-.234-3.146-2.389-4.696-3.407.729-5.022.092-6.311-4.345-8.457l-.831 4.363c-2.712 1.389-2.048-1.514-3.598-2.704l-3.552-.271.24-4.643 3.847-.631-1.983-5.364c-1.31-.658-2.602-1.74-4.253 0l3.136 3.372-.627 2.704c-1.845 1.353-.304 2.958-.351 4.445l3.063 2.84-3.302 3.606 1.513 2.362c3.856-.396 3.856-.396 6.568 2.011-1.706 2.542-4.105 5.121-2.315 8.204 1.965 1.911 4.853.162 6.338 2.443-1.172 1.93-3.072 1.425-4.724 1.614l.102-.072zm4.613 23.206l.175.063-.231.054v.244l.056-.361zm22.455-71.449l-.166.054.286.045-.092.217-.028-.316zm-43.666 50.776l.619-1.19-1.347-6.806h-.6l-1.199 6.779h3.136l-.599 1.362v.198l-.01-.343zm-33.406-40.786l-1.412.55-2.094-.902.563 2.056-1.467 1.027c.258 1.641.692 2.894 2.906 3.607l-1.587-4.761 1.578-1.109 1.439-.604-.056-.171.13.307zm40.317 25.198l-1.135-1.1c.295-1.992.646-3.984.922-5.986.277-2.001.102-3.714-2.306-4.886l.83 3.471-4.225 5.409v.243-.369l3.072.288 1.79 1.803 1.153 1.109.148.172-.259-.072m16.109-12.325h.249-.378l-.167-.189.296.225m18.747 81.321l-.111.334.212-.208-.821-.126h.72zm-32.291-58.106l-.129.505v-.505l.332.136-.203-.136zm28.6 11.099l-.406 1.145.489.081-.12-1.19h2.233l.175 4.237 2.27-2.705-2.491-1.577h-2.159m-33.545-8.673l.756-.072-.839.072.24-1.623h-.554l.406 1.596m18.009-34.521l-.175.288.129-.171-.166-.225.221.108m-50.548-14.543l2.195.641.093-.785-2.408.226-.332-2.164-.72.261 1.172 1.803m2.279 32.727l-.157-.072.258-.054 1.615 2.236.682-.739-2.398-1.362m40.713-29.445l1.735-1.965-1.846-.631c.056 1.063.102 1.875.148 2.704l-2.611-2.38c.129 2.651 1.633 2.065 2.583 2.281m-42.438 6.392l.083 1.407h.249l-.36-1.281-1.808-2.848c0-.638-.016-1.275-.047-1.912.102-2.704.102-2.704-1.845-3.299a2.591 2.591 0 00.241 1.993 2.693 2.693 0 001.604 1.252v2.02l-1.485.649c.572 1.938 1.707 2.407 3.321 2.055m-15.001 19.835l1.089-2.939-2.242.099 1.144 2.957.194.243-.185-.36zm76.99 41.968l.231-.118-.36.1-.775-2.462-.923.126-.341 2.705 2.205-.342m-27.742-31.871l-.093-.315v.198l3.193 4.697c1.07-1.803.71-3.119-.314-4.58h-2.786zm-11.736 63.939l.231-.117h-.36l-.47-3.606c-2.953 1.091-3.94 2.704-3.755 5.301l4.354-1.614m-19.808-58.025l-.055.343.12-.225-4.327-7.61 1.384-1.415.055-.108-.156.216-1.8-1.109c.785-2.236 2.833-3.985 1.108-6.239l-5.536-1.199-5.24 3.607h-.139.268l1.605 9.313 2.528 1.433.757 4.382 5.535-3.606c1.172 1.28 1.845 2.993 3.893 2.254m26.58-43.104l-2.131 5.635-5.111 2.975c.793 2.569 0 4.309-2.122 5.887l-6.726.793-1.181-5.148c-1.789 3.264-2.039 6.365-.295 9.746.923-.423 1.559-.721 2.205-1.064.646-.342 1.282-.757 1.845-1.081 3.239 2.308 5.803 4.76 6.938 8.7l-.858 4.219 6.366-3.471-1.282-4.237 1.263-3.399-5.858 1.803v-3.606h.268-.166l-.646-1.398 2.924-1.515.499-3.083 3.607-.974c.129-3.795.249-7.401.369-10.999 2.768 1.371 3.266 3.904 3.275 7.438 2.454-2.65 1.107-4.715 1.172-6.428-1.458-1.46-2.768-2.299-4.364-.901m-21.69 34.439l-4.797 1.344c.922 3.606.922 3.606 6.522 5.553l2.242-3.155-4.004-3.742m9.29 6.807c-1.337 4.418-1.337 4.418 1.763 6.78l2.767-6.78h-4.53zm-3.109 13.181l-5.406-5.283-2.546 3.606 2.897 3.219 5.018-1.488m14.107 49.307c-1.421.64-3.405-.082-4.613 2.037 1.55 0 2.86-.388 3.69.072 2.952 1.668 5.896 1.434 9.466.433l-8.506-2.542m-6.08-112.516l-3.644 5.707 6.292-1.668c.387-2.335-.545-3.507-2.648-4.039m51.111 58.602h-5.535l3.035 3.543c2.768.09 3.044-1.163 2.518-3.543m-24.107-48.919c2.178-3.029 2.178-3.029-.544-5.238-1.356 1.74-1.412 3.336.544 5.238zm4.982 102.914l6.966 1.803-3.183-3.255-3.773 1.488m-47.975-77.165c1.698-.469 2.768-.451 3.285-.965 1.347-1.307.747-2.849.369-4.787l-3.691 5.752m38.859-33.737c-2.334-2.19-3.478-1.929-4.852 0 .784.415 1.301.902 1.845.902a14.35 14.35 0 003.054-.902m-51.508 29.815l3.339-2.858-.359-.577-4.521 1.803 1.541 1.623m63.501-50.929c.535 3.327.535 3.327 3.22 4.138l-3.22-4.138zm-23.581 7.717c2.297 1.316 2.297 1.316 3.58-.541l-3.58.541zm33.794 6.311l.074-.965h-3.46v.812l3.377.153m-47.735-.324c.231 2.163.997 2.461 2.63.964l-2.63-.964zm-6.107 109.143c-1.781-.361-3.414-.433-4.419 2.245l4.419-2.245zm18.71-79.184l-.434-.767-3.386 1.416.434.901 3.386-1.55zm38.749-7.799l-.988-4.562c-1.706 1.803-1.282 2.831.988 4.562zm-87.646 32.339l-.664.685.304 1.29h3.192l-2.832-1.984m65.273-31.627c-1.135-1.605-1.135-1.605-2.26-.117l2.26.117zm22.345 17.13l.609-.902-2.713-1.217-.387.758 2.482 1.424m-3.995 70.259l-.194.739a6.736 6.736 0 001.633.541 7.56 7.56 0 001.993-.595l-3.432-.685zm-11.477-72.233h-1.061l.332 1.64.729-.108v-1.532zm6.772-14.678c1.319-1.722.756-2.371-1.135-3.318l1.135 3.318zm-21.995 2.164l.443-.613-2.242-1.488-.36.496 2.168 1.605m-2.417 69.547l.84-.055-.203-2.145-.775.054.148 2.146m15.61-118.259l-.443.992 1.845.794.369-.65-1.762-1.136m-63.068 62.208l.101.64 1.228-.18-.102-.64-1.227.18zm66.057 46.882l-.507.36 1.088 1.533.443-.307-1.024-1.586m-57.874-83.575l.858-.776-1.301-.901-.507.559.923 1.109m42.9-.848l-.388-.153-.581 1.271.471.189.498-1.298m-25.251 14.263l.544-.406-.664-.955c-.166.153-.498.369-.471.441.166.317.36.619.581.902m41.249 43.852l.268-.46-1.366-.847-.323.559 1.43.748m-14.493 37.226l-.314.441.923.64.332-.468-.923-.613m17.049-60.234l.342.505 1.31-.848-.332-.495-1.31.838m-50.927 78.211l.757-.054-.351-.568-.406.631m5.019 4.408l.443-.216-.923-1.686.517 1.902m44.182-73.684l.332.288.711-.766-.36-.307-.692.785m-31.967.901c.239.46.12.235 0 0 0 .244 0 .487 0 0zm-27.06-17.13l.517.541.249-.64-.757.099m66.426 31.735l.222-.604-1.688-.252 1.457.856m-55.816-52.687c.046-.126.157-.261.12-.361-.037-.099-.203-.135-.314-.207l-.184.586h.378m3.755 31.239l.673.054-.673-.054zm47.218 9.854c-.065-.126-.102-.324-.203-.369-.102-.045-.268.072-.406.117l.332.577.267-.325m9.512 52.805c.111-.054.286-.081.314-.162.028-.081-.065-.226-.111-.343l-.489.271.286.234zm-72.192-63.605l.507-.262c-.101 0-.23-.126-.295-.099-.064.027-.12.189-.212.352m-10.896-3.498l.203.288.166-.324-.369.036zm2.51-2.065l.35.198.056-.324-.406.126zm71.408 61.135c.046-.117.147-.252.129-.352-.018-.099-.194-.126-.295-.189l-.203.586h.378m-8.635-64.723v.406l.636-.271c-.083-.099-.157-.279-.258-.288-.102-.009-.268.099-.397.153m8.709 27.552v.342l.526-.171c-.074-.09-.129-.234-.221-.262-.092-.027-.222.055-.332.091m-2.768-33.872l.277-.198-.259-.118-.018.316zm-70.273 38.28l-.231.081.249.803.341-.126-.35-.767m51.665-42.806a1.435 1.435 0 000 .424h.341a1.584 1.584 0 000-.424h-.332m-23-7.212l.194-.379-.572.225.378.163m36.7 103.292v-.397l-.581.261c.083.1.157.262.249.28.092.018.24-.09.369-.153m-33.37-36.063l-.35.108c.055.118.074.289.166.334.092.045.24-.063.36-.099l-.176-.343zm42.439-73.865c0-.117.148-.261.111-.343-.037-.081-.222-.126-.341-.18 0 .117-.157.271-.111.343.046.072.221.117.341.171m-36.709 107.151l.249.162.055-.225-.304.063zm45.557-50.74l-.277-.18v.279l.277-.099zm-41.636-5.635l.23.171.056-.243-.286.072zM390.559 829h-90.635c-9.826-.541-15.62-6.383-15.739-16.021-.074-6.311 0-12.531 0-18.806v-42.076c7.316-1.867 14.337 0 21.219-.677 7.15-.658 14.402-.27 21.616-.333 7.049-.063 14.097-.171 21.146-.153 7.208 0 14.417.099 21.625.297 7.003.162 14.06-.252 20.602 1.334 2.712 3.075 2.767 6.546 2.998 9.701.434 7.014.36 14.074.258 21.115-.12 7.663-.424 15.327-.802 22.99-.314 6.401-.84 12.793-1.329 19.176a21.106 21.106 0 01-.978 3.417m118.294-77.273v59.458a29.973 29.973 0 01-.341 5.139c-1.264 7.131-6.274 11.72-13.59 12.496a50.516 50.516 0 01-5.277.198h-80.311c-1.845 0-3.755-.18-5.665-.279-1.698-5.076-1.245-9.918-1.264-14.759 0-10.819 0-21.584.332-32.366a87.34 87.34 0 011.716-16.337c2.297-10.268 6.827-15.137 20.011-15.939 9.724-.595 19.531 0 29.301.27 8.488.208 16.967.685 25.445.956 7.981.252 15.961.352 23.941.577 1.698.045 3.386.334 5.739.586m-60.199-411.789c3.829-1.091 33.684-1.227 38.638-.199a69.165 69.165 0 01-.627 11.919c-1.107 10.9-2.288 21.782-3.358 32.691a7045.458 7045.458 0 00-4.023 42.49c-.637 7.005-1.116 14.02-1.679 21.025-.923 11.224-1.919 22.449-2.657 33.682-.867 13.271-1.485 26.56-2.214 39.84-.065 1.235-.139 2.462-.24 4.184-1.449.459-2.906 1.343-4.309 1.271-3.164-.145-6.458-.28-9.428-1.299a156.799 156.799 0 01-14.467-6.193 9.051 9.051 0 01-3.655-2.994 8.753 8.753 0 01-1.603-4.39 41.26 41.26 0 01-.508-6.068c.166-6.725.48-13.451.729-20.177.646-17.355 1.439-34.701 1.264-52.092-.101-10.611.618-21.25 1.402-31.852.923-12.009 2.224-23.982 3.469-35.964.821-7.933 1.845-15.849 2.768-23.774.124-.709.29-1.41.498-2.1m-119.096 46.971l-3.137-1.686c-2.113 3.336.433 5.923.055 8.646l2.842 3.345 4.188.721-.719 3.011-31.184-1.127-2.767-1.586-1.606 1.956-2.334-.532v-3.246l-.618-.216-1.375 3.3h-8.303c-.922-14.038 0-28.129-.35-42.031 2.232-1.93 3.69-1.019 4.612.162 1.624-.496 2.953-1.226 4.309-1.262 6.246-.144 12.492-.099 18.738-.117 16.357-.081 32.687-.081 49.007-.154 4.456 0 8.912-.432 13.369-.459 3.828 0 7.657.36 11.486.378 11.514.063 23.064 0 34.56.072 2.237.081 4.463.352 6.652.812 8.921 1.614 12.408 9.349 9.89 17.598a510.232 510.232 0 01-4.143 12.938c-1.393 4.696-4.192 8.878-8.035 12.009a13.31 13.31 0 01-8.783 3.2c-4.475-.135-8.94-.478-13.406-.604-7.343-.21-14.69-.36-22.04-.451-9.918-.117-19.836-.099-29.753-.252-1.55 0-3.091-.64-5.093-1.091-3.146 1.298-5.849.379-8.303-2.705-1.394-1.749-3.765-2.749-5.702-4.093l-2.611-2.091.461-4.535.093.09zm-35.142-6.843v-.189l.139.081-.139.108zm27.263 1.578l-.628-.117h.738v.468l-.11-.387m-17.4 1.857c0 1.46.378 2.705 2.039 3.309l1.328-1.623-3.487-1.56-.572-5.283c-1.707-.298-3.543-.586-5.36-.956-.203 0-.323-.468-.48-.712l2.325-1.875-5.176-.568c1.845 3.841 1.947 7.807 5.185 10.404l4.198-1.136zm40.317 11.414l7.657-.803c-.609-1.352-.922-2.822-2.998-1.884l.129-.126h-2.491l1.67-5.058-4.807-3.796 1.2-3.732-3.11-5.824-5.175-3.534.646 4.201 3.69 1.74 1.098 13.289h.636l-1.19 4.075 1.956 1.443 1.089.009zm-34.385-8.637l4.041 10.26c4.438 1.514 4.438 1.514 6.366-1.118l-5.536-11.522-4.889 2.371m2.029-15.877l2.205 3.156 2.934-.217-2.639-3.687-2.481.793m-21.921-7.807l-1.19.496a24.32 24.32 0 001.485 2.407c.139.189.748 0 1.495 0l-1.79-2.903zm10.536 31.663l.775 3.281 1.07-.802-.535-4.391-1.31 1.93m32.595-32.952l.59-.632-1.568-.901-.323.478 1.301 1.073m34.652 33.033l-.129.243 1.116.676.194-.369-1.181-.541m-29.144-1.109c-.194.604-.102.306 0 0-.286.135-.563.261 0 0zm-50.632 1.659l.351.045-.083-.343-.268.298zm34.136-21.935v-.262l-.286.109.286.153zm182.294 36.45c.51-.911.895-1.884 1.144-2.894.553-5.13.922-10.277 1.457-15.416a15.4 15.4 0 01.923-3.868c1.07 10.719.71 134.432-.222 138.219-3.413.577-6.845.964-10.148-.974-1.301-2.705-.923-5.599-.747-8.358.461-8.114 1.107-16.228 1.725-24.342.738-9.677 1.504-19.35 2.297-29.021.388-4.679.923-9.349 1.319-14.019a3.442 3.442 0 00-.618-2.705c-1.494 13.226-3.118 26.443-4.437 39.669-1.32 13.226-2.722 26.397-1.273 39.921-7.224 3.768-14.254 2.046-20.897 1.028-2.085-1.803-1.845-3.715-1.725-5.572.719-10.936 1.448-21.872 2.251-32.808a2796.424 2796.424 0 012.399-30.428c.922-10.755 1.891-21.502 2.841-32.258.591-6.707 1.135-13.415 1.79-20.113 1.172-12 2.463-23.982 3.626-35.991.784-8.114 1.411-16.228 2.112-24.342.148-1.704.268-3.399.388-4.977a14.644 14.644 0 0111.902.737 14.26 14.26 0 014.641 3.872 13.866 13.866 0 012.573 5.408c.693 3.689.867 7.453.517 11.188-.923 13.902-1.993 27.795-3.045 41.688-.166 2.155-.471 4.301-.71 6.456v8.546h.424l-.461-8.601m-.379 15.616c-.516.549-.636.613-.645.694-.157.901-.296 1.803-.434 2.704-.138.902-.221 1.65-.323 2.471l.849.09.553-5.959m-1.439 11.422h-.175v4.382h.175v-4.382zm-64.931-97.206c.083 4.652-1.227 8.339-4.17 11.431a7.265 7.265 0 01-2.824 1.757 7.404 7.404 0 01-3.33.326c-17.437-1.316-34.883-.135-52.357-.28-16.163-.153-32.336.244-48.509.433-12.815.153-25.62.388-38.435.55a29.537 29.537 0 01-3.635-.388 13.327 13.327 0 013.051-8.789 13.898 13.898 0 018.131-4.797 32.671 32.671 0 016.199-.478c43.46-.036 86.908-.054 130.343-.054 1.716 0 3.441.153 5.536.252"/><path d="M430.534 690.898l-1.771 1.226 1.485 2.849 9.669 1.695 4.862 9.854-6.2 8.538-2.389-.18.922 2.957-2.685 1.803-2.915-2.506c-.378.469-.793.775-.923 1.163-1.31 4.264-1.3 4.264-4.022 7.483h-3.275l-1.725-3.787c-.443.352-.858.577-.831.685.462 1.74.969 3.462 1.467 5.184-3.33 1.172-3.044-1.893-4.945-3.128l-.249 4.282-1.439.181.203.577 1.125-.902c2.445.298 1.273 3.426 3.1 3.805l-.922 5.301 10.194 1.965-.055.974c-2.39 0-4.779.081-7.159 0-1.43 0-2.86-.261-4.3-.352-4.53-.27-7.316-2.839-9.041-6.662-1.402-3.111-1.365-6.419-.923-9.71 1.283-8.971 2.63-17.932 3.986-26.894.215-.999.486-1.986.812-2.957l4.843-2.777-.848-1.929 2.472-2.524-.166-.054 7.98 3.344 1.108-1.992c2.103 0 2.352 1.19 2.454 2.488h.101zm-7.316 3.886l-.129.559v-.577l.314.162-.185-.144zm5.452 13.965l-.258.226.36-.145.701 1.804.738-.433-1.531-1.407m-15.02 11.342c1.099.547 2.244 1 3.423 1.352.627.145 1.402-.333 2.343-.586l-1.9-2.227 1.983-2.578c-.701-1.803-.738-3.985-3.69-4.886l.922 4.949-2.961 4.111.092.172-.212-.307zm18.71-14.605c1.596-1.641 1.153-2.29-1.015-2.543l1.015 2.543zm-15.167 2.434l-.674-.712-1.845 1.559.397.505 2.122-1.343m-1.061 26.091l-.434-.595-1.365.902.461.631 1.338-.947m-.212-29.562l-.369-.207c-.056.126-.194.27-.157.36.037.09.23.144.35.207l.176-.36zm-.213-3.273l-.387.153.507.226-.12-.379M286.353 588.165l1.07 3.21c3.247.451 5.831.685 8.358 1.199 1.91.388 2.694 2.038 3.396 3.606.922 2.2 1.937 4.4 3.081 6.987-2.233 1.903-5.056 4.112-5.711 7.997l-3.321-.423 2.565 5.409-5.084-.902-2.094-2.308-2.989 7.213c-1.781-3.3-1.947-8.349-.784-13.524l-.148.091 1.79-.379-2.297-3.327c.193-5.959-.277-12.135 1.199-18.437l2.251.658-1.365 2.975.083-.045zm3.367 14.479c1.209-2.704 1.209-2.704-.923-2.876l.923 2.876zm97.526 130.087a4.192 4.192 0 012.715.472 4.037 4.037 0 011.797 2.044c-.203 3.444-3.294 3.93-5.859 5.409l-4.105-4.454 5.425-3.471m3.616-9.439c-.6-.075-1.192-.199-1.771-.37-.268-.108-.434-.433-1.015-1.055l.554-3.931.747-.09 1.476 5.41M286.842 555.204l-.351 4.228c-.646-.072-1.052 0-1.218-.162-1.458-1.389-1.218-2.506 1.569-4.075m91.262 155.547l3.136-.505-.488 3.254-2.833-1.667.185-1.082m-91.668-148.154c1.605 2.01.682 2.93-.416 4.084-1.439-1.443-.655-2.47.416-4.084zm175.918 139.093l-3.008 1.118c.13-2.606 1.375-2.362 3.008-1.118zm-75.781 10.206l-2.657-1.749c2.057-.965 2.768-.316 2.657 1.749zM337.51 568.601h-2.214l-.065-.766 2.15-.379.138 1.145m46.526 114.228c0-.595.055-1.19.111-2.245l2.657.821-.065.901-2.841.379.138.144zm-95.524-6.644l-1.504-.496.129-.793 1.79.135-.415 1.154zm159.441 35.161l-2.085.352-.646-1.668.664-.46 2.03 1.866.037-.09zm32.253-38.984l-2.989.505c1.845-1.497 1.845-1.497 2.869-.37l.12-.135zm-38.047 42.085a6.271 6.271 0 011.328 0c.12 0 .148.487.213.749l-1.403.315-.138-1.109m-141.46-102.76l-1.541-.496.139-.586h1.577l-.166 1.073m71.971 99.605c-.157-1.064-1.006-2.534 1.91-2.128l-2.03 2.02.12.108zm17.778 4.138l1.117.361-.176.541-1.134-.316.203-.586m-41.083 16.607h1.531v.658h-1.54v-.658m42.263-195.54l-.415-.532c.111-.072.295-.217.314-.199.153.165.295.34.424.523l-.332.208m-88.338 69.42l.868 1.109-.572.441-.923-1.09.591-.451m144.661 105.582l1.559 3.345.129-.117c-2.574-.135-1.845-1.803-1.651-3.309l-.037.081zm-95.506 31.275l1.411-.982.314.982h-1.725zm15.804-24.594l2.352-.253c0 .253 0 .505-.055.758l-2.38-.586.083.081z"/><path d="M439.234 719.081l-.821 1.19-.461-.577 1.347-.64-.065.027zm-80.744 22.72c.11-.055.23-.154.341-.145.111.009.147.163.221.253l-.544.252v-.351m-3.829-6.464c-.129.045-.286.162-.369.117-.083-.045-.12-.235-.166-.352.129-.045.286-.162.378-.117.093.045.111.234.157.361m46.185-152.518l-.397-2.046h.397v2.073-.027zm-31.137 122.315l.848 1.488-.775.198v-1.803l-.073.117zm10.822 26.93l-.093-.324c.102 0 .259-.1.286-.064a.802.802 0 01.102.307l-.295.072m49.893-41.075c.092.315.184.64.055.189v-.289l-.055.1zm30.03 15.326l-.101-.324.295.063-.194.261zM317.61 602.203l.286.171-.314.117.028-.288zm14.014-208.794l.277 1.217-.305-1.181.028-.036zm24.79 344.001l.184-.306.129.333-.313-.027zm-70.154-149.2l.184-.045h-.092l-.092.045zm43.223-201.427h-.175l.268.063-.093-.063zm122.981 353.891l-.369.117.055-.325.314.208z"/><path d="M439.299 719.063l.839.064v.099l-.922-.135.083-.028zm40.806-46.566l.119-.135-.119.135zm17.584-26.235l.009-.288-.147.18.138.108zm-83.937 40.12l.129.099-.129-.099zm-38.582 9.637l.101-.108-.101.108zm-90.303-89.354l-.046-.108-.092.189.138-.081zm43.961-50.712l.296-.109-.157.082-.139.027zm23.093 105.329l-1.495-4.084c2.648 1.253 5.379.721 6.984 3.336-1.845 1.343-3.533.477-5.535.739m-.13 3.651l-.876-2.641c2.223.712 2.223.712.876 2.641zm3.22-7.672l-.369-.153.443-.433c.083.108.249.225.24.325-.009.099-.203.171-.314.261zm-47.541 64.552c-1.992-1.424-1.024-2.542-.396-3.768 1.845 1.424 1.845 1.424.396 3.768zm39.533-109.441l-.452.523a4.578 4.578 0 01-.47-.505s.175-.288.23-.279c.238.067.47.154.692.261m27.53 13.965l-2.094 1.028.166-1.974-.129.117 2.048.829"/><path d="M372.568 625.381l-.249-.116.12.233.129-.117zm-64.913 13.497c.48-2.362 1.292-2.533 3.386-1.415l-3.386 1.415zm23.332 3.12c.12.054.296.081.36.18.065.099 0 .243 0 .379l-.581-.262.221-.297zm3.165 1.875l-.296-.162.314-.127-.018.289zm.692 90.58h1.116l-.544 1.289-.563-1.289m154.487-17.499l-.6-.46a4.67 4.67 0 01.544-.469s.305.162.296.225a4.27 4.27 0 01-.24.713m-61.14-53.121l-2.261-2.605 2.768-1.803c1.541 1.803.738 2.858-.544 4.435m1.938 3.589l-1.108 3.525c-1.586-2.01-1.07-2.912-.073-3.814l1.19.28m-80.874-275.257l.129-.126-.129.126zm-33.287 1.479l.258-.965.692.307-.572.829-.378-.162"/></g><g clip-path="url(#clip2_213_2)" fill="#D9420C"><path d="M221.842 752.945l1.063-1.238c-1.96-1.838-1.96-1.838-5.067-1.775.102 1.436.213 2.863.352 4.732-9.71.631-19.335.166-28.97 0-2.266-3.273-3.061-7.208-7.638-8.588l-.241.15.352-.126 2.071 3.943c-.312.387-.655.756-1.026 1.104a8.086 8.086 0 01-1.202.694l.175 2.145c-2.894.788-5.548.418-8.729-1.136l4.069-1.624-6.75-1.302c-.62-3.075-1.729-6.214-1.849-9.369-.158-6.679.194-13.406.406-20.062.093-3.005.352-6.002.546-9.006.092-1.404.203-2.824 2.46-2.91l-.148-.095c1.082.486 2.269.779 3.489.86 1.219.081 2.445-.05 3.603-.387l-8.322-5.922c.656-6.924.666-14.353 2.247-21.522 1.581-7.169.508-14.377 2.774-21.656 2.885 1.98 1.849 4.093 1.026 6.12l2.071 2.279 8.119-1.577c-.231-2.634-3.079-.639-4.623-1.774l.804-3.944-4.216-3.832 1.433-3.226c-4.457-4.455-4.115-9.921-3.884-15.425.204-4.787 0-9.59.083-14.385.083-.877.228-1.748.435-2.61a46.73 46.73 0 014.346-.41h79.05c4.577 0 8.553 1.135 11.716 3.998 2.413 2.061 3.846 4.812 4.022 7.721.083 1.64.111 3.288.111 4.937v116.298c-4.318.221-8.137.552-11.965.584-12.372.118-24.754.134-37.126.181-2.071 0-4.216.237-5.992-1.025l-.138.055 1.109-.946-.046.071zm-44.162-26.813l-.13.291.213-.189h-.305l.222-.102zm3.856-54.061l-.241.087.361-.055-.056.134-.064-.166zm21.591 42.357l.249-.15-.36.095v-.055l.148.11m-9.247 3.849c.388-.339.925-.615 1.119-1.018.471-1.222.767-2.484 1.137-3.738l-.074-.118v.245c-2.82.914-1.988 2.957-2.025 4.731l-3.245.663c2.33.899 2.774.181 3.125-.789m-4.799-17.35l2.21.576c1.063-1.49 2.57-2.634 1.849-4.487l-11.836 2.358 4.698 1.632c.989 1.041 1.979.702 2.968 0m-6.926-5.654l.157.173-.286-.071-3.468-3.754 1.276-2.807-4.327-1.483c-1.36 2.603-.62 4.566.98 6.735l5.668 1.207m9.774 27.862l-.13.11.925-1.853-2.894-.292.074-.299-.12.197-.694 1.427-3.976-1.664-2.201-3.075c-2.136.417-2.136.418-3.476 2.011l6.602 10.756h2.996l-4.208-4.731.259-2.366 6.871-.213m30.514 3.344c1.729-2.5.342-4.085-.379-5.631-.777-1.672-.065-3.746-1.757-5.521l-2.978 4.362 5.114 6.79zm-7.268-44.163c-3.181 1.577-3.181 1.577-.869 3.793l.869-3.793zm-12.946 1.577l-.749.859 1.859.852.435-.631-1.582-1.104m-14.101 50.567l.102-.741h-1.258l-.074.441 1.239.3m9.857-50.291h.269l.083-1.009h-.278c0 .336-.024.673-.074 1.009m-3.541 6.483a4.211 4.211 0 00-.62-.339s-.295.181-.277.244c.077.193.18.378.305.552l.592-.457zm-19.501 50.858l-.231.529 1.165.205.111-.395-1.045-.339zm12.557-56.781l-.287-.489c-.046.103-.166.229-.129.3.037.071.222.11.416.189m-7.638-5.047v.315l.546-.142c-.084-.086-.139-.213-.241-.244-.102-.032-.231.047-.342.071m8.673 8.004c0-.189.056-.378.074-.567 0 .189-.024.378-.074.567zm-17.3 50.331c0-.111-.056-.261-.148-.308-.093-.047-.241.047-.37.079.046.11.065.252.157.307.093.056.231-.047.352-.078m9.403-61.3l.315-.166-.416-.323c-.056.102-.148.205-.139.291.009.087.157.135.25.198m21.692-9.401l.296-.181-.296-.118v.299zm-17.467 37.783l.343-.213-.324-.118-.019.331zm34.722 7.177v-.371h-.352c-.02.12-.02.243 0 .363h.315M51.333 756.841v-85.369a74.564 74.564 0 017.194-.946c12.344-.402 24.698-.679 37.051-1.018 10.421-.284 20.842-.536 31.254-.875a6357.87 6357.87 0 0034.629-1.222c.819.049 1.632.152 2.432.307.347 1.391.548 2.806.601 4.227l-2.774 43.461c-.268 4.377-.444 8.762-.462 13.139 0 2.729.37 5.465.499 8.194a24.467 24.467 0 010 5.315c-1.461 8.47-8.322 12.247-17.902 12.618-13.121.497-26.269.528-39.4.828-11.873.274-23.742.602-35.609.986-4.318.134-8.618.505-12.945.678a42.727 42.727 0 01-4.568-.323m224.427 5.323c.074 1.191.221 2.523.221 3.856v47.673c0 1.096 0 2.192-.092 3.288-.205 2.965-1.639 5.772-4.046 7.918-2.407 2.147-5.63 3.494-9.094 3.801a48.36 48.36 0 01-5.289.237H149.015a22.298 22.298 0 01-.666-3.155c-.416-8.746-.703-17.499-1.202-26.237-.434-7.516-1.137-14.984-1.655-22.523a31.23 31.23 0 010-6.16 35.79 35.79 0 011.581-6.332c.351-1.07 1.052-2.033 2.022-2.774.969-.742 2.167-1.233 3.452-1.414 2.469-.457 5.16-.915 7.592-.568 21.517 3.1 43.136 2.839 64.838 2.24 16.524-.465 33.075-.213 49.608-.26.287 0 .564.189 1.184.41m-110.008-97.987c-2.247.3-3.958.671-5.696.742-7.527.323-15.054.717-22.581.788-13.176.134-26.343.387-39.464 1.577-3.024.284-6.103.095-9.155.182-9.94.292-19.87.623-29.811.907-2.395.071-4.79 0-7.527 0-.166-1.325-.416-2.366-.416-3.407-.028-9.968.222-19.984-.11-29.984-.214-6.742 5.547-14.1 16.273-13.982 16.09.181 32.16.039 48.24.039h53.751c1.443 5.071-.129 9.779-.36 14.487-.231 4.709-.527 9.306-1.045 13.935-.527 4.732-1.35 9.464-2.108 14.716m-31.966 98.31c2.182 2.366 2.45 5.292 2.774 8.084.675 5.149 1.266 10.354-1.064 15.378 1.66 3.73 2.101 7.775 1.276 11.703l-2.838.434 3.356 1.687-.656 3.888v8.675l-6.473 1.499c-1.692 1.104-3.93 2.996-7.397 2.413-.37-.063-.86.244-1.249.457-.423.266-.824.556-1.202.868l-4.041-.994c-3.375-.828-3.587-1.088-3.883-4.613l1.553-7.626-3.634-.142 2.09 7.783-2.145-.788-3.902 2.232-.592 2.153 2.404 2.649c3.477 1.317 5.548-.993 8.174-1.727l-1.627 3.786 1.784.788 1.776 7.043c-3.311.985-26.63 1.269-32.567.142-.425-5.316-1.563-10.757 3.486-15.197-.388-2.8.065-5.655-3.089-7.374 1.027-1.94 2.127-3.383 4.54-3.604l.102.229v-.15l-1.276-2.934-3.763 1.72c-2.192-2.745.102-5.466-.518-8.108-.573-2.436-1.285-5.165.85-7.46-2.08-3.154-2.015-3.896.74-6.979l9.118 3.722c2.247-.473 1.59-2.776 2.894-4.44l4.189 3.344 2.432-5.095 5.908 1.483-.693-5.237 2.395-.599-2.932-3.068c-.24-1.711 1.008-2.413 3.006-2.902l2.505 1.917 2.673-1.491 6.287 4.022 3.033-1.333-.185-.181.084.292c-.495-.346-.815-.841-.894-1.383a1.901 1.901 0 01.468-1.527l2.534-3.675 3.967-1.325.333 1.672-.981.907.555.26.315-1.278zm-1.794 38.895l-.111.055.111-.055zm-8.701-24.487v-.228l.12.134.268.41-.407-.316m-25.576 46.474h-.157.25l.47 1.846.74-.292-1.313-1.499m32.632-49.454l-.055.299.138-.205-2.727-2.145-.287 3.383 2.931-1.34m-12.113 7.444l-1.443.789-3.328-2.508c-2.025 1.538-1.415 2.768 0 3.943 2.681.332 2.82.371 4.891 1.578l-4.216 3.249 1.849 1.821.925 4.732c3.319 1.506 6.121 1.041 8.84-.954l-4.134-.347-.684-2.224c4.106-1.577 5.853-1.412 8.165 1.167 1.017 1.136 1.951 2.129 3.634 2.445l.249-.15-.36.111v-1.846l-3.921-2.318-.296-1.917-3.023-2.09v-3.217l-5.743-.552-1.516-1.751 2.654-.134-.398-1.877-2.191 2.05m-27.898 24.661c2.414.426 4.004.433 5.253.993 2.635 1.199 5.039.679 7.915-.197l-8.22-2.113-4.948 1.277m31.356-1.151l6.473 1.404-2.728-2.863-3.699 1.459m-16.829-20.725l.721.094.121-1.514-.731-.055-.194 1.506m5.89 2.95l.315-.355-.87-.56-.314.363.878.56m9.885 14.195l-.222.331c.13.048.296.166.389.134.092-.031.148-.205.222-.315l-.389-.15m8.137-18.06l-.37.048.148.481c.102-.063.268-.118.305-.205.037-.087-.046-.213-.083-.324m-20.87 37.468l.232.142v-.221l-.232.079zm-30.634-24.305l-1.322-1.578 5.964-7.689c.573 1.207 1.258 1.988 1.276 2.768.102 4.906.046 9.819.046 14.898H80.95l.111-.087 1.368 3.154-1.192 5.245.86.599v14.187c-7.12 1.215-13.76 1.578-20.343.15-5.39-1.135-8.294-4.408-9.83-9.14l1.37-2.216c0 .252-.075.505 0 .252l-.047-.173 2.2-2.855c-5.723-2.91-4.114-7.098-3.347-11.829 2.1 1.75 1.11 3.446 1.406 4.873 6.325.915 12.742 1.578 17.837 5.347.483-.149.95-.334 1.396-.552.222-.134.314-.433.444-.623a21.92 21.92 0 01-3.264-2.09 20.016 20.016 0 01-2.303-2.996l-4.207.709-6.704-4.14 3.93-1.27.166.15-.286-.047c0-1.412.324-2.942-1.48-3.856h-.11c2.098-.844 4.207-1.672 6.296-2.54 1.378-.576 2.719-1.199 4.115-1.822l3.81 4.22 4.18-1.223-1.184 2.776 5.548-2.665-4.522.063zm-21.397 14.826l-.101.095-.352-1.183-.582.299 1.035.789zm-.222 8.257h-.758a8.957 8.957 0 00-.046 1.199c.267.031.535.047.804.047v-1.246zm14.795-5.221v-.244l-.305.102.305.142zm6.26 7.098l.194-.268h-.323l.13.268z"/><path d="M59.008 797.652a41.24 41.24 0 00-2.876-3.943 12.035 12.035 0 00-2.626-1.672l.11.079-1.784-2.042 1.85-2.287c-3.514-5.907-2.146-12.382-2.368-18.707-.055-1.482 0-2.965 0-4.589 3.459-1.735 6.473-.15 9.469.788l1.526-1.467c1.997.071 2.163 1.128 2.182 2.279l.139-.102c-.971.339-2.025.647-1.036 1.806l-.157-.087.776 1.806 9.904 1.435 4.799 8.565-6.297 7.697-1.97-2.516-.25.15.361-.095v5.016l-2.561 1.246-2.7-2.618c-1.554 3.738-2.478 7.405-6.602 9.258h.11zm-1.415-28.445l-.167.457.047-.513.286.111-.166-.055zm3.874 12.83l.074-.299-.148.205 1.979 1.08.333-.623-2.238-.363zm3.967-5.283l1.378 2.247c1.563-1.577.925-2.216-1.378-2.247m14.231-13.013c1.313 1.273 2.231 2.805 2.67 4.459a8.704 8.704 0 01-.155 5.005c-4.55-1.231-5.66-4.622-7.915-7.587l-4.624-.308-.268-2.255c1.85 0 3.394-.071 4.9 0 1.508.071 3.126.363 5.373.631m56.886 58.745l-3.292 1.782c-2.561-2.248-7.101-2.271-8.479-5.52 1.202-2.555 2.977-1.388 4.558-1.112l2.127-2.264 3.412.789c-.24 1.199-.776 2.279-.536 3.21.24.93 1.248 1.798 2.228 3.099m-39.677-51.3l1.035-8.162 4.55-.387.629 7.421c-1.914 1.073-3.033 2.989-6.214 1.144m-8.137 5.362v-2.444h-3.523c-.758-2.642 1.784-3.352 3.051-4.787l2.08.378 2.266 4.898 3.754-.15c0 .56.046.978-.083 1.041-2.959 1.38-3.218 1.411-7.536 1.057m18.66-10.379l-1.849-2.981c1.784-1.837 3.772-.993 6.139-1.191l-2.977 4.314-1.313-.142z"/><path d="M53.515 792.045c1.017 2.035 3.014 3.801 2.469 6.309-2.58-.189-2.58-.189-3.94-4.006l1.573-2.216-.102-.087zm39.845-27.87c-.408 1.443-.343 2.46-.925 2.989-1.23 1.143-2.775.867-4.337-.063.545-1.893 2.219-2.366 5.243-2.926m78.541-55.598l-1.785-2.847 4.208 1.688-2.562 1.064.139.095zm-106.17 57.601l.582-2.839c1.165 1.814.398 2.366-.712 2.736l.13.103zm19.954 44.471l.462-1.388 1.11.394-.842 1.262-.73-.268m-32.983-10.457l-.61.465-.583-.789c.24-.094.527-.299.721-.252.194.047.324.347.472.536m72.522 28.461l-1.471-.386.093-.615 1.683.063-.305.93M78 787.234h-1.6l-.12-.536 1.572-.394.148.93zm53.308 40.63l.212-1.277.74.307-1.045.86.093.11zm-51.31-43.989l-.37-1.104.841-.205.278 1.151-.759.158m-15.506-17.768l1.23.095-.12-.103-2.155 1.586.157.086 1.036-1.806-.148.142zm9.08 24.274l-.842 1.088-.49-.496 1.378-.616-.046.024z"/><path d="M73.608 790.357l.777.096v.039l-.823-.111.046-.024zm12.622 23.714c0-.165 0-.339.054-.512 0 .165 0 .339-.054.512zm41.684 13.581l-.157.22-.12-.236.277.016zm8.433.441c0-.157 0-.315.045-.473 0 .158 0 .316-.045.473zm84.543-75.219l.924.071.047-.103h-1.129l.158.032z"/><path d="M220.908 753.726a2.973 2.973 0 01-.259-.584c0-.071.157-.173.241-.268l-.13-.047v.954l.148-.055zm-89.694 74.028l-.128.047.22.063-.092-.11zm57.876-126.669h-3.088l1.174-1.475 1.905 1.467m-65.189 87.111l-.426.497a3.616 3.616 0 01-.462-.473c0-.039.166-.268.213-.26.232.066.458.148.675.244m-14.869 25.575l1.415-.623.924 1.728-.36.331-2.118-1.578.139.142zm-.129-.11l-.62 1.152-.545-.434 1.294-.607-.129-.111z"/></g><defs><clipPath id="clip0_213_2" class="height-3 anim"><rect width="224" fill="#fff" transform="translate(518 37)"/></clipPath><clipPath id="clip1_213_2" class="height-2 anim"><rect width="225" fill="#fff" transform="translate(284 339)"/></clipPath><clipPath id="clip2_213_2" class="height-1 anim"><rect width="225" fill="#fff" transform="translate(51 621)"/></clipPath></defs></svg>