<svg width="35" height="35" fill="none" xmlns="http://www.w3.org/2000/svg"><path d="M27.708 10.209h-4.375V8.75a5.834 5.834 0 00-11.667 0v1.459H7.291a1.458 1.458 0 00-1.458 1.458v16.042a4.375 4.375 0 004.375 4.375h14.583a4.375 4.375 0 004.375-4.375V11.667a1.458 1.458 0 00-1.458-1.458zM14.583 8.75a2.917 2.917 0 015.833 0v1.459h-5.833V8.75zM26.25 27.71a1.459 1.459 0 01-1.459 1.458H10.208A1.459 1.459 0 018.75 27.71V13.125h2.916v1.459a1.459 1.459 0 002.917 0v-1.459h5.833v1.459a1.459 1.459 0 002.917 0v-1.459h2.917V27.71z" fill="#000"/></svg>