<svg width="1900" height="265" fill="none" xmlns="http://www.w3.org/2000/svg"><path d="M999.569 0h-50.526l-80.697 111.006h-70.491V0h-45.251v264.304h45.251V153.298h70.113l80.697 111.006h55.805l-98.419-135.549L999.569 0zm855.121 0v111.006h-171.24V0h-45.31v264.304h45.31V153.298h171.24v111.006H1900V0h-45.31zM700.064 81.99L619.629 1.62V.997H519.534v.782l-.731-.73L437.8 81.99l.102.102h-.132v182.212h45.302v-86.76h172.255v86.76h45.304V82.092h-.667l.1-.102zm-216.99 50.285v-31.503l54.549-54.506h62.623l55.083 55.04v30.969H483.074zM1230.65.052l-.15.159V0h-165.58v.168l-.12-.116-47.67 47.871.27.268h-.93v167.918h.93l-.27.274 47.67 47.872.12-.116v.165h165.58v-.208l.15.156 47.68-47.871-.27-.275h.27V48.189h-.27l.27-.268L1230.65.052zm-18.74 218.939h-128.36l-21.95-22.039V67.36l21.95-22.042h128.36l21.29 21.377v130.919l-21.29 21.377zm373.25-114.097h-211.61V66.633l21.29-21.324h187.45V0H1376.4v.296l-.3-.296-47.79 47.864.09.09h-.09v56.94h-.01v45.309h211.62v47.469l-21.29 21.323h-190.32v45.309h208.76v-.295l.3.295 47.8-47.864-.1-.087h.1v-74.294h-.01v-37.165zM389.227 81.99l-80.72-80.37V.997h-54.289v.782l-.733-.73-58.859 58.605-58.285-58.035V.997H82.054v.782l-.735-.73L.029 81.99l.106.102H0v182.212h45.46V100.772l54.745-54.506h16.677l55.284 55.038v163h45.461V100.772l54.742-54.506h16.682l55.279 55.038v163h45.465V82.092h-.67l.102-.102z" fill="#ECEFF6"/></svg>