<svg width="70" height="70" fill="none" xmlns="http://www.w3.org/2000/svg"><path fill-rule="evenodd" clip-rule="evenodd" d="M35 0C15.67 0 0 15.67 0 35s15.67 35 35 35 35-15.67 35-35S54.33 0 35 0zm-7.697 16.446c1.992-.09 2.628-.113 7.697-.113h-.005c5.07 0 5.705.022 7.696.113 1.987.09 3.344.405 4.534.867a9.124 9.124 0 013.306 2.152 9.164 9.164 0 012.154 3.307c.46 1.187.774 2.544.868 4.53.089 1.992.112 2.628.112 7.698s-.023 5.704-.112 7.695c-.094 1.987-.409 3.344-.868 4.53a9.165 9.165 0 01-2.154 3.307 9.133 9.133 0 01-3.304 2.155c-1.188.461-2.546.776-4.533.867-1.992.09-2.626.113-7.696.113s-5.705-.023-7.696-.113c-1.987-.091-3.344-.406-4.532-.867a9.14 9.14 0 01-3.305-2.155 9.146 9.146 0 01-2.153-3.306c-.461-1.187-.776-2.544-.867-4.531-.09-1.991-.113-2.626-.113-7.695 0-5.07.023-5.706.112-7.698.09-1.986.405-3.343.868-4.53a9.164 9.164 0 012.154-3.306 9.141 9.141 0 013.307-2.153c1.187-.462 2.543-.776 4.53-.867z" fill="#000"/><path fill-rule="evenodd" clip-rule="evenodd" d="M33.328 19.697h1.674c4.984 0 5.575.018 7.543.107 1.82.084 2.808.388 3.466.643a5.774 5.774 0 012.145 1.396 5.794 5.794 0 011.397 2.147c.256.657.56 1.645.643 3.465.09 1.968.109 2.559.109 7.54 0 4.982-.02 5.574-.11 7.541-.082 1.82-.386 2.808-.642 3.465a5.772 5.772 0 01-1.397 2.145 5.774 5.774 0 01-2.145 1.396c-.657.256-1.646.56-3.466.643-1.968.09-2.559.109-7.543.109s-5.575-.02-7.543-.109c-1.82-.084-2.808-.388-3.466-.644a5.782 5.782 0 01-2.147-1.396A5.786 5.786 0 0120.45 46c-.255-.657-.56-1.645-.642-3.465-.09-1.968-.108-2.56-.108-7.544 0-4.985.018-5.573.108-7.54.083-1.82.387-2.808.642-3.466a5.784 5.784 0 011.397-2.147 5.793 5.793 0 012.147-1.397c.658-.257 1.646-.56 3.466-.644 1.722-.077 2.39-.1 5.869-.105v.005zm11.639 3.1a2.24 2.24 0 10-.001 4.48 2.24 2.24 0 000-4.482v.001zM25.414 35c0-5.294 4.292-9.586 9.586-9.586 5.294 0 9.585 4.292 9.585 9.586A9.584 9.584 0 0135 44.584c-5.294 0-9.586-4.29-9.586-9.584z" fill="#000"/><path d="M35.004 28.777a6.222 6.222 0 110 12.445 6.222 6.222 0 010-12.445z" fill="#000"/></svg>