<svg width="100" height="59" fill="none" xmlns="http://www.w3.org/2000/svg"><path d="M34.269 38.267H16.385c-1.342 0-2.236.896-2.236 2.24 0 1.343.894 2.239 2.236 2.239h17.884c1.34 0 2.235-.896 2.235-2.24 0-1.343-.894-2.24-2.235-2.24zm-6.707-11.198H9.678c-1.341 0-2.235.896-2.235 2.24 0 1.343.894 2.24 2.235 2.24h17.884c1.341 0 2.235-.896 2.235-2.24 0-1.344-.894-2.24-2.235-2.24zm-6.706-11.197H2.972c-1.341 0-2.236.896-2.236 2.24 0 1.343.895 2.239 2.236 2.239h17.884c1.34 0 2.235-.896 2.235-2.24 0-1.343-.894-2.24-2.235-2.24zm68.852-5.823c-.894-.896-2.235-1.344-3.13-.448L62.884 27.517c-2.236 1.792-5.813 1.792-8.048 0L30.692 9.601c-.895-.896-2.236-.896-3.13.448-.447.896-.447 2.24.447 3.135L51.705 31.1c1.789 1.344 4.471 2.24 6.707 2.24 2.235 0 4.918-.448 6.706-2.24l23.696-17.916c1.342-.895 1.342-2.24.894-3.135zM92.391.195H20.856c-1.342 0-2.236.896-2.236 2.24 0 1.344.894 2.24 2.236 2.24H92.39c1.341 0 2.235.895 2.235 2.239v44.79c0 1.343-.894 2.24-2.235 2.24H20.856c-1.342 0-2.236.895-2.236 2.239 0 1.343.894 2.24 2.236 2.24H92.39c3.577 0 6.706-2.688 6.706-6.72V6.914c-.447-4.03-3.13-6.718-6.706-6.718zm-3.13 45.238L75.848 31.996c-.894-.896-2.235-.896-3.13 0-.894.896-.894 2.24 0 3.136l13.414 13.437c.447.447.894.447 1.34.447.448 0 .895-.447 1.79-.447.894-.896.894-2.24 0-3.136z" fill="#FF5112"/></svg>