<svg width="229" height="80" fill="none" xmlns="http://www.w3.org/2000/svg"><path d="M41.07 22.668l6.964-6.965-6.931-6.931-6.965 6.965 6.931 6.93zM49.77 0l-6.965 6.965 6.93 6.93 6.966-6.964L49.77 0zm8.823 8.73l-6.965 6.965 6.931 6.931 6.965-6.964-6.931-6.931zm-8.863 8.629l-6.965 6.965 6.93 6.93 6.966-6.964-6.931-6.931zm70.531 9.892h-6.088l-9.724 13.358h-8.493V27.251h-5.453v31.805h5.453V45.698h8.448l9.724 13.358h6.724l-11.859-16.311 11.268-15.494zm102.842 0v13.358h-20.608V27.251h-5.453v31.805h5.453V45.698h20.608v13.358h5.452V27.252h-5.452zM84.33 37.097l-9.68-9.68v-.075H62.601v.094l-.088-.088-9.749 9.75.013.012h-.016v21.947h5.452v-10.45h20.732v10.45h5.452V37.11h-.08l.012-.013zm-26.116 6.057V39.36l6.566-6.566h7.536l6.63 6.63v3.73H58.214zm89.83-15.892l-.019.02v-.026h-20.004v.02l-.013-.014-5.76 5.76.032.032h-.113v20.203h.113l-.033.034 5.76 5.76.014-.015v.02h20.004v-.025l.019.019 5.76-5.76-.033-.033h.033V33.054h-.032l.032-.032-5.76-5.76zm-2.264 26.342h-15.508l-2.652-2.651V35.36l2.652-2.652h15.508l2.572 2.572v15.752l-2.572 2.572zm44.902-13.73H165.18V35.27l2.566-2.566h22.59V27.25h-24.813v.036l-.036-.035-5.76 5.76.011.01h-.011v12.304h25.503v5.712l-2.566 2.566h-22.937v5.453h25.16v-.036l.035.036 5.761-5.76-.012-.01h.012v-8.94h-.001v-4.473zm-143.85-2.777l-9.68-9.68v-.075H30.64v.094l-.088-.088-7.06 7.059-6.99-6.99v-.075h-6.51v.094l-.088-.088-9.749 9.75.013.012H.153v21.947h5.452V39.36l6.565-6.566h2l6.63 6.63v19.633h5.452V39.36l6.565-6.566h2.001l6.63 6.63v19.633H46.9V37.11h-.08l.012-.013zM0 68.407h2.33l-1.103 2.306h-.123L0 68.407zm.307 3.006h1.705v6.133H.307v-6.133zm3.717 0v6.134h1.705v-3.202c0-.425.139-.777.417-1.055.278-.278.63-.417 1.055-.417.4 0 .718.13.95.392.234.262.355.622.363 1.08v3.202h1.717v-3.472c0-.557-.112-1.045-.337-1.466a2.388 2.388 0 00-.945-.976 2.789 2.789 0 00-1.392-.343c-.4 0-.769.072-1.104.215a2.551 2.551 0 00-.871.607v-.7H4.024zm14.206 0h-1.84l-1.67 4.637h-.098l-1.668-4.637h-1.877l2.404 6.133h2.331l2.417-6.133zm7.005 3.042c0-.605-.14-1.149-.423-1.632a2.973 2.973 0 00-1.166-1.128 3.389 3.389 0 00-1.65-.405 3.47 3.47 0 00-1.686.417 3.152 3.152 0 00-1.662 2.822c0 .613.14 1.157.422 1.631.283.475.677.845 1.185 1.11.506.266 1.087.399 1.741.399.54 0 1.029-.092 1.467-.276a2.943 2.943 0 001.06-.724c.27-.298.442-.623.516-.975h-1.705a1.17 1.17 0 01-.522.429c-.233.107-.492.16-.779.16-.458 0-.842-.125-1.153-.375a1.555 1.555 0 01-.576-.938h4.894c.025-.172.037-.343.037-.515zm-4.895-.601a1.51 1.51 0 01.595-.847c.299-.212.64-.319 1.024-.319.401 0 .743.105 1.025.313.282.209.472.493.57.853H20.34zm9.753 2.398a2.183 2.183 0 01-.81.141c-.409 0-.748-.086-1.018-.257a1.087 1.087 0 01-.503-.7H26.02c.09.753.436 1.322 1.037 1.706.6.384 1.339.576 2.214.576.834 0 1.531-.172 2.092-.515.56-.343.84-.83.84-1.46 0-.393-.115-.71-.343-.95a2.243 2.243 0 00-.902-.559c-.372-.13-.84-.254-1.405-.368a4.129 4.129 0 00-.319-.062c-.482-.097-.815-.183-1-.257-.184-.074-.276-.2-.276-.38 0-.197.105-.338.313-.424.209-.085.444-.128.706-.128.36 0 .674.071.945.214.27.144.445.354.527.632h1.742c-.09-.76-.422-1.32-.994-1.68-.572-.36-1.264-.54-2.073-.54a4.78 4.78 0 00-1.38.196c-.438.13-.794.341-1.067.632-.275.29-.412.66-.412 1.11.008.417.13.754.362 1.012.233.258.532.452.896.583.364.13.828.254 1.392.368l.356.074c.458.081.769.157.932.227.164.07.246.186.246.35 0 .212-.119.365-.356.46zm4.183-6.312v.7c0 .253-.065.445-.196.576-.131.13-.319.196-.565.196h-.76v1.546h1.386v2.663c0 1.366.785 2.048 2.355 2.048.459 0 .978-.053 1.559-.16v-1.533a6.982 6.982 0 01-1.3.123c-.328 0-.561-.062-.7-.184-.14-.123-.209-.332-.209-.626v-2.33h2.209v-1.546h-2.209V69.94h-1.57zm5.263 1.473v6.134h1.705v-3.202c0-.425.125-.78.374-1.061.25-.283.558-.424.926-.424.377 0 .677.13.902.387.225.257.341.599.35 1.024v3.276H45.5v-3.202c0-.425.125-.78.374-1.061a1.2 1.2 0 01.938-.424c.369 0 .667.13.896.387.229.257.344.599.344 1.024v3.276h1.717V74c0-.54-.112-1.014-.337-1.423a2.357 2.357 0 00-.957-.95c-.413-.225-.89-.338-1.43-.338a2.67 2.67 0 00-1.165.257 2.59 2.59 0 00-.907.712 2.203 2.203 0 00-.853-.718 2.664 2.664 0 00-1.172-.251c-.368 0-.712.072-1.03.215a2.3 2.3 0 00-.822.62v-.712h-1.558zm18.169 3.042c0-.605-.142-1.149-.424-1.632a2.972 2.972 0 00-1.165-1.128 3.39 3.39 0 00-1.65-.405c-.614 0-1.176.139-1.687.417a3.155 3.155 0 00-1.662 2.822c0 .613.14 1.157.423 1.631a2.91 2.91 0 001.184 1.11c.507.266 1.087.399 1.742.399a3.75 3.75 0 001.466-.276 2.943 2.943 0 001.06-.724 2.08 2.08 0 00.516-.975h-1.705a1.17 1.17 0 01-.521.429 1.85 1.85 0 01-.78.16c-.458 0-.842-.125-1.153-.375a1.556 1.556 0 01-.576-.938h4.895c.024-.172.037-.343.037-.515zm-4.895-.601a1.51 1.51 0 01.594-.847c.3-.212.64-.319 1.025-.319.4 0 .742.105 1.024.313.282.209.472.493.57.853h-3.214zm6.305-2.441v6.134h1.705v-3.202c0-.425.14-.777.417-1.055.278-.278.63-.417 1.055-.417.401 0 .718.13.951.392.233.262.354.622.362 1.08v3.202h1.718v-3.472c0-.557-.113-1.045-.338-1.466a2.388 2.388 0 00-.945-.976 2.784 2.784 0 00-1.392-.343c-.4 0-.769.072-1.104.215a2.55 2.55 0 00-.87.607v-.7h-1.56zm8.649-1.473v.7c0 .253-.065.445-.196.576-.13.13-.32.196-.564.196h-.76v1.546h1.385v2.663c0 1.366.785 2.048 2.356 2.048.458 0 .977-.053 1.558-.16v-1.533a6.983 6.983 0 01-1.3.123c-.328 0-.561-.062-.7-.184-.14-.123-.209-.332-.209-.626v-2.33h2.209v-1.546h-2.209V69.94h-1.57zm8.526 3.153h-3.459v1.534h3.46v-1.534zm1.816-1.68V80h1.705v-3.03a2.616 2.616 0 001.791.7 2.977 2.977 0 002.668-1.558 3.325 3.325 0 00.4-1.632c0-.606-.134-1.15-.4-1.632a2.975 2.975 0 00-2.668-1.558 2.63 2.63 0 00-1.938.822v-.7h-1.558zm2.116 1.913c.299-.31.673-.466 1.123-.466.45 0 .826.156 1.128.466.302.312.454.696.454 1.154 0 .458-.152.842-.454 1.153a1.509 1.509 0 01-1.128.467c-.45 0-.824-.156-1.123-.467-.299-.31-.448-.695-.448-1.153 0-.458.15-.843.448-1.154zm7.097 3.926a3.562 3.562 0 001.717.417c.63 0 1.2-.139 1.712-.416.51-.28.914-.661 1.208-1.148a3.077 3.077 0 00.442-1.626 3.079 3.079 0 00-1.644-2.772 3.558 3.558 0 00-1.718-.417c-.63 0-1.202.139-1.717.417a3.083 3.083 0 00-1.644 2.773c0 .597.145 1.139.435 1.625.29.486.694.869 1.209 1.147zm.552-3.938c.303-.302.691-.454 1.165-.454.466 0 .853.151 1.16.454.306.303.46.691.46 1.166 0 .474-.154.863-.46 1.165-.307.303-.694.454-1.16.454-.466 0-.852-.151-1.159-.454-.306-.302-.46-.691-.46-1.165 0-.475.151-.863.454-1.166zm9.913-.037l1.128 4.27h2.11l1.558-6.134h-1.681l-1.08 4.318-1.128-4.318h-1.766l-1.141 4.355-1.105-4.355H92.99l1.558 6.133h2.11l1.129-4.269zm11.985 1.178c0-.605-.141-1.149-.423-1.632a2.971 2.971 0 00-1.166-1.128 3.387 3.387 0 00-1.65-.405c-.613 0-1.176.139-1.687.417a3.156 3.156 0 00-1.662 2.822c0 .613.141 1.157.423 1.631a2.93 2.93 0 001.184 1.11c.507.266 1.088.399 1.742.399.54 0 1.029-.092 1.466-.276a2.942 2.942 0 001.062-.724 2.09 2.09 0 00.515-.975h-1.706c-.114.18-.288.323-.521.429-.233.107-.493.16-.779.16-.458 0-.842-.125-1.153-.375a1.557 1.557 0 01-.577-.938h4.895a3.57 3.57 0 00.037-.515zm-4.895-.601a1.51 1.51 0 01.595-.847c.299-.212.64-.319 1.025-.319.4 0 .742.105 1.024.313.282.21.472.493.57.853h-3.214zm6.306-2.441v6.134h1.705v-3.313c0-.376.12-.695.362-.956a1.16 1.16 0 01.889-.393c.303 0 .544.077.724.233.18.156.27.38.27.675v.245h1.705v-.417c0-.72-.213-1.288-.638-1.706-.425-.417-.973-.625-1.644-.625-.36 0-.697.072-1.012.215a2.266 2.266 0 00-.804.607v-.7h-1.557zm12.746 3.042c0-.605-.141-1.149-.423-1.632a2.971 2.971 0 00-1.166-1.128 3.39 3.39 0 00-1.65-.405c-.613 0-1.176.139-1.687.417a3.158 3.158 0 00-1.662 2.821c0 .614.141 1.158.423 1.632.282.475.677.845 1.184 1.11.506.266 1.087.399 1.742.399.539 0 1.028-.092 1.465-.276.438-.184.792-.425 1.061-.724.271-.298.443-.623.516-.975h-1.705c-.114.18-.288.323-.521.429-.233.107-.493.16-.779.16-.458 0-.843-.125-1.153-.375a1.552 1.552 0 01-.577-.938h4.895a3.57 3.57 0 00.037-.515zm-4.895-.601c.098-.351.296-.634.594-.847a1.725 1.725 0 011.025-.319c.4 0 .743.105 1.025.313.282.209.472.493.57.853h-3.214zm12.415 3.692v-8.71h-1.706v3.153a2.607 2.607 0 00-1.803-.7c-.581 0-1.102.14-1.564.418a2.99 2.99 0 00-1.092 1.14 3.322 3.322 0 00-.399 1.632c0 .606.133 1.15.399 1.632s.63.862 1.092 1.141c.462.278.983.417 1.564.417.384 0 .742-.072 1.074-.215.331-.143.619-.345.865-.607v.7h1.57zm-2.122-1.913c-.303.31-.675.466-1.117.466-.45 0-.826-.156-1.129-.466a1.587 1.587 0 01-.454-1.154c0-.458.151-.842.454-1.153.303-.31.679-.466 1.129-.466a1.5 1.5 0 011.117.466c.302.311.453.695.453 1.153 0 .458-.151.843-.453 1.154zm7.201-4.22V80h1.705v-3.03a2.607 2.607 0 001.791.7c.581 0 1.104-.14 1.57-.418a2.971 2.971 0 001.098-1.141 3.321 3.321 0 00.399-1.632c0-.605-.133-1.148-.399-1.63a2.976 2.976 0 00-2.668-1.559 2.628 2.628 0 00-1.939.822v-.7h-1.557zm2.116 1.913a1.49 1.49 0 011.122-.466c.45 0 .826.156 1.129.466.302.312.454.696.454 1.154 0 .458-.152.842-.454 1.153a1.513 1.513 0 01-1.129.467 1.49 1.49 0 01-1.122-.467c-.299-.31-.448-.695-.448-1.153 0-.458.149-.843.448-1.154zm7.611-4.49h-1.705v8.71h1.705v-8.71zm5.411 4.944c-.18.082-.482.14-.907.172-2.061.123-3.092.79-3.092 2 0 .532.188.953.564 1.263.376.311.892.467 1.546.467.474 0 .922-.08 1.344-.24.421-.16.762-.378 1.024-.656v.773l2.135-.013V76.05h-.712v-2.258c0-.76-.243-1.368-.73-1.822-.486-.453-1.139-.68-1.956-.68-.802 0-1.469.204-2 .613-.532.41-.847.957-.945 1.644h1.596c.065-.287.21-.507.435-.663.225-.155.505-.233.84-.233.327 0 .597.072.81.215.212.143.319.325.319.546-.001.164-.091.287-.271.368zm.344.92v.074c0 .279-.084.54-.252.785a1.818 1.818 0 01-.675.59c-.282.146-.582.22-.901.22-.254 0-.448-.051-.583-.153a.514.514 0 01-.203-.436c0-.229.113-.407.338-.534.225-.126.595-.21 1.11-.251.27-.025.514-.065.73-.123.216-.057.362-.114.436-.171zm3.679-3.287v6.134h1.706v-3.202c0-.425.139-.777.417-1.055.278-.278.63-.417 1.055-.417.401 0 .718.13.951.392.233.262.353.622.361 1.08v3.202h1.718v-3.472c0-.557-.113-1.045-.338-1.466a2.392 2.392 0 00-.944-.976 2.784 2.784 0 00-1.393-.343c-.401 0-.768.072-1.104.215a2.565 2.565 0 00-.871.607v-.7h-1.558zm8.649-1.473v.7c0 .253-.065.445-.196.576-.131.13-.319.196-.564.196h-.761v1.546h1.387v2.663c0 1.366.785 2.048 2.355 2.048.458 0 .977-.053 1.558-.16v-1.533a6.986 6.986 0 01-1.3.123c-.328 0-.56-.062-.7-.184-.139-.123-.208-.332-.208-.626v-2.33h2.208v-1.546h-2.208V69.94h-1.571zm8.33 1.473v6.134h1.706v-3.202c0-.425.138-.777.417-1.055.278-.278.629-.417 1.054-.417.401 0 .718.13.951.392.234.262.355.622.362 1.08v3.202h1.718v-3.472c0-.557-.113-1.045-.338-1.466a2.392 2.392 0 00-.944-.976 2.784 2.784 0 00-1.393-.343 2.78 2.78 0 00-1.104.215 2.556 2.556 0 00-.871.607v-.7h-1.558zm14.182 6.133v-6.133h-1.705v3.201c0 .426-.139.777-.417 1.055-.278.279-.63.418-1.055.418-.401 0-.718-.133-.951-.399-.233-.266-.35-.623-.35-1.073l-.012-3.202h-1.718v3.472c0 .556.113 1.044.338 1.465.225.422.54.747.945.976.404.229.868.343 1.392.343.401 0 .769-.071 1.104-.214a2.55 2.55 0 00.871-.608v.7h1.558zm2.723-7.606v.7c0 .253-.065.445-.196.576-.13.13-.319.196-.564.196h-.761v1.546h1.387v2.663c0 1.366.785 2.048 2.355 2.048.458 0 .977-.053 1.558-.16v-1.533a6.978 6.978 0 01-1.3.123c-.327 0-.561-.062-.7-.184-.139-.123-.208-.332-.208-.626v-2.33h2.208v-1.546h-2.208V69.94h-1.571zm5.263 1.473v6.134h1.705v-3.313c0-.376.121-.695.362-.956.241-.262.538-.393.89-.393.302 0 .544.077.723.233.18.156.27.38.27.675v.245h1.705v-.417c0-.72-.212-1.288-.637-1.706-.426-.417-.974-.625-1.644-.625-.36 0-.697.072-1.012.215a2.266 2.266 0 00-.804.607v-.7h-1.558zm6.306-3.006l1.104 2.306h.122l1.104-2.306h-2.33zm2.012 3.006h-1.706v6.133h1.706v-6.133zm2.723-1.473v.7c0 .253-.065.445-.196.576-.131.13-.319.196-.564.196h-.761v1.546h1.387v2.663c0 1.366.785 2.048 2.355 2.048.458 0 .977-.053 1.558-.16v-1.533a6.978 6.978 0 01-1.3.123c-.327 0-.561-.062-.7-.184-.139-.123-.208-.332-.208-.626v-2.33h2.208v-1.546h-2.208V69.94h-1.571zm6.968 1.473h-1.705v6.133h1.705v-6.133zm-2.011-3.006l1.104 2.306h.122l1.104-2.306h-2.33zm5.127 8.845a3.566 3.566 0 001.718.417c.63 0 1.2-.139 1.711-.416.511-.28.914-.661 1.209-1.148a3.081 3.081 0 00.442-1.626c0-.597-.146-1.138-.436-1.625a3.078 3.078 0 00-1.208-1.147 3.56 3.56 0 00-1.718-.417c-.629 0-1.202.139-1.717.417-.516.279-.918.66-1.209 1.147a3.114 3.114 0 00-.435 1.626 3.084 3.084 0 001.643 2.773zm.552-3.938c.303-.302.691-.454 1.166-.454.466 0 .852.151 1.159.454.307.303.46.691.46 1.166 0 .474-.153.863-.46 1.165-.307.303-.693.454-1.159.454-.466 0-.853-.151-1.159-.454-.307-.302-.46-.691-.46-1.165 0-.475.151-.863.453-1.166zm10.912-1.681a2.787 2.787 0 00-1.393-.343c-.4 0-.768.072-1.103.215a2.56 2.56 0 00-.872.607v-.7h-1.558v6.135h1.706v-3.202c0-.425.139-.777.417-1.055.278-.278.629-.417 1.054-.417.401 0 .719.13.951.392.234.262.355.622.363 1.08v3.202h1.717v-3.472c0-.557-.113-1.045-.338-1.466a2.38 2.38 0 00-.944-.976z" fill="#FF5112"/></svg>