<svg width="752" height="263" fill="none" xmlns="http://www.w3.org/2000/svg"><path d="M135.116 74.508l22.894-22.893-22.783-22.782-22.894 22.893 22.783 22.782zM163.712 0l-22.895 22.894L163.6 45.675l22.894-22.893L163.712 0zm29.004 28.697L169.822 51.59l22.783 22.782 22.894-22.893-22.783-22.782zm-29.134 28.36L140.688 79.95l22.783 22.783 22.894-22.894-22.783-22.782zm231.842 32.516h-20.012l-31.962 43.908h-27.92V89.573h-17.923v104.544h17.923v-43.908h27.77l31.962 43.908h22.104l-38.982-53.616 37.04-50.928zm338.046 0v43.908h-67.74V89.573h-17.923v104.544h17.923v-43.908h67.74v43.908h17.922V89.573H733.47zm-456.157 32.365l-31.821-31.82v-.246h-39.598v.31l-.289-.29-32.046 32.046.04.04h-.052v72.14h17.922v-34.349h68.146v34.349h17.923v-72.14h-.264l.039-.04zm-85.843 19.908v-12.472l21.58-21.58h24.774l21.792 21.791v12.261H191.47zM486.747 89.61l-.062.063v-.083h-65.754v.066l-.046-.046-18.933 18.933.106.105h-.37v66.408h.372l-.109.109 18.933 18.932.046-.046v.066h65.754v-.083l.062.062 18.933-18.932-.108-.109h.108v-66.408h-.105l.105-.105-18.932-18.932zm-7.444 86.586H428.33l-8.719-8.716v-51.251l8.719-8.717h50.973l8.454 8.454v51.776l-8.454 8.454zm147.595-45.133h-83.829v-15.134l8.435-8.434h74.257V89.573h-81.563v.117l-.118-.117-18.933 18.932.036.036h-.036v22.522h-.001v17.921h83.829v18.776l-8.433 8.434h-75.395v17.922h82.7v-.117l.118.117 18.934-18.932-.037-.035h.037v-29.386h-.001v-14.7zm-472.845-9.125l-31.821-31.82v-.246h-21.401v.31l-.289-.29-23.203 23.203-22.976-22.977v-.246h-21.4v.31l-.291-.29L.626 121.939l.043.04H.615v72.14h17.921v-64.744l21.581-21.58h6.575l21.793 21.791v64.533h17.921v-64.744l21.58-21.58h6.576l21.792 21.791v64.533h17.923v-72.14h-.264l.04-.04zM.115 224.853h7.662l-3.628 7.581h-.405l-3.629-7.581zm1.01 9.88h5.604v20.161H1.124v-20.161zm12.217-.002v20.162h5.605v-10.525c0-1.397.457-2.554 1.371-3.467.914-.914 2.07-1.371 3.468-1.371 1.317 0 2.359.43 3.125 1.291.767.86 1.163 2.043 1.19 3.547v10.525h5.646v-11.412c0-1.828-.37-3.434-1.11-4.818-.739-1.384-1.774-2.453-3.104-3.206-1.331-.753-2.857-1.129-4.578-1.129-1.316 0-2.526.235-3.628.706a8.378 8.378 0 00-2.863 1.996v-2.299h-5.122zm46.698.001h-6.05l-5.484 15.243h-.322L42.7 234.732h-6.17l7.903 20.162h7.662l7.945-20.162zm23.03 9.999c0-1.989-.464-3.776-1.391-5.363a9.767 9.767 0 00-3.832-3.709c-1.626-.887-3.434-1.331-5.424-1.331-2.016 0-3.865.457-5.545 1.371a10.354 10.354 0 00-3.99 3.811c-.983 1.625-1.473 3.447-1.473 5.463s.463 3.805 1.39 5.363c.929 1.56 2.225 2.776 3.893 3.649 1.666.874 3.575 1.311 5.725 1.311 1.775 0 3.381-.304 4.82-.908 1.437-.605 2.6-1.398 3.488-2.379.887-.982 1.451-2.049 1.693-3.206H76.82c-.377.591-.948 1.062-1.715 1.41-.765.351-1.62.526-2.56.526-1.506 0-2.77-.41-3.791-1.23-1.022-.819-1.653-1.849-1.895-3.085h16.09a12.1 12.1 0 00.121-1.693zm-16.091-1.975a4.965 4.965 0 011.955-2.783c.982-.699 2.104-1.048 3.368-1.048 1.317 0 2.44.342 3.367 1.028.928.685 1.552 1.62 1.875 2.803H66.978zm32.054 7.885c-.78.309-1.667.463-2.662.463-1.344 0-2.46-.283-3.346-.846-.888-.565-1.439-1.332-1.654-2.298h-5.727c.296 2.473 1.432 4.342 3.408 5.604 1.976 1.265 4.402 1.895 7.279 1.895 2.742 0 5.034-.565 6.875-1.694 1.841-1.128 2.763-2.728 2.763-4.798 0-1.291-.377-2.332-1.129-3.126-.753-.793-1.741-1.405-2.964-1.834-1.224-.43-2.762-.834-4.618-1.21a13.187 13.187 0 00-1.048-.202c-1.586-.322-2.681-.605-3.287-.847-.604-.242-.907-.658-.907-1.25 0-.645.343-1.109 1.028-1.391.686-.282 1.46-.423 2.32-.423 1.182 0 2.217.236 3.105.706.886.47 1.464 1.163 1.733 2.077h5.727c-.296-2.5-1.385-4.342-3.267-5.525-1.882-1.183-4.154-1.774-6.815-1.774-1.587 0-3.1.215-4.537.645-1.438.43-2.608 1.122-3.507 2.077-.902.955-1.352 2.17-1.352 3.649.026 1.371.423 2.479 1.19 3.327.766.847 1.747 1.486 2.944 1.915 1.196.431 2.721.834 4.577 1.209l1.169.244c1.505.268 2.526.517 3.065.745.537.229.806.611.806 1.15 0 .7-.39 1.203-1.169 1.512zm13.747-20.748v2.298c0 .834-.215 1.465-.644 1.895-.431.429-1.048.645-1.856.645h-2.5v5.08h4.557v8.752c0 4.49 2.581 6.734 7.742 6.734 1.506 0 3.213-.176 5.122-.526v-5.04c-1.426.269-2.85.404-4.274.404-1.076 0-1.843-.202-2.3-.606-.457-.403-.685-1.088-.685-2.055v-7.662h7.259v-5.08h-7.259v-4.839h-5.162zm17.305 4.838v20.162h5.605v-10.525c0-1.397.409-2.56 1.23-3.487.819-.928 1.834-1.391 3.044-1.391 1.237 0 2.224.423 2.963 1.27.741.847 1.123 1.969 1.15 3.367v10.766h5.606v-10.525c0-1.397.41-2.56 1.23-3.487.819-.928 1.847-1.391 3.084-1.391 1.21 0 2.191.423 2.944 1.27.753.847 1.13 1.969 1.13 3.367v10.766h5.645V243.24c0-1.775-.37-3.334-1.109-4.678a7.754 7.754 0 00-3.146-3.125c-1.357-.739-2.923-1.109-4.697-1.109-1.371 0-2.649.282-3.831.846a8.492 8.492 0 00-2.984 2.34 7.242 7.242 0 00-2.803-2.36c-1.143-.551-2.426-.826-3.852-.826a8.173 8.173 0 00-3.387.706 7.547 7.547 0 00-2.701 2.037v-2.34h-5.121zm59.718 10c0-1.989-.464-3.776-1.391-5.363a9.774 9.774 0 00-3.831-3.709c-1.627-.887-3.435-1.331-5.424-1.331-2.017 0-3.865.457-5.545 1.371a10.357 10.357 0 00-3.992 3.811c-.981 1.625-1.472 3.447-1.472 5.463s.464 3.805 1.391 5.363c.928 1.56 2.224 2.776 3.892 3.649 1.666.874 3.575 1.311 5.726 1.311 1.775 0 3.381-.304 4.819-.908 1.437-.605 2.601-1.398 3.488-2.379.887-.982 1.451-2.049 1.694-3.206h-5.605c-.377.591-.948 1.062-1.714 1.41-.767.351-1.62.526-2.561.526-1.506 0-2.77-.41-3.791-1.23-1.022-.819-1.653-1.849-1.895-3.085h16.09c.08-.565.121-1.127.121-1.693zm-16.09-1.975a4.963 4.963 0 011.956-2.783c.981-.699 2.103-1.048 3.367-1.048 1.317 0 2.44.342 3.367 1.028.927.685 1.552 1.62 1.875 2.803h-10.565zm20.725-8.025v20.162h5.606v-10.525c0-1.397.457-2.554 1.371-3.467.913-.914 2.07-1.371 3.467-1.371 1.318 0 2.36.43 3.126 1.291.766.86 1.163 2.043 1.189 3.547v10.525h5.646v-11.412c0-1.828-.369-3.434-1.109-4.818-.739-1.384-1.774-2.453-3.105-3.206-1.331-.753-2.856-1.129-4.577-1.129-1.317 0-2.527.235-3.628.706a8.386 8.386 0 00-2.864 1.996v-2.299h-5.122zm28.434-4.838v2.298c0 .834-.215 1.465-.646 1.895-.429.429-1.048.645-1.854.645h-2.5v5.08h4.557v8.752c0 4.49 2.581 6.734 7.742 6.734 1.505 0 3.212-.176 5.121-.526v-5.04a22.99 22.99 0 01-4.274.404c-1.076 0-1.842-.202-2.299-.606-.457-.403-.686-1.088-.686-2.055v-7.662h7.259v-5.08h-7.259v-4.839h-5.161zm28.025 10.364h-11.372v5.041h11.372v-5.041zm5.97-5.526v28.227h5.605v-9.961a8.59 8.59 0 005.888 2.3c1.908 0 3.629-.458 5.162-1.371a9.793 9.793 0 003.609-3.752c.873-1.585 1.31-3.373 1.31-5.362 0-1.989-.437-3.777-1.31-5.362a9.776 9.776 0 00-3.609-3.751c-1.533-.914-3.254-1.371-5.162-1.371-1.264 0-2.434.235-3.508.706a8.927 8.927 0 00-2.864 1.996v-2.299h-5.121zm6.956 6.291c.982-1.021 2.212-1.532 3.69-1.532 1.479 0 2.715.511 3.71 1.532.994 1.023 1.492 2.285 1.492 3.791 0 1.505-.498 2.769-1.492 3.791-.995 1.022-2.231 1.533-3.71 1.533-1.478 0-2.708-.511-3.69-1.533-.981-1.022-1.472-2.286-1.472-3.791 0-1.506.491-2.769 1.472-3.791zm23.326 12.908c1.693.912 3.574 1.37 5.645 1.37 2.07 0 3.946-.458 5.626-1.37 1.679-.917 3.004-2.172 3.972-3.773.968-1.598 1.452-3.379 1.452-5.342 0-1.963-.478-3.743-1.432-5.343-.955-1.6-2.278-2.856-3.972-3.77-1.694-.914-3.576-1.371-5.646-1.371-2.071 0-3.952.457-5.645 1.371-1.693.915-3.018 2.17-3.973 3.77-.954 1.6-1.431 3.38-1.431 5.343s.477 3.744 1.431 5.342c.955 1.6 2.28 2.856 3.973 3.773zm1.814-12.945c.995-.995 2.272-1.493 3.831-1.493 1.532 0 2.802.497 3.811 1.493 1.008.994 1.512 2.271 1.512 3.83 0 1.559-.504 2.837-1.512 3.831-1.009.995-2.279 1.493-3.811 1.493s-2.801-.498-3.81-1.493c-1.008-.994-1.513-2.272-1.513-3.831 0-1.559.497-2.837 1.492-3.83zm32.58-.123l3.709 14.032h6.936l5.121-20.162h-5.524l-3.55 14.194-3.709-14.194h-5.805l-3.752 14.315-3.63-14.315h-5.565l5.123 20.162h6.935l3.711-14.032zm39.399 3.869c0-1.989-.463-3.776-1.391-5.363a9.774 9.774 0 00-3.831-3.709c-1.627-.887-3.434-1.331-5.424-1.331-2.016 0-3.865.457-5.545 1.371a10.37 10.37 0 00-3.992 3.811c-.982 1.625-1.471 3.447-1.471 5.463s.463 3.805 1.391 5.363c.927 1.56 2.223 2.776 3.891 3.649 1.667.874 3.575 1.311 5.726 1.311 1.775 0 3.38-.304 4.82-.908 1.437-.605 2.6-1.398 3.488-2.379.887-.982 1.451-2.049 1.693-3.206h-5.605c-.377.591-.948 1.062-1.714 1.41-.766.351-1.62.526-2.561.526-1.506 0-2.769-.41-3.79-1.23-1.022-.819-1.654-1.849-1.895-3.085h16.089a11.89 11.89 0 00.121-1.693zm-16.09-1.975a4.963 4.963 0 011.956-2.783c.981-.699 2.103-1.048 3.367-1.048 1.317 0 2.44.342 3.368 1.028.927.686 1.552 1.62 1.874 2.803h-10.565zm20.732-8.025v20.162h5.605v-10.887c0-1.236.396-2.285 1.189-3.145.794-.86 1.768-1.291 2.924-1.291.994 0 1.788.255 2.379.767.592.511.888 1.249.888 2.217v.806h5.604v-1.371c0-2.365-.699-4.234-2.096-5.605-1.398-1.371-3.2-2.056-5.403-2.056a7.941 7.941 0 00-3.328.706 7.437 7.437 0 00-2.641 1.996v-2.299h-5.121zm41.892 10c0-1.989-.464-3.776-1.39-5.363a9.77 9.77 0 00-3.832-3.709c-1.628-.887-3.435-1.331-5.425-1.331-2.014 0-3.864.457-5.544 1.371a10.366 10.366 0 00-3.993 3.811c-.981 1.625-1.472 3.447-1.472 5.463s.464 3.805 1.392 5.363c.926 1.56 2.224 2.776 3.891 3.649 1.666.874 3.575 1.311 5.725 1.311 1.775 0 3.381-.304 4.819-.908 1.437-.605 2.601-1.398 3.488-2.379.888-.982 1.453-2.049 1.695-3.206h-5.606c-.375.591-.947 1.062-1.713 1.41-.765.351-1.619.526-2.559.526-1.506 0-2.771-.41-3.791-1.23-1.023-.819-1.655-1.849-1.896-3.085h16.091c.08-.565.12-1.127.12-1.693zm-16.09-1.975a4.957 4.957 0 011.955-2.783c.982-.699 2.104-1.048 3.368-1.048 1.315 0 2.44.342 3.368 1.028.927.685 1.551 1.62 1.874 2.803h-10.565zm40.814 12.139v-28.63h-5.606v10.363a8.55 8.55 0 00-2.68-1.693 8.656 8.656 0 00-3.247-.605c-1.91 0-3.623.457-5.142 1.371-1.519.914-2.715 2.165-3.589 3.751-.874 1.585-1.31 3.373-1.31 5.362 0 1.991.437 3.777 1.31 5.362.874 1.587 2.07 2.837 3.589 3.752 1.519.913 3.232 1.371 5.142 1.371 1.263 0 2.439-.236 3.528-.706a8.47 8.47 0 002.844-1.997v2.298h5.161v.001zm-6.976-6.29c-.996 1.022-2.219 1.533-3.67 1.533-1.48 0-2.716-.511-3.711-1.533-.995-1.022-1.492-2.285-1.492-3.791 0-1.506.496-2.768 1.492-3.791.995-1.021 2.231-1.532 3.711-1.532 1.451 0 2.673.511 3.67 1.532.994 1.023 1.492 2.285 1.492 3.791 0 1.506-.499 2.769-1.492 3.791zm23.666-13.874v28.227h5.604v-9.961a8.594 8.594 0 005.888 2.3c1.91 0 3.63-.458 5.163-1.371a9.78 9.78 0 003.607-3.752c.875-1.585 1.311-3.373 1.311-5.362 0-1.989-.437-3.777-1.311-5.362a9.771 9.771 0 00-3.607-3.751c-1.533-.914-3.253-1.371-5.163-1.371-1.263 0-2.434.235-3.508.706a8.96 8.96 0 00-2.864 1.996v-2.299h-5.12zm6.956 6.291c.98-1.021 2.21-1.532 3.69-1.532 1.477 0 2.714.511 3.709 1.532.994 1.023 1.493 2.285 1.493 3.791 0 1.505-.499 2.769-1.493 3.791-.995 1.022-2.232 1.533-3.709 1.533-1.48 0-2.711-.511-3.69-1.533-.982-1.022-1.471-2.286-1.471-3.791 0-1.506.49-2.769 1.471-3.791zm25.021-14.76h-5.603v28.63h5.603v-28.63zm17.789 16.252c-.591.269-1.586.456-2.983.564-6.775.404-10.162 2.594-10.162 6.573 0 1.748.617 3.132 1.855 4.153 1.235 1.022 2.93 1.533 5.081 1.533 1.558 0 3.03-.262 4.416-.787 1.384-.524 2.506-1.243 3.367-2.158v2.541l7.017-.041v-4.919h-2.339v-7.42c0-2.501-.8-4.497-2.399-5.988-1.599-1.492-3.744-2.237-6.432-2.237-2.634 0-4.826.671-6.572 2.015-1.748 1.346-2.783 3.145-3.105 5.402h5.243c.214-.94.692-1.665 1.431-2.176.738-.511 1.659-.766 2.762-.766 1.075 0 1.962.236 2.661.706.699.47 1.049 1.068 1.049 1.794-.002.539-.299.943-.89 1.211zm1.129 3.025v.241c0 .916-.275 1.775-.826 2.581-.553.806-1.291 1.452-2.218 1.936a6.33 6.33 0 01-2.964.725c-.834 0-1.471-.169-1.916-.504-.444-.336-.666-.813-.666-1.431 0-.753.371-1.338 1.111-1.754.738-.416 1.956-.692 3.648-.827a14.65 14.65 0 002.4-.403c.71-.188 1.19-.377 1.431-.564zm12.092-10.808v20.162h5.605v-10.525c0-1.397.457-2.554 1.371-3.467.915-.914 2.071-1.371 3.469-1.371 1.316 0 2.359.43 3.124 1.291.767.86 1.163 2.043 1.19 3.547v10.525h5.646v-11.412c0-1.828-.371-3.434-1.111-4.818-.74-1.384-1.774-2.453-3.104-3.206-1.331-.753-2.858-1.129-4.578-1.129-1.317 0-2.526.235-3.629.706a8.4 8.4 0 00-2.863 1.996v-2.299h-5.12zm28.427-4.838v2.298c0 .834-.214 1.465-.645 1.895-.429.429-1.048.645-1.854.645h-2.5v5.08h4.556v8.752c0 4.49 2.581 6.734 7.742 6.734 1.505 0 3.213-.176 5.122-.526v-5.04c-1.425.269-2.85.404-4.274.404-1.076 0-1.842-.202-2.299-.606-.458-.403-.685-1.088-.685-2.055v-7.662h7.259v-5.08h-7.259v-4.839h-5.163zm27.384 4.838v20.162h5.605v-10.525c0-1.397.457-2.554 1.371-3.467.914-.913 2.07-1.371 3.467-1.371 1.318 0 2.36.43 3.126 1.291.766.86 1.164 2.043 1.19 3.547v10.525h5.645v-11.412c0-1.828-.37-3.434-1.11-4.818-.74-1.384-1.774-2.453-3.105-3.206-1.329-.753-2.857-1.129-4.578-1.129-1.317 0-2.526.235-3.628.706a8.414 8.414 0 00-2.864 1.996v-2.299h-5.119zm46.61 20.163v-20.162h-5.605v10.524c0 1.398-.457 2.554-1.37 3.468-.916.915-2.071 1.372-3.469 1.372-1.317 0-2.359-.438-3.125-1.31-.766-.874-1.15-2.049-1.15-3.529l-.041-10.524h-5.645v11.412c0 1.828.37 3.434 1.109 4.818.739 1.384 1.775 2.453 3.105 3.206 1.331.752 2.857 1.129 4.578 1.129 1.316 0 2.526-.235 3.629-.705a8.427 8.427 0 002.863-1.997v2.298h5.121zm8.953-25.001v2.298c0 .834-.215 1.465-.645 1.895-.429.429-1.048.645-1.854.645h-2.5v5.08h4.557v8.752c0 4.49 2.58 6.734 7.742 6.734 1.504 0 3.212-.176 5.121-.526v-5.04c-1.425.269-2.85.404-4.274.404-1.076 0-1.842-.202-2.299-.606-.458-.403-.685-1.088-.685-2.055v-7.662h7.259v-5.08h-7.259v-4.839h-5.163zm17.303 4.838v20.162h5.604v-10.887c0-1.236.397-2.285 1.19-3.145.792-.86 1.767-1.291 2.923-1.291.995 0 1.788.255 2.379.767.592.511.887 1.249.887 2.217v.806h5.605v-1.371c0-2.365-.699-4.234-2.096-5.605-1.398-1.371-3.201-2.056-5.403-2.056a7.935 7.935 0 00-3.328.706 7.428 7.428 0 00-2.641 1.996v-2.299h-5.12zm20.724-9.878l3.629 7.581h.403l3.629-7.581h-7.661zm6.62 9.879h-5.606v20.162h5.606v-20.162zm8.946-4.839v2.298c0 .834-.215 1.465-.645 1.895-.429.429-1.048.645-1.854.645h-2.5v5.08h4.556v8.752c0 4.49 2.581 6.734 7.741 6.734 1.506 0 3.214-.176 5.123-.526v-5.04c-1.425.269-2.85.404-4.274.404-1.076 0-1.842-.202-2.299-.606-.457-.403-.685-1.088-.685-2.055v-7.662h7.259v-5.08h-7.259v-4.839h-5.163zm22.911 4.839h-5.606v20.162h5.606v-20.162zm-6.621-9.879l3.628 7.581h.402l3.63-7.581h-7.66zm16.856 29.077c1.695.912 3.576 1.37 5.646 1.37 2.069 0 3.946-.458 5.625-1.37 1.679-.917 3.005-2.172 3.973-3.773.967-1.598 1.452-3.379 1.452-5.342 0-1.963-.479-3.743-1.431-5.343-.956-1.6-2.28-2.856-3.973-3.77-1.694-.914-3.576-1.371-5.645-1.371-2.07 0-3.952.457-5.646 1.371-1.693.915-3.018 2.17-3.971 3.77-.955 1.6-1.432 3.38-1.432 5.343s.478 3.744 1.432 5.342c.952 1.6 2.277 2.856 3.97 3.773zm1.814-12.945c.995-.995 2.272-1.493 3.832-1.493 1.532 0 2.802.497 3.811 1.493 1.008.994 1.511 2.271 1.511 3.83 0 1.559-.503 2.837-1.511 3.831-1.009.995-2.28 1.493-3.811 1.493-1.533 0-2.803-.498-3.81-1.493-1.008-.994-1.512-2.272-1.512-3.831 0-1.559.497-2.837 1.49-3.83zm35.875-5.528c-1.33-.753-2.857-1.129-4.578-1.129-1.316 0-2.526.235-3.628.706a8.405 8.405 0 00-2.864 1.996v-2.299h-5.122v20.162h5.606v-10.525c0-1.397.457-2.554 1.371-3.467.914-.913 2.07-1.371 3.467-1.371 1.318 0 2.36.43 3.126 1.291.766.86 1.164 2.043 1.19 3.547v10.525h5.645v-11.412c0-1.828-.371-3.434-1.11-4.818-.737-1.384-1.772-2.453-3.103-3.206z" fill="#fff"/></svg>