<svg width="229" height="80" fill="none" xmlns="http://www.w3.org/2000/svg"><path d="M41.07 22.668l6.964-6.965-6.931-6.93-6.965 6.964 6.931 6.931zM49.77 0l-6.965 6.965 6.93 6.93 6.966-6.964L49.77 0zm8.823 8.73l-6.965 6.965 6.931 6.932 6.965-6.965-6.931-6.931zm-8.863 8.628l-6.965 6.965 6.93 6.932 6.966-6.965-6.931-6.931z" fill="#FF5112"/><path d="M120.261 27.251h-6.088l-9.724 13.358h-8.493V27.251h-5.453v31.806h5.453V45.699h8.448l9.723 13.358h6.725l-11.859-16.312 11.268-15.494zm102.842 0V40.61h-20.608V27.251h-5.453v31.806h5.453V45.699h20.608v13.358h5.452V27.25h-5.452zM84.33 37.097l-9.68-9.68v-.075H62.601v.094l-.088-.088-9.749 9.75.013.011h-.016v21.948h5.452v-10.45h20.732v10.45h5.452V37.109h-.08l.012-.012zm-26.116 6.057v-3.795l6.566-6.565h7.536l6.63 6.63v3.73H58.214zm89.83-15.892l-.019.02v-.026h-20.004v.02l-.014-.014-5.76 5.76.032.032h-.112v20.203h.113l-.033.034 5.76 5.76.014-.015v.02h20.004v-.025l.018.019 5.76-5.76-.033-.033h.033V33.054h-.032l.032-.032-5.759-5.76zm-2.265 26.342h-15.507l-2.652-2.651V35.36l2.652-2.652h15.507l2.572 2.572v15.752l-2.572 2.572zm44.903-13.73H165.18V35.27l2.566-2.566h22.59V27.25h-24.813v.036l-.036-.035-5.76 5.76.011.01h-.011v12.304h25.503v5.712l-2.566 2.566h-22.937v5.453h25.159v-.036l.036.036 5.76-5.76-.011-.01h.011V39.873zm-143.85-2.777l-9.68-9.68v-.075H30.64v.094l-.088-.088-7.058 7.059-6.99-6.99v-.075H9.992v.094l-.088-.088-9.75 9.75.014.011H.152v21.948h5.452V39.359l6.566-6.565h2l6.63 6.63v19.633h5.452V39.359l6.565-6.565h2l6.63 6.63v19.633H46.9V37.109h-.08l.012-.012zM0 68.407h2.33l-1.103 2.306h-.123L0 68.407zm.307 3.006h1.705v6.133H.307v-6.133zm3.717 0v6.133h1.705v-3.202c0-.425.139-.776.417-1.054.278-.279.63-.417 1.055-.417.4 0 .718.13.95.392.234.262.355.622.363 1.08v3.201h1.717v-3.471c0-.557-.112-1.045-.337-1.466a2.388 2.388 0 00-.945-.976c-.405-.229-.869-.343-1.392-.343-.4 0-.769.071-1.104.215a2.551 2.551 0 00-.871.607v-.7H4.024zm14.206 0h-1.84l-1.668 4.637h-.098l-1.669-4.637h-1.877l2.405 6.133h2.33l2.418-6.133zm7.006 3.042c0-.605-.142-1.149-.424-1.632a2.971 2.971 0 00-1.165-1.128 3.39 3.39 0 00-1.65-.405 3.47 3.47 0 00-1.687.417 3.152 3.152 0 00-1.662 2.821c0 .613.14 1.158.423 1.632a2.91 2.91 0 001.184 1.11c.507.266 1.087.399 1.742.399.54 0 1.028-.093 1.466-.276a2.94 2.94 0 001.06-.724 2.08 2.08 0 00.516-.975h-1.705a1.17 1.17 0 01-.521.429 1.85 1.85 0 01-.78.16c-.457 0-.842-.125-1.153-.375a1.556 1.556 0 01-.576-.938h4.895c.024-.172.037-.343.037-.515zm-4.896-.601a1.51 1.51 0 01.595-.847 1.72 1.72 0 011.025-.319c.4 0 .742.104 1.024.313.282.209.472.493.57.853H20.34zm9.753 2.398a2.183 2.183 0 01-.81.141c-.409 0-.748-.086-1.018-.257a1.087 1.087 0 01-.503-.7H26.02c.09.753.436 1.322 1.037 1.706.6.384 1.339.576 2.214.576.834 0 1.531-.172 2.092-.515.56-.343.84-.83.84-1.46 0-.393-.115-.71-.343-.95a2.243 2.243 0 00-.902-.559c-.372-.13-.84-.254-1.405-.368a4.129 4.129 0 00-.319-.062c-.482-.097-.815-.183-1-.257-.184-.074-.276-.2-.276-.38 0-.197.105-.338.313-.424.209-.085.444-.128.706-.128.36 0 .674.071.945.214.27.144.445.354.527.632h1.742c-.09-.76-.422-1.32-.994-1.68-.572-.36-1.264-.54-2.073-.54a4.78 4.78 0 00-1.38.196c-.438.13-.794.341-1.067.632-.275.29-.412.66-.412 1.11.008.417.13.754.362 1.012.233.258.532.452.896.583.364.13.828.254 1.392.368l.356.074c.458.081.769.157.932.227.164.07.246.186.246.35 0 .212-.119.365-.356.46zm4.183-6.312v.7c0 .253-.065.445-.196.576-.13.13-.319.196-.564.196h-.76v1.546h1.385v2.662c0 1.366.785 2.049 2.356 2.049.458 0 .977-.054 1.558-.16v-1.534a6.982 6.982 0 01-1.3.124c-.328 0-.561-.062-.7-.185-.14-.122-.208-.33-.208-.625v-2.331h2.208v-1.546h-2.208V69.94h-1.57zm5.264 1.472v6.134h1.704v-3.202c0-.425.125-.779.375-1.06.249-.283.558-.424.926-.424.376 0 .676.129.901.386.225.258.342.6.35 1.025v3.275h1.706v-3.202c0-.425.124-.779.374-1.06a1.2 1.2 0 01.938-.424c.368 0 .666.129.896.386.228.258.343.6.343 1.025v3.275h1.718v-3.545c0-.54-.113-1.014-.338-1.423a2.357 2.357 0 00-.957-.95c-.413-.226-.89-.338-1.429-.338a2.67 2.67 0 00-1.165.257c-.36.172-.663.41-.908.712a2.201 2.201 0 00-.853-.718 2.664 2.664 0 00-1.172-.251 2.49 2.49 0 00-1.03.214 2.3 2.3 0 00-.822.62v-.712H39.54zm18.167 3.043c0-.605-.14-1.149-.423-1.632a2.972 2.972 0 00-1.166-1.128 3.389 3.389 0 00-1.65-.405 3.47 3.47 0 00-1.687.417 3.154 3.154 0 00-1.662 2.821c0 .613.141 1.158.423 1.632.283.475.677.845 1.184 1.11.507.266 1.088.399 1.742.399.54 0 1.029-.093 1.466-.276a2.94 2.94 0 001.062-.724 2.08 2.08 0 00.515-.975h-1.705a1.17 1.17 0 01-.522.429 1.85 1.85 0 01-.779.16c-.458 0-.842-.125-1.153-.375a1.556 1.556 0 01-.576-.938h4.894a3.64 3.64 0 00.037-.515zm-4.895-.601a1.51 1.51 0 01.595-.847 1.72 1.72 0 011.025-.319c.4 0 .742.104 1.024.313.282.209.472.493.57.853h-3.214zm6.306-2.442v6.134h1.706v-3.202c0-.425.139-.777.417-1.054.278-.279.63-.418 1.055-.418.4 0 .717.131.95.393.234.262.354.622.362 1.08v3.201h1.718v-3.472c0-.556-.112-1.044-.337-1.465a2.389 2.389 0 00-.945-.976c-.405-.229-.869-.343-1.392-.343-.401 0-.77.071-1.104.214a2.552 2.552 0 00-.871.608v-.7h-1.559zm8.649-1.472v.7c0 .253-.065.445-.196.576-.13.13-.32.196-.564.196h-.76v1.546h1.385v2.662c0 1.366.785 2.049 2.356 2.049.458 0 .977-.054 1.558-.16v-1.534a6.983 6.983 0 01-1.3.124c-.328 0-.561-.062-.7-.185-.14-.122-.209-.33-.209-.625v-2.331h2.209v-1.546h-2.209V69.94h-1.57zm8.526 3.153h-3.459v1.534h3.46v-1.534zm1.816-1.681V80h1.705v-3.03a2.617 2.617 0 001.791.7 2.977 2.977 0 002.668-1.558 3.325 3.325 0 00.399-1.633 3.32 3.32 0 00-.399-1.631 2.975 2.975 0 00-2.668-1.558 2.63 2.63 0 00-1.939.822v-.7H78.11zm2.116 1.914c.299-.31.673-.466 1.122-.466.45 0 .826.156 1.129.466.302.311.454.696.454 1.154 0 .458-.152.842-.454 1.153a1.51 1.51 0 01-1.129.466 1.49 1.49 0 01-1.122-.466c-.299-.311-.448-.695-.448-1.153 0-.459.15-.843.448-1.154zm7.097 3.927a3.562 3.562 0 001.717.417c.63 0 1.2-.14 1.712-.417.51-.279.914-.661 1.208-1.148a3.077 3.077 0 00.442-1.625 3.079 3.079 0 00-1.644-2.772 3.557 3.557 0 00-1.718-.418c-.63 0-1.202.14-1.717.417a3.083 3.083 0 00-1.644 2.773 3.08 3.08 0 001.644 2.773zm.552-3.939c.303-.302.691-.454 1.165-.454.466 0 .853.152 1.16.454.306.303.46.692.46 1.166s-.154.863-.46 1.165c-.307.303-.694.454-1.16.454-.466 0-.852-.151-1.159-.454-.306-.302-.46-.69-.46-1.165 0-.475.151-.863.454-1.166zm9.913-.037l1.128 4.27h2.11l1.558-6.134h-1.681l-1.08 4.318-1.128-4.318h-1.766l-1.141 4.355-1.105-4.355H92.99l1.559 6.133h2.11l1.129-4.269zm11.985 1.178c0-.605-.141-1.149-.424-1.632a2.975 2.975 0 00-1.165-1.128 3.39 3.39 0 00-1.65-.405 3.47 3.47 0 00-1.687.417 3.158 3.158 0 00-1.662 2.821c0 .613.141 1.158.423 1.632a2.91 2.91 0 001.184 1.11c.507.266 1.087.399 1.742.399a3.75 3.75 0 001.466-.276 2.944 2.944 0 001.061-.724c.27-.299.442-.624.515-.975h-1.705a1.17 1.17 0 01-.521.429c-.233.106-.493.16-.78.16-.458 0-.842-.125-1.153-.375a1.556 1.556 0 01-.576-.938h4.895c.024-.172.037-.343.037-.515zm-4.895-.601c.098-.352.296-.634.595-.847a1.717 1.717 0 011.024-.319c.401 0 .742.104 1.024.313.283.209.473.493.571.853h-3.214zm6.306-2.442v6.134h1.705v-3.312c0-.376.121-.695.362-.957.241-.261.538-.392.889-.392.303 0 .544.077.724.233.18.155.27.38.27.674v.246h1.705v-.418c0-.72-.213-1.288-.638-1.705-.425-.417-.973-.625-1.643-.625a2.42 2.42 0 00-1.013.214 2.264 2.264 0 00-.803.608v-.7h-1.558zm12.746 3.043c0-.605-.141-1.149-.423-1.632a2.975 2.975 0 00-1.165-1.128 3.394 3.394 0 00-1.651-.405c-.613 0-1.175.139-1.687.417a3.155 3.155 0 00-1.662 2.821c0 .613.141 1.158.423 1.632.282.475.677.845 1.184 1.11.507.266 1.088.399 1.742.399a3.75 3.75 0 001.466-.276 2.944 2.944 0 001.061-.724c.27-.299.442-.624.516-.975h-1.706c-.114.18-.288.323-.521.429a1.86 1.86 0 01-.778.16c-.459 0-.843-.125-1.154-.375a1.557 1.557 0 01-.577-.938h4.896c.024-.172.036-.343.036-.515zm-4.895-.601c.098-.352.296-.634.595-.847a1.72 1.72 0 011.025-.319c.4 0 .742.104 1.024.313.282.209.472.493.57.853h-3.214zm12.415 3.692v-8.71h-1.705v3.153a2.6 2.6 0 00-1.803-.7c-.581 0-1.103.14-1.565.418a2.98 2.98 0 00-1.091 1.14 3.322 3.322 0 00-.399 1.632c0 .606.133 1.15.399 1.632.265.482.629.862 1.091 1.141.462.278.984.417 1.565.417a2.68 2.68 0 001.073-.215c.331-.143.62-.345.865-.607v.7h1.57zm-2.122-1.913c-.303.31-.675.466-1.117.466-.45 0-.826-.156-1.128-.466a1.587 1.587 0 01-.454-1.154c0-.458.151-.842.454-1.153a1.51 1.51 0 011.128-.466 1.5 1.5 0 011.117.466c.302.311.454.695.454 1.153 0 .458-.152.843-.454 1.154zm7.2-4.22V80h1.706v-3.03a2.607 2.607 0 001.791.7 2.978 2.978 0 002.668-1.559 3.32 3.32 0 00.399-1.632c0-.605-.133-1.149-.399-1.63a2.976 2.976 0 00-2.668-1.56c-.385 0-.741.072-1.067.216a2.735 2.735 0 00-.872.607v-.7h-1.558zm2.117 1.913a1.49 1.49 0 011.122-.466c.45 0 .826.156 1.129.466.302.312.454.696.454 1.154 0 .458-.152.842-.454 1.153-.303.31-.679.466-1.129.466a1.49 1.49 0 01-1.122-.466c-.299-.31-.448-.695-.448-1.153 0-.458.149-.843.448-1.154zm7.611-4.49h-1.705v8.71h1.705v-8.71zm5.411 4.944c-.18.082-.482.139-.907.172-2.061.123-3.092.789-3.092 2 0 .531.188.952.565 1.263.375.31.891.466 1.545.466.474 0 .922-.08 1.344-.24a2.67 2.67 0 001.024-.656v.773l2.135-.012V76.05h-.712v-2.257c0-.76-.243-1.368-.729-1.822-.487-.454-1.14-.68-1.957-.68-.802 0-1.468.204-2 .613-.531.41-.846.957-.944 1.643h1.595c.065-.286.21-.506.435-.662.225-.155.505-.233.84-.233.327 0 .597.072.81.215.213.143.319.325.319.546-.001.164-.091.287-.271.368zm.344.92v.074c0 .278-.084.54-.252.785a1.822 1.822 0 01-.674.589c-.283.147-.583.22-.902.22-.254 0-.448-.05-.583-.153a.514.514 0 01-.203-.435c0-.23.113-.407.338-.534.225-.126.595-.21 1.11-.251.27-.025.514-.066.73-.123.217-.057.362-.115.436-.171zm3.679-3.287v6.133h1.706v-3.202c0-.425.139-.776.417-1.054.278-.279.63-.417 1.055-.417.401 0 .718.13.951.392.233.262.353.622.361 1.08v3.201h1.718v-3.471c0-.557-.113-1.045-.338-1.466a2.392 2.392 0 00-.944-.976 2.784 2.784 0 00-1.393-.343 2.77 2.77 0 00-1.104.215 2.565 2.565 0 00-.871.607v-.7h-1.558zm8.649-1.473v.7c0 .253-.065.445-.196.576-.13.13-.319.196-.564.196h-.76v1.546h1.386v2.662c0 1.366.785 2.049 2.355 2.049.458 0 .977-.054 1.558-.16v-1.534a6.978 6.978 0 01-1.3.124c-.327 0-.56-.062-.7-.185-.139-.122-.208-.33-.208-.625v-2.331h2.208v-1.546h-2.208V69.94h-1.571zm8.33 1.472v6.134h1.706v-3.202c0-.425.138-.777.417-1.054.278-.278.629-.418 1.054-.418.401 0 .718.131.951.393.234.262.355.622.362 1.08v3.201h1.718v-3.472c0-.556-.113-1.044-.338-1.465a2.393 2.393 0 00-.944-.976 2.783 2.783 0 00-1.393-.343 2.78 2.78 0 00-1.104.214 2.557 2.557 0 00-.871.608v-.7h-1.558zm14.182 6.134v-6.133h-1.706v3.201c0 .426-.139.777-.416 1.055-.279.279-.63.418-1.056.418-.4 0-.717-.133-.95-.399-.233-.266-.35-.623-.35-1.073l-.013-3.202h-1.717v3.472c0 .556.113 1.044.337 1.465.225.422.54.747.945.976.405.229.869.343 1.393.343.4 0 .768-.071 1.104-.214a2.56 2.56 0 00.871-.608v.7h1.558zm2.723-7.606v.7c0 .253-.066.445-.196.576-.131.13-.319.196-.564.196h-.761v1.546h1.386v2.662c0 1.366.785 2.049 2.356 2.049.457 0 .977-.054 1.558-.16v-1.534a6.996 6.996 0 01-1.301.124c-.327 0-.56-.062-.699-.185-.139-.122-.208-.33-.208-.625v-2.331h2.208v-1.546h-2.208V69.94h-1.571zm5.263 1.473v6.133h1.705v-3.312c0-.376.121-.695.362-.957.241-.261.538-.392.89-.392.302 0 .543.077.723.233.18.155.27.38.27.674v.246h1.705v-.417c0-.72-.212-1.288-.637-1.706-.426-.417-.974-.625-1.644-.625a2.4 2.4 0 00-1.012.215 2.266 2.266 0 00-.804.607v-.7h-1.558zm6.306-3.006l1.104 2.306h.122l1.104-2.306h-2.33zm2.012 3.006h-1.706v6.133h1.706v-6.133zm2.724-1.473v.7c0 .253-.066.445-.197.576-.13.13-.318.196-.564.196h-.76v1.546h1.386v2.662c0 1.366.785 2.049 2.355 2.049a8.73 8.73 0 001.558-.16v-1.534a6.978 6.978 0 01-1.3.124c-.327 0-.56-.062-.699-.185-.139-.122-.209-.33-.209-.625v-2.331h2.209v-1.546h-2.209V69.94h-1.57zm6.967 1.473h-1.705v6.133h1.705v-6.133zm-2.012-3.006l1.104 2.306h.122l1.105-2.306h-2.331zm5.128 8.846a3.566 3.566 0 001.718.417c.63 0 1.2-.14 1.711-.417a3.149 3.149 0 001.209-1.148 3.08 3.08 0 00.442-1.625c0-.597-.146-1.139-.436-1.626a3.077 3.077 0 00-1.208-1.147 3.56 3.56 0 00-1.718-.417c-.629 0-1.202.14-1.717.417-.516.279-.918.66-1.209 1.147a3.115 3.115 0 00-.435 1.626 3.085 3.085 0 001.643 2.773zm.552-3.939c.303-.302.691-.454 1.166-.454.466 0 .852.152 1.159.454.307.303.46.692.46 1.166s-.153.863-.46 1.165c-.307.303-.693.454-1.159.454-.466 0-.853-.151-1.159-.454-.307-.302-.46-.69-.46-1.165 0-.475.151-.863.453-1.166zm10.912-1.681c-.404-.229-.869-.343-1.393-.343-.4 0-.768.071-1.103.214a2.56 2.56 0 00-.872.608v-.7h-1.558v6.134h1.706v-3.202c0-.425.139-.777.417-1.054.278-.278.629-.418 1.054-.418.401 0 .719.131.951.393.234.262.355.622.363 1.08v3.201h1.717v-3.472c0-.556-.113-1.044-.338-1.465a2.38 2.38 0 00-.944-.976z" fill="#fff"/></svg>