<svg width="45" height="45" fill="none" xmlns="http://www.w3.org/2000/svg"><path fill-rule="evenodd" clip-rule="evenodd" d="M.736 22.146c0 12.194 9.886 22.079 22.081 22.079s22.081-9.885 22.081-22.08c0-12.193-9.886-22.079-22.08-22.079C10.621.066.735 9.952.735 22.146zm18.034 10.12l.375-5.629 10.239-9.24c.45-.398-.098-.593-.695-.231l-12.636 7.971-5.458-1.703c-1.18-.36-1.188-1.17.264-1.753l21.27-8.2c.971-.442 1.909.232 1.538 1.72l-3.622 17.067c-.253 1.213-.986 1.503-2.002.943l-5.517-4.077-2.652 2.58a5.813 5.813 0 00-.025.024c-.297.288-.543.527-1.08.527z" fill="#000"/></svg>