<svg width="26" height="32" fill="none" xmlns="http://www.w3.org/2000/svg"><path d="M22.108 13.058c.864-1.212 1.319-2.572 1.319-3.957C23.427 4.611 18.75.957 13 .957S2.573 4.61 2.573 9.1c0 1.385.454 2.745 1.32 3.957A11.948 11.948 0 001 20.852c0 4.2 2.243 8.15 5.852 10.307.083.05.178.076.274.076h.002l11.823-.046a.529.529 0 00.275-.078C22.842 28.913 25 25.078 25 20.852c0-2.865-1.024-5.614-2.892-7.793zm-3.31 17.067l-11.524.044a10.998 10.998 0 01-5.209-9.317c0-2.744 1.032-5.374 2.907-7.405a.532.532 0 00.024-.694c-.888-1.11-1.358-2.372-1.358-3.651 0-3.904 4.2-7.08 9.362-7.08s9.362 3.176 9.362 7.08c0 1.28-.47 2.542-1.358 3.65a.532.532 0 00.024.695 10.898 10.898 0 012.907 7.405c0 3.802-1.918 7.257-5.138 9.273z" fill="#FF5112" stroke="#FF5112"/><path d="M19.44 11.898a.532.532 0 00.445-.24c.532-.806.802-1.666.802-2.557 0-3.176-3.449-5.76-7.687-5.76s-7.687 2.584-7.688 5.76c0 .89.27 1.751.801 2.557a.533.533 0 00.744.148A10.88 10.88 0 0113 9.917c2.202 0 4.326.653 6.142 1.889a.54.54 0 00.3.092zm-12.7-1.284A3.405 3.405 0 016.377 9.1C6.378 6.512 9.35 4.406 13 4.406c3.651 0 6.621 2.106 6.621 4.695a3.4 3.4 0 01-.362 1.513 11.935 11.935 0 00-6.26-1.762c-2.224 0-4.376.607-6.26 1.761zm7.336 2.796a.533.533 0 100 1.065c3.219 0 5.838 2.649 5.838 5.905a.533.533 0 001.065 0c0-3.843-3.097-6.97-6.903-6.97z" fill="#FF5112"/></svg>