<svg width="46" height="45" fill="none" xmlns="http://www.w3.org/2000/svg"><g clip-path="url(#clip0_134_5947)"><path d="M23.07.066C10.893.066.987 9.971.987 22.146c0 3.801.983 7.54 2.845 10.838L1.024 43.006a.959.959 0 001.155 1.191l10.46-2.59a22.096 22.096 0 0010.43 2.618c12.176 0 22.081-9.905 22.081-22.08C45.15 9.972 35.245.067 23.07.067zm11.107 29.87c-.472 1.308-2.738 2.502-3.827 2.662-.977.143-2.213.204-3.571-.222a33.243 33.243 0 01-3.232-1.18c-5.686-2.425-9.4-8.078-9.683-8.451-.284-.374-2.315-3.035-2.315-5.789 0-2.754 1.464-4.109 1.984-4.67.52-.56 1.134-.7 1.512-.7.379 0 .756.005 1.087.02.349.018.816-.131 1.276.961.472 1.121 1.606 3.875 1.746 4.157.142.28.236.607.048.98-.188.374-.282.608-.566.935-.284.327-.595.73-.85.981-.285.28-.58.582-.25 1.142.33.561 1.469 2.394 3.154 3.878 2.165 1.906 3.992 2.497 4.559 2.778.566.28.897.233 1.228-.14.33-.375 1.417-1.635 1.794-2.195.377-.56.755-.467 1.276-.28.52.186 3.307 1.54 3.874 1.82.566.28.944.42 1.086.654.142.232.142 1.353-.33 2.66z" fill="#000"/></g><defs><clipPath id="clip0_134_5947"><path fill="#fff" transform="translate(.988 .066)" d="M0 0h44.162v44.159H0z"/></clipPath></defs></svg>