<svg width="35" height="35" viewBox="0 0 35 35" fill="none" xmlns="http://www.w3.org/2000/svg">
<path d="M27.708 10.2087H23.333V8.75033C23.333 7.20323 22.7184 5.7195 21.6245 4.62554C20.5305 3.53157 19.0468 2.91699 17.4997 2.91699C15.9526 2.91699 14.4688 3.53157 13.3749 4.62554C12.2809 5.7195 11.6663 7.20323 11.6663 8.75033V10.2087H7.29134C6.90457 10.2087 6.53363 10.3623 6.26014 10.6358C5.98665 10.9093 5.83301 11.2802 5.83301 11.667V27.7087C5.83301 28.869 6.29394 29.9818 7.11442 30.8022C7.93489 31.6227 9.04769 32.0837 10.208 32.0837H24.7913C25.9517 32.0837 27.0645 31.6227 27.8849 30.8022C28.7054 29.9818 29.1663 28.869 29.1663 27.7087V11.667C29.1663 11.2802 29.0127 10.9093 28.7392 10.6358C28.4657 10.3623 28.0948 10.2087 27.708 10.2087ZM14.583 8.75033C14.583 7.97678 14.8903 7.23491 15.4373 6.68793C15.9843 6.14095 16.7261 5.83366 17.4997 5.83366C18.2732 5.83366 19.0151 6.14095 19.5621 6.68793C20.109 7.23491 20.4163 7.97678 20.4163 8.75033V10.2087H14.583V8.75033ZM26.2497 27.7087C26.2497 28.0954 26.096 28.4664 25.8225 28.7399C25.549 29.0133 25.1781 29.167 24.7913 29.167H10.208C9.82123 29.167 9.4503 29.0133 9.17681 28.7399C8.90332 28.4664 8.74967 28.0954 8.74967 27.7087V13.1253H11.6663V14.5837C11.6663 14.9704 11.82 15.3414 12.0935 15.6149C12.367 15.8883 12.7379 16.042 13.1247 16.042C13.5114 16.042 13.8824 15.8883 14.1559 15.6149C14.4294 15.3414 14.583 14.9704 14.583 14.5837V13.1253H20.4163V14.5837C20.4163 14.9704 20.57 15.3414 20.8435 15.6149C21.117 15.8883 21.4879 16.042 21.8747 16.042C22.2614 16.042 22.6324 15.8883 22.9059 15.6149C23.1794 15.3414 23.333 14.9704 23.333 14.5837V13.1253H26.2497V27.7087Z" fill="black"/>
</svg>
