<svg width="70" height="70" viewBox="0 0 70 70" fill="none" xmlns="http://www.w3.org/2000/svg">
<g clip-path="url(#clip0_134_5540)">
<path fill-rule="evenodd" clip-rule="evenodd" d="M35 0C15.6701 0 0 15.6701 0 35C0 54.3299 15.6701 70 35 70C54.3299 70 70 54.3299 70 35C70 15.6701 54.3299 0 35 0ZM38.6482 36.5374V55.5793H30.7695V36.5381H26.8333V29.9762H30.7695V26.0365C30.7695 20.6833 32.992 17.5 39.3068 17.5H44.5639V24.0626H41.2778C38.8197 24.0626 38.6571 24.9796 38.6571 26.6911L38.6482 29.9755H44.6011L43.9044 36.5374H38.6482Z" fill="black"/>
</g>
<defs>
<clipPath id="clip0_134_5540">
<rect width="70" height="70" fill="white"/>
</clipPath>
</defs>
</svg>
