<svg width="1900" height="265" viewBox="0 0 1900 265" fill="none" xmlns="http://www.w3.org/2000/svg">
<path d="M999.569 0H949.043L868.346 111.006H797.855V0H752.604V264.304H797.855V153.298H867.968L948.665 264.304H1004.47L906.051 128.755L999.569 0Z" fill="#ECEFF6"/>
<path d="M1854.69 0V111.006H1683.45V0H1638.14V264.304H1683.45V153.298H1854.69V264.304H1900V0H1854.69Z" fill="#ECEFF6"/>
<path d="M700.064 81.9902L619.629 1.61871V0.99707H519.534V1.77943L518.803 1.04908L437.8 81.9902L437.902 82.092H437.77V264.304H483.072V177.544H655.327V264.304H700.631V82.092H699.964L700.064 81.9902ZM483.074 132.275V100.772L537.623 46.2659H600.246L655.329 101.306V132.275H483.074Z" fill="#ECEFF6"/>
<path d="M1230.65 0.0520648L1230.5 0.21057V0H1064.92V0.168037L1064.8 0.0520648L1017.13 47.9235L1017.4 48.1909H1016.47V216.109H1017.4L1017.13 216.383L1064.8 264.255L1064.92 264.139V264.304H1230.5V264.096L1230.65 264.252L1278.33 216.381L1278.06 216.106H1278.33V48.1885H1278.06L1278.33 47.9212L1230.65 0.0520648ZM1211.91 218.991H1083.55L1061.6 196.952V67.3598L1083.55 45.3183H1211.91L1233.2 66.6949V197.614L1211.91 218.991Z" fill="#ECEFF6"/>
<path d="M1585.16 104.894H1373.55V66.6326L1394.84 45.309H1582.29V0H1376.4V0.295735L1376.1 0L1328.31 47.8641L1328.4 47.954H1328.31V104.894H1328.3V150.203H1539.92V197.672L1518.63 218.995H1328.31V264.304H1537.07V264.009L1537.37 264.304L1585.17 216.44L1585.07 216.353H1585.17V142.059H1585.16V104.894Z" fill="#ECEFF6"/>
<path d="M389.227 81.9902L308.507 1.61871V0.99707H254.218V1.77943L253.485 1.04908L194.626 59.6537L136.341 1.61871V0.99707H82.0545V1.77943L81.3186 1.04908L0.0283989 81.9902L0.13533 82.092H0V264.304H45.4604V100.772L100.205 46.2659H116.882L172.166 101.304V264.304H217.627V100.772L272.369 46.2659H289.051L344.33 101.304V264.304H389.795V82.092H389.125L389.227 81.9902Z" fill="#ECEFF6"/>
</svg>
