<svg width="70" height="70" viewBox="0 0 70 70" fill="none" xmlns="http://www.w3.org/2000/svg">
<path fill-rule="evenodd" clip-rule="evenodd" d="M35 0C15.67 0 0 15.67 0 35C0 54.33 15.67 70 35 70C54.33 70 70 54.33 70 35C70 15.67 54.33 0 35 0ZM27.3035 16.4458C29.2946 16.3552 29.9308 16.333 35.0004 16.333H34.9946C40.0658 16.333 40.6997 16.3552 42.6908 16.4458C44.678 16.5368 46.0353 16.8514 47.2253 17.313C48.4542 17.7894 49.4925 18.4272 50.5309 19.4655C51.5692 20.5031 52.207 21.5446 52.6854 22.7723C53.1442 23.9592 53.4592 25.3157 53.5526 27.3029C53.642 29.294 53.6654 29.9303 53.6654 34.9999C53.6654 40.0695 53.642 40.7041 53.5526 42.6953C53.4592 44.6817 53.1442 46.0386 52.6854 47.2259C52.207 48.4532 51.5692 49.4947 50.5309 50.5322C49.4937 51.5706 48.4538 52.2099 47.2265 52.6867C46.0388 53.1483 44.6808 53.4629 42.6935 53.5539C40.7024 53.6445 40.0681 53.6667 34.9981 53.6667C29.9289 53.6667 29.2931 53.6445 27.3019 53.5539C25.3151 53.4629 23.9582 53.1483 22.7705 52.6867C21.5436 52.2099 20.5021 51.5706 19.465 50.5322C18.427 49.4947 17.7892 48.4532 17.312 47.2255C16.8508 46.0386 16.5362 44.6821 16.4448 42.6949C16.3546 40.7038 16.332 40.0695 16.332 34.9999C16.332 29.9303 16.3554 29.2936 16.4444 27.3025C16.5339 25.316 16.8489 23.9592 17.3117 22.7719C17.79 21.5446 18.4278 20.5031 19.4661 19.4655C20.5037 18.4276 21.5451 17.7898 22.7729 17.313C23.9598 16.8514 25.3162 16.5368 27.3035 16.4458Z" fill="black"/>
<path fill-rule="evenodd" clip-rule="evenodd" d="M33.3276 19.697C33.6527 19.6965 34.0025 19.6967 34.38 19.6969L35.0022 19.697C39.9862 19.697 40.5769 19.7149 42.5451 19.8044C44.3651 19.8876 45.3529 20.1917 46.0109 20.4472C46.8821 20.7856 47.5031 21.19 48.1561 21.8433C48.8094 22.4967 49.2139 23.1189 49.553 23.99C49.8085 24.6473 50.113 25.6351 50.1958 27.4551C50.2853 29.4229 50.3047 30.014 50.3047 34.9957C50.3047 39.9774 50.2853 40.5685 50.1958 42.5363C50.1126 44.3564 49.8085 45.3441 49.553 46.0014C49.2146 46.8725 48.8094 47.4928 48.1561 48.1457C47.5027 48.7991 46.8824 49.2035 46.0109 49.5419C45.3537 49.7985 44.3651 50.1019 42.5451 50.1851C40.5773 50.2745 39.9862 50.294 35.0022 50.294C30.0177 50.294 29.427 50.2745 27.4592 50.1851C25.6392 50.1011 24.6514 49.797 23.993 49.5415C23.1219 49.2031 22.4996 48.7987 21.8463 48.1453C21.193 47.492 20.7885 46.8713 20.4494 45.9998C20.1939 45.3426 19.8894 44.3548 19.8066 42.5348C19.7171 40.567 19.6992 39.9759 19.6992 34.991C19.6992 30.0062 19.7171 29.4182 19.8066 27.4504C19.8898 25.6304 20.1939 24.6426 20.4494 23.9846C20.7877 23.1135 21.193 22.4912 21.8463 21.8379C22.4996 21.1846 23.1219 20.7801 23.993 20.441C24.651 20.1843 25.6392 19.881 27.4592 19.7974C29.1812 19.7196 29.8485 19.6963 33.3276 19.6924V19.697ZM44.9666 22.7962C43.7299 22.7962 42.7266 23.7984 42.7266 25.0354C42.7266 26.2721 43.7299 27.2755 44.9666 27.2755C46.2033 27.2755 47.2066 26.2721 47.2066 25.0354C47.2066 23.7988 46.2033 22.7954 44.9666 22.7954V22.7962ZM25.4141 34.9998C25.4141 29.7058 29.7063 25.4136 35.0003 25.4136H34.9999C40.2939 25.4136 44.5849 29.7058 44.5849 34.9998C44.5849 40.2938 40.2943 44.5841 35.0003 44.5841C29.7063 44.5841 25.4141 40.2938 25.4141 34.9998Z" fill="black"/>
<path d="M35.0035 28.7773C38.4398 28.7773 41.2258 31.563 41.2258 34.9996C41.2258 38.4359 38.4398 41.2219 35.0035 41.2219C31.5669 41.2219 28.7812 38.4359 28.7812 34.9996C28.7812 31.563 31.5669 28.7773 35.0035 28.7773Z" fill="black"/>
</svg>
