<svg width="100" height="59" viewBox="0 0 100 59" fill="none" xmlns="http://www.w3.org/2000/svg">
<path d="M34.2685 38.2668H16.3847C15.0434 38.2668 14.1492 39.1626 14.1492 40.5063C14.1492 41.85 15.0434 42.7458 16.3847 42.7458H34.2685C35.6098 42.7458 36.504 41.85 36.504 40.5063C36.504 39.1626 35.6098 38.2668 34.2685 38.2668ZM27.5621 27.0693H9.67824C8.33695 27.0693 7.44276 27.9651 7.44276 29.3088C7.44276 30.6525 8.33695 31.5483 9.67824 31.5483H27.5621C28.9034 31.5483 29.7975 30.6525 29.7975 29.3088C29.7975 27.9651 28.9034 27.0693 27.5621 27.0693ZM20.8556 15.8718H2.97181C1.63052 15.8718 0.736328 16.7676 0.736328 18.1113C0.736328 19.455 1.63052 20.3508 2.97181 20.3508H20.8556C22.1969 20.3508 23.0911 19.455 23.0911 18.1113C23.0911 16.7676 22.1969 15.8718 20.8556 15.8718ZM89.7084 10.0491C88.8142 9.15331 87.4729 8.70542 86.5787 9.60122L62.8826 27.5172C60.6471 29.3088 57.0704 29.3088 54.8349 27.5172L30.6917 9.60122C29.7975 8.70542 28.4563 8.70541 27.5621 10.0491C27.115 10.9449 27.115 12.2886 28.0092 13.1844L51.7052 31.1004C53.4936 32.4441 56.1762 33.3399 58.4117 33.3399C60.6471 33.3399 63.3297 32.892 65.1181 31.1004L88.8142 13.1844C90.1555 12.2886 90.1555 10.9449 89.7084 10.0491ZM92.3909 0.195312H20.8556C19.5143 0.195312 18.6202 1.09111 18.6202 2.43481C18.6202 3.77851 19.5143 4.67431 20.8556 4.67431H92.3909C93.7322 4.67431 94.6264 5.57011 94.6264 6.91381V51.7038C94.6264 53.0475 93.7322 53.9433 92.3909 53.9433H20.8556C19.5143 53.9433 18.6202 54.8391 18.6202 56.1828C18.6202 57.5265 19.5143 58.4223 20.8556 58.4223H92.3909C95.9677 58.4223 99.0974 55.7349 99.0974 51.7038V6.91381C98.6503 2.88271 95.9677 0.195312 92.3909 0.195312ZM89.2613 45.4332L75.8484 31.9962C74.9542 31.1004 73.6129 31.1004 72.7187 31.9962C71.8245 32.892 71.8245 34.2357 72.7187 35.1315L86.1316 48.5685C86.5787 49.0164 87.0258 49.0164 87.4729 49.0164C87.92 49.0164 88.3671 48.5685 89.2613 48.5685C90.1555 47.6727 90.1555 46.329 89.2613 45.4332Z" fill="#FF5112"/>
</svg>
