<svg width="752" height="263" viewBox="0 0 752 263" fill="none" xmlns="http://www.w3.org/2000/svg">
<path d="M135.116 74.5082L158.01 51.6152L135.227 28.8328L112.333 51.7258L135.116 74.5082Z" fill="white"/>
<path d="M163.712 -5.64499e-05L140.817 22.8936L163.6 45.6753L186.494 22.7817L163.712 -5.64499e-05Z" fill="white"/>
<path d="M192.716 28.6969L169.822 51.5898L192.605 74.3723L215.499 51.4793L192.716 28.6969Z" fill="white"/>
<path d="M163.582 57.0566L140.688 79.9502L163.471 102.733L186.365 79.839L163.582 57.0566Z" fill="white"/>
<path d="M395.424 89.5732H375.412L343.45 133.481H315.53V89.5732H297.607V194.117H315.53V150.209H343.3L375.262 194.117H397.366L358.384 140.501L395.424 89.5732Z" fill="white"/>
<path d="M733.47 89.5732V133.481H665.73V89.5732H647.807V194.117H665.73V150.209H733.47V194.117H751.392V89.5732H733.47Z" fill="white"/>
<path d="M277.313 121.938L245.492 90.1182V89.8721H205.894V90.1818L205.605 89.8927L173.559 121.938L173.599 121.978H173.547V194.118H191.469V159.769H259.615V194.118H277.538V121.978H277.274L277.313 121.938ZM191.47 141.846V129.374L213.05 107.794H237.824L259.616 129.585V141.846H191.47Z" fill="white"/>
<path d="M486.747 89.6104L486.685 89.6731V89.5898H420.931V89.6563L420.885 89.6104L401.952 108.543L402.058 108.648H401.688V175.056H402.06L401.951 175.165L420.884 194.097L420.93 194.051V194.117H486.684V194.034L486.746 194.096L505.679 175.164L505.571 175.055H505.679V108.647H505.574L505.679 108.542L486.747 89.6104ZM479.303 176.196H428.33L419.611 167.48V116.229L428.33 107.512H479.303L487.757 115.966V167.742L479.303 176.196Z" fill="white"/>
<path d="M626.898 131.063H543.069V115.929L551.504 107.495H625.761V89.5732H544.198V89.6902L544.08 89.5732L525.147 108.505L525.183 108.541H525.147V131.063H525.146V148.984H608.975V167.76L600.542 176.194H525.147V194.116H607.847V193.999L607.965 194.116L626.899 175.184L626.862 175.149H626.899V145.763H626.898V131.063Z" fill="white"/>
<path d="M154.053 121.938L122.232 90.1182V89.8721H100.831V90.1818L100.542 89.8927L77.339 113.095L54.3626 90.1182V89.8721H32.9621V90.1818L32.672 89.8927L0.62643 121.938L0.668583 121.978H0.615234V194.118H18.5363V129.374L40.1174 107.794H46.6916L68.4851 129.585V194.118H86.4062V129.374L107.986 107.794H114.562L136.354 129.585V194.118H154.277V121.978H154.013L154.053 121.938Z" fill="white"/>
<path d="M0.115234 224.853H7.77686L4.14865 232.434H3.74436L0.115234 224.853ZM1.12406 234.733H6.72874V254.894H1.12406V234.733Z" fill="white"/>
<path d="M13.3418 234.731V254.893H18.9474V244.368C18.9474 242.971 19.4041 241.814 20.3184 240.901C21.2318 239.987 22.3885 239.53 23.7857 239.53C25.1033 239.53 26.1448 239.96 26.9113 240.821C27.6777 241.681 28.0745 242.864 28.1007 244.368V254.893H33.7466V243.481C33.7466 241.653 33.3769 240.047 32.6376 238.663C31.8983 237.279 30.8633 236.21 29.5326 235.457C28.2018 234.704 26.6764 234.328 24.9554 234.328C23.6387 234.328 22.4287 234.563 21.3272 235.034C20.2239 235.504 19.2693 236.17 18.4636 237.03V234.731H13.3418Z" fill="white"/>
<path d="M60.0401 234.732H53.99L48.506 249.975H48.1841L42.6992 234.732H36.5303L44.4333 254.894H52.095L60.0401 234.732Z" fill="white"/>
<path d="M83.0701 244.731C83.0701 242.742 82.6059 240.955 81.6785 239.368C80.7511 237.782 79.4737 236.545 77.8472 235.659C76.2208 234.772 74.4127 234.328 72.4232 234.328C70.4074 234.328 68.5582 234.785 66.8784 235.699C65.1986 236.613 63.8678 237.883 62.8871 239.51C61.9054 241.135 61.415 242.957 61.415 244.973C61.415 246.989 61.8783 248.778 62.8057 250.336C63.734 251.896 65.0302 253.112 66.6978 253.985C68.3636 254.859 70.2726 255.296 72.4232 255.296C74.1984 255.296 75.8043 254.992 77.2427 254.388C78.6801 253.783 79.8433 252.99 80.7305 252.009C81.6177 251.027 82.182 249.96 82.4244 248.803H76.8197C76.4425 249.394 75.8717 249.865 75.1053 250.213C74.3398 250.564 73.4853 250.739 72.5448 250.739C71.0391 250.739 69.7758 250.329 68.7538 249.509C67.7319 248.69 67.1011 247.66 66.8588 246.424H82.9484C83.028 245.859 83.0701 245.297 83.0701 244.731ZM66.9785 242.756C67.3014 241.601 67.9528 240.672 68.9344 239.973C69.9161 239.274 71.0381 238.925 72.3015 238.925C73.6191 238.925 74.7412 239.267 75.6686 239.953C76.597 240.638 77.2211 241.573 77.544 242.756H66.9785Z" fill="white"/>
<path d="M99.0334 250.641C98.2529 250.95 97.3658 251.104 96.371 251.104C95.0272 251.104 93.9117 250.821 93.0245 250.258C92.1373 249.693 91.5861 248.926 91.3709 247.96H85.6445C85.9403 250.433 87.0763 252.302 89.0519 253.564C91.0283 254.829 93.454 255.459 96.3307 255.459C99.0727 255.459 101.365 254.894 103.206 253.765C105.047 252.637 105.969 251.037 105.969 248.967C105.969 247.676 105.592 246.635 104.84 245.841C104.087 245.048 103.099 244.436 101.876 244.007C100.652 243.577 99.1139 243.173 97.2582 242.797C96.7743 242.69 96.4253 242.622 96.2101 242.595C94.6238 242.273 93.5289 241.99 92.9234 241.748C92.3189 241.506 92.0157 241.09 92.0157 240.498C92.0157 239.853 92.3591 239.389 93.0442 239.107C93.7301 238.825 94.5031 238.684 95.3631 238.684C96.546 238.684 97.581 238.92 98.4691 239.39C99.3554 239.86 99.9328 240.553 100.202 241.467H105.929C105.633 238.967 104.544 237.125 102.662 235.942C100.78 234.759 98.5084 234.168 95.8469 234.168C94.2598 234.168 92.7475 234.383 91.31 234.813C89.8717 235.243 88.7019 235.935 87.8026 236.89C86.9014 237.845 86.4512 239.06 86.4512 240.539C86.4774 241.91 86.8742 243.018 87.6406 243.866C88.4071 244.713 89.3878 245.352 90.5848 245.781C91.7807 246.212 93.3062 246.615 95.1619 246.99L96.3307 247.234C97.8365 247.502 98.8575 247.751 99.3956 247.979C99.9328 248.208 100.202 248.59 100.202 249.129C100.202 249.829 99.812 250.332 99.0334 250.641Z" fill="white"/>
<path d="M112.78 229.893V232.191C112.78 233.025 112.565 233.656 112.136 234.086C111.705 234.515 111.088 234.731 110.28 234.731H107.78V239.811H112.337V248.563C112.337 253.053 114.918 255.297 120.079 255.297C121.585 255.297 123.292 255.121 125.201 254.771V249.731C123.775 250 122.351 250.135 120.927 250.135C119.851 250.135 119.084 249.933 118.627 249.529C118.17 249.126 117.942 248.441 117.942 247.474V239.812H125.201V234.732H117.942V229.893H112.78Z" fill="white"/>
<path d="M130.085 234.731V254.893H135.69V244.368C135.69 242.971 136.099 241.808 136.92 240.881C137.739 239.953 138.754 239.49 139.964 239.49C141.201 239.49 142.188 239.913 142.927 240.76C143.668 241.607 144.05 242.729 144.077 244.127V254.893H149.683V244.368C149.683 242.971 150.093 241.808 150.913 240.881C151.732 239.953 152.76 239.49 153.997 239.49C155.207 239.49 156.188 239.913 156.941 240.76C157.694 241.607 158.071 242.729 158.071 244.127V254.893H163.716V243.24C163.716 241.465 163.346 239.906 162.607 238.562C161.867 237.218 160.818 236.177 159.461 235.437C158.104 234.698 156.538 234.328 154.764 234.328C153.393 234.328 152.115 234.61 150.933 235.174C149.749 235.739 148.755 236.519 147.949 237.514C147.223 236.491 146.288 235.706 145.146 235.154C144.003 234.603 142.72 234.328 141.294 234.328C140.085 234.328 138.956 234.563 137.907 235.034C136.859 235.504 135.958 236.183 135.206 237.071V234.731H130.085Z" fill="white"/>
<path d="M189.803 244.731C189.803 242.742 189.339 240.955 188.412 239.368C187.484 237.782 186.207 236.545 184.581 235.659C182.954 234.772 181.146 234.328 179.157 234.328C177.14 234.328 175.292 234.785 173.612 235.699C171.932 236.613 170.601 237.883 169.62 239.51C168.639 241.135 168.148 242.957 168.148 244.973C168.148 246.989 168.612 248.778 169.539 250.336C170.467 251.896 171.763 253.112 173.431 253.985C175.097 254.859 177.006 255.296 179.157 255.296C180.932 255.296 182.538 254.992 183.976 254.388C185.413 253.783 186.577 252.99 187.464 252.009C188.351 251.027 188.915 249.96 189.158 248.803H183.553C183.176 249.394 182.605 249.865 181.839 250.213C181.072 250.564 180.219 250.739 179.278 250.739C177.772 250.739 176.508 250.329 175.487 249.509C174.465 248.69 173.834 247.66 173.592 246.424H189.682C189.762 245.859 189.803 245.297 189.803 244.731ZM173.713 242.756C174.036 241.601 174.687 240.672 175.669 239.973C176.65 239.274 177.772 238.925 179.036 238.925C180.353 238.925 181.476 239.267 182.403 239.953C183.33 240.638 183.955 241.573 184.278 242.756H173.713Z" fill="white"/>
<path d="M194.438 234.731V254.893H200.044V244.368C200.044 242.971 200.501 241.814 201.415 240.901C202.328 239.987 203.485 239.53 204.882 239.53C206.2 239.53 207.242 239.96 208.008 240.821C208.774 241.681 209.171 242.864 209.197 244.368V254.893H214.843V243.481C214.843 241.653 214.474 240.047 213.734 238.663C212.995 237.279 211.96 236.21 210.629 235.457C209.298 234.704 207.773 234.328 206.052 234.328C204.735 234.328 203.525 234.563 202.424 235.034C201.321 235.504 200.366 236.17 199.56 237.03V234.731H194.438Z" fill="white"/>
<path d="M222.872 229.893V232.191C222.872 233.025 222.657 233.656 222.226 234.086C221.797 234.515 221.178 234.731 220.372 234.731H217.872V239.811H222.429V248.563C222.429 253.053 225.01 255.297 230.171 255.297C231.676 255.297 233.383 255.121 235.292 254.771V249.731C233.867 250 232.443 250.135 231.018 250.135C229.942 250.135 229.176 249.933 228.719 249.529C228.262 249.126 228.033 248.441 228.033 247.474V239.812H235.292V234.732H228.033V229.893H222.872Z" fill="white"/>
<path d="M250.897 240.257H239.525V245.298H250.897V240.257Z" fill="white"/>
<path d="M256.867 234.731V262.958H262.472V252.997C263.252 253.723 264.146 254.288 265.154 254.692C266.163 255.094 267.231 255.297 268.36 255.297C270.268 255.297 271.989 254.839 273.522 253.926C275.054 253.01 276.257 251.761 277.131 250.174C278.004 248.589 278.441 246.801 278.441 244.812C278.441 242.823 278.004 241.035 277.131 239.45C276.257 237.864 275.054 236.612 273.522 235.699C271.989 234.785 270.268 234.328 268.36 234.328C267.096 234.328 265.926 234.563 264.852 235.034C263.775 235.504 262.821 236.17 261.988 237.03V234.731H256.867ZM263.823 241.022C264.805 240.001 266.035 239.49 267.513 239.49C268.992 239.49 270.228 240.001 271.223 241.022C272.217 242.045 272.715 243.307 272.715 244.813C272.715 246.318 272.217 247.582 271.223 248.604C270.228 249.626 268.992 250.137 267.513 250.137C266.035 250.137 264.805 249.626 263.823 248.604C262.842 247.582 262.351 246.318 262.351 244.813C262.351 243.307 262.842 242.044 263.823 241.022Z" fill="white"/>
<path d="M287.149 253.93C288.842 254.842 290.723 255.3 292.794 255.3C294.864 255.3 296.74 254.842 298.42 253.93C300.099 253.013 301.424 251.758 302.392 250.157C303.36 248.559 303.844 246.778 303.844 244.815C303.844 242.852 303.366 241.072 302.412 239.472C301.457 237.872 300.134 236.616 298.44 235.702C296.746 234.788 294.864 234.331 292.794 234.331C290.723 234.331 288.842 234.788 287.149 235.702C285.456 236.617 284.131 237.872 283.176 239.472C282.222 241.072 281.745 242.852 281.745 244.815C281.745 246.778 282.222 248.559 283.176 250.157C284.131 251.757 285.456 253.013 287.149 253.93ZM288.963 240.985C289.958 239.99 291.235 239.492 292.794 239.492C294.326 239.492 295.596 239.989 296.605 240.985C297.613 241.979 298.117 243.256 298.117 244.815C298.117 246.374 297.613 247.652 296.605 248.646C295.596 249.641 294.326 250.139 292.794 250.139C291.262 250.139 289.993 249.641 288.984 248.646C287.976 247.652 287.471 246.374 287.471 244.815C287.471 243.256 287.968 241.978 288.963 240.985Z" fill="white"/>
<path d="M321.543 240.862L325.252 254.894H332.188L337.309 234.732H331.785L328.235 248.926L324.526 234.732H318.721L314.969 249.047L311.339 234.732H305.774L310.897 254.894H317.832L321.543 240.862Z" fill="white"/>
<path d="M360.942 244.731C360.942 242.742 360.479 240.955 359.551 239.368C358.623 237.782 357.346 236.545 355.72 235.659C354.093 234.772 352.286 234.328 350.296 234.328C348.28 234.328 346.431 234.785 344.751 235.699C343.072 236.613 341.741 237.883 340.759 239.51C339.777 241.135 339.288 242.957 339.288 244.973C339.288 246.989 339.751 248.778 340.679 250.336C341.606 251.896 342.902 253.112 344.57 253.985C346.237 254.859 348.145 255.296 350.296 255.296C352.071 255.296 353.676 254.992 355.116 254.388C356.553 253.783 357.716 252.99 358.604 252.009C359.491 251.027 360.055 249.96 360.297 248.803H354.692C354.315 249.394 353.744 249.865 352.978 250.213C352.212 250.564 351.358 250.739 350.417 250.739C348.911 250.739 347.648 250.329 346.627 249.509C345.605 248.69 344.973 247.66 344.732 246.424H360.821C360.902 245.859 360.942 245.297 360.942 244.731ZM344.852 242.756C345.175 241.601 345.826 240.672 346.808 239.973C347.789 239.274 348.911 238.925 350.175 238.925C351.492 238.925 352.615 239.267 353.543 239.953C354.47 240.639 355.095 241.573 355.417 242.756H344.852Z" fill="white"/>
<path d="M365.584 234.731V254.893H371.189V244.006C371.189 242.77 371.585 241.721 372.378 240.861C373.172 240.001 374.146 239.57 375.302 239.57C376.296 239.57 377.09 239.825 377.681 240.337C378.273 240.848 378.569 241.586 378.569 242.554V243.36H384.173V241.989C384.173 239.624 383.474 237.755 382.077 236.384C380.679 235.013 378.877 234.328 376.674 234.328C375.49 234.328 374.382 234.563 373.346 235.034C372.311 235.504 371.431 236.17 370.705 237.03V234.731H365.584Z" fill="white"/>
<path d="M407.476 244.731C407.476 242.742 407.012 240.955 406.086 239.368C405.158 237.782 403.881 236.545 402.254 235.659C400.626 234.772 398.819 234.328 396.829 234.328C394.815 234.328 392.965 234.785 391.285 235.699C389.605 236.613 388.274 237.883 387.292 239.51C386.311 241.135 385.82 242.957 385.82 244.973C385.82 246.989 386.284 248.778 387.212 250.336C388.138 251.896 389.436 253.112 391.103 253.985C392.769 254.859 394.678 255.296 396.828 255.296C398.603 255.296 400.209 254.992 401.647 254.388C403.084 253.783 404.248 252.99 405.135 252.009C406.023 251.027 406.588 249.96 406.83 248.803H401.224C400.849 249.394 400.277 249.865 399.511 250.213C398.746 250.564 397.892 250.739 396.952 250.739C395.446 250.739 394.181 250.329 393.161 249.509C392.138 248.69 391.506 247.66 391.265 246.424H407.356C407.436 245.859 407.476 245.297 407.476 244.731ZM391.386 242.756C391.708 241.601 392.359 240.672 393.341 239.973C394.323 239.274 395.445 238.925 396.709 238.925C398.024 238.925 399.149 239.267 400.077 239.953C401.004 240.638 401.628 241.573 401.951 242.756H391.386Z" fill="white"/>
<path d="M432.2 254.895V226.265H426.594V236.628C425.814 235.902 424.921 235.337 423.914 234.935C422.904 234.531 421.823 234.33 420.667 234.33C418.757 234.33 417.044 234.787 415.525 235.701C414.006 236.615 412.81 237.866 411.936 239.452C411.062 241.037 410.626 242.825 410.626 244.814C410.626 246.805 411.063 248.591 411.936 250.176C412.81 251.763 414.006 253.013 415.525 253.928C417.044 254.841 418.757 255.299 420.667 255.299C421.93 255.299 423.106 255.063 424.195 254.593C425.284 254.122 426.232 253.456 427.039 252.596V254.894H432.2V254.895ZM425.224 248.605C424.228 249.627 423.005 250.138 421.554 250.138C420.074 250.138 418.838 249.627 417.843 248.605C416.848 247.583 416.351 246.32 416.351 244.814C416.351 243.308 416.847 242.046 417.843 241.023C418.838 240.002 420.074 239.491 421.554 239.491C423.005 239.491 424.227 240.002 425.224 241.023C426.218 242.046 426.716 243.308 426.716 244.814C426.716 246.32 426.217 247.583 425.224 248.605Z" fill="white"/>
<path d="M448.89 234.731V262.958H454.494V252.997C455.275 253.723 456.168 254.288 457.177 254.692C458.184 255.094 459.252 255.297 460.382 255.297C462.292 255.297 464.012 254.839 465.545 253.926C467.076 253.01 468.28 251.761 469.152 250.174C470.027 248.589 470.463 246.801 470.463 244.812C470.463 242.823 470.026 241.035 469.152 239.45C468.279 237.864 467.076 236.612 465.545 235.699C464.012 234.785 462.292 234.328 460.382 234.328C459.119 234.328 457.948 234.563 456.874 235.034C455.8 235.504 454.843 236.17 454.01 237.03V234.731H448.89ZM455.846 241.022C456.826 240.001 458.056 239.49 459.536 239.49C461.013 239.49 462.25 240.001 463.245 241.022C464.239 242.045 464.738 243.307 464.738 244.813C464.738 246.318 464.239 247.582 463.245 248.604C462.25 249.626 461.013 250.137 459.536 250.137C458.056 250.137 456.825 249.626 455.846 248.604C454.864 247.582 454.375 246.318 454.375 244.813C454.375 243.307 454.865 242.044 455.846 241.022Z" fill="white"/>
<path d="M480.867 226.262H475.264V254.892H480.867V226.262Z" fill="white"/>
<path d="M498.656 242.514C498.065 242.783 497.07 242.97 495.673 243.078C488.898 243.482 485.511 245.672 485.511 249.651C485.511 251.399 486.128 252.783 487.366 253.804C488.601 254.826 490.296 255.337 492.447 255.337C494.005 255.337 495.477 255.075 496.863 254.55C498.247 254.026 499.369 253.307 500.23 252.392V254.933L507.247 254.892V249.973H504.908V242.553C504.908 240.052 504.108 238.056 502.509 236.565C500.91 235.073 498.765 234.328 496.077 234.328C493.443 234.328 491.251 234.999 489.505 236.343C487.757 237.689 486.722 239.488 486.4 241.745H491.643C491.857 240.805 492.335 240.08 493.074 239.569C493.812 239.058 494.733 238.803 495.836 238.803C496.911 238.803 497.798 239.039 498.497 239.509C499.196 239.979 499.546 240.577 499.546 241.303C499.544 241.842 499.247 242.246 498.656 242.514ZM499.785 245.539V245.78C499.785 246.696 499.51 247.555 498.959 248.361C498.406 249.167 497.668 249.813 496.741 250.297C495.813 250.78 494.825 251.022 493.777 251.022C492.943 251.022 492.306 250.853 491.861 250.518C491.417 250.182 491.195 249.705 491.195 249.087C491.195 248.334 491.566 247.749 492.306 247.333C493.044 246.917 494.262 246.641 495.954 246.506C496.842 246.425 497.642 246.291 498.354 246.103C499.064 245.915 499.544 245.726 499.785 245.539Z" fill="white"/>
<path d="M511.877 234.731V254.893H517.482V244.368C517.482 242.971 517.939 241.814 518.853 240.901C519.768 239.987 520.924 239.53 522.322 239.53C523.638 239.53 524.681 239.96 525.446 240.821C526.213 241.681 526.609 242.864 526.636 244.368V254.893H532.282V243.481C532.282 241.653 531.911 240.047 531.171 238.663C530.431 237.279 529.397 236.21 528.067 235.457C526.736 234.704 525.209 234.328 523.489 234.328C522.172 234.328 520.963 234.563 519.86 235.034C518.757 235.504 517.805 236.17 516.997 237.03V234.731H511.877Z" fill="white"/>
<path d="M540.304 229.893V232.191C540.304 233.025 540.09 233.656 539.659 234.086C539.23 234.515 538.611 234.731 537.805 234.731H535.305V239.811H539.861V248.563C539.861 253.053 542.442 255.297 547.603 255.297C549.108 255.297 550.816 255.121 552.725 254.771V249.731C551.3 250 549.875 250.135 548.451 250.135C547.375 250.135 546.609 249.933 546.152 249.529C545.694 249.126 545.467 248.441 545.467 247.474V239.812H552.726V234.732H545.467V229.893H540.304Z" fill="white"/>
<path d="M567.688 234.731V254.893H573.293V244.368C573.293 242.971 573.75 241.814 574.664 240.901C575.578 239.988 576.734 239.53 578.131 239.53C579.449 239.53 580.491 239.96 581.257 240.821C582.023 241.681 582.421 242.864 582.447 244.368V254.893H588.092V243.481C588.092 241.653 587.722 240.047 586.982 238.663C586.242 237.279 585.208 236.21 583.877 235.457C582.548 234.704 581.02 234.328 579.299 234.328C577.982 234.328 576.773 234.563 575.671 235.034C574.569 235.504 573.615 236.17 572.807 237.03V234.731H567.688Z" fill="white"/>
<path d="M614.298 254.894V234.732H608.693V245.256C608.693 246.654 608.236 247.81 607.323 248.724C606.407 249.639 605.252 250.096 603.854 250.096C602.537 250.096 601.495 249.658 600.729 248.786C599.963 247.912 599.579 246.737 599.579 245.257L599.538 234.733H593.893V246.145C593.893 247.973 594.263 249.579 595.002 250.963C595.741 252.347 596.777 253.416 598.107 254.169C599.438 254.921 600.964 255.298 602.685 255.298C604.001 255.298 605.211 255.063 606.314 254.593C607.415 254.122 608.37 253.456 609.177 252.596V254.894H614.298Z" fill="white"/>
<path d="M623.251 229.893V232.191C623.251 233.025 623.036 233.656 622.606 234.086C622.177 234.515 621.558 234.731 620.752 234.731H618.252V239.811H622.809V248.563C622.809 253.053 625.389 255.297 630.551 255.297C632.055 255.297 633.763 255.121 635.672 254.771V249.731C634.247 250 632.822 250.135 631.398 250.135C630.322 250.135 629.556 249.933 629.099 249.529C628.641 249.126 628.414 248.441 628.414 247.474V239.812H635.673V234.732H628.414V229.893H623.251Z" fill="white"/>
<path d="M640.554 234.731V254.893H646.158V244.006C646.158 242.77 646.555 241.721 647.348 240.861C648.14 240.001 649.115 239.57 650.271 239.57C651.266 239.57 652.059 239.825 652.65 240.337C653.242 240.848 653.537 241.586 653.537 242.554V243.36H659.142V241.989C659.142 239.624 658.443 237.755 657.046 236.384C655.648 235.013 653.845 234.328 651.643 234.328C650.458 234.328 649.35 234.563 648.315 235.034C647.28 235.504 646.399 236.17 645.674 237.03V234.731H640.554Z" fill="white"/>
<path d="M661.278 224.853L664.907 232.434H665.31L668.939 224.853H661.278Z" fill="white"/>
<path d="M667.898 234.732H662.292V254.894H667.898V234.732Z" fill="white"/>
<path d="M676.844 229.893V232.191C676.844 233.025 676.629 233.656 676.199 234.086C675.77 234.515 675.151 234.731 674.345 234.731H671.845V239.811H676.401V248.563C676.401 253.053 678.982 255.297 684.142 255.297C685.648 255.297 687.356 255.121 689.265 254.771V249.731C687.84 250 686.415 250.135 684.991 250.135C683.915 250.135 683.149 249.933 682.692 249.529C682.235 249.126 682.007 248.441 682.007 247.474V239.812H689.266V234.732H682.007V229.893H676.844Z" fill="white"/>
<path d="M699.755 234.732H694.149V254.894H699.755V234.732Z" fill="white"/>
<path d="M693.134 224.853L696.762 232.434H697.164L700.794 224.853H693.134Z" fill="white"/>
<path d="M709.99 253.93C711.685 254.842 713.566 255.3 715.636 255.3C717.705 255.3 719.582 254.842 721.261 253.93C722.94 253.013 724.266 251.758 725.234 250.157C726.201 248.559 726.686 246.778 726.686 244.815C726.686 242.852 726.207 241.072 725.255 239.472C724.299 237.872 722.975 236.616 721.282 235.702C719.588 234.788 717.706 234.331 715.637 234.331C713.567 234.331 711.685 234.788 709.991 235.702C708.298 236.617 706.973 237.872 706.02 239.472C705.065 241.072 704.588 242.852 704.588 244.815C704.588 246.778 705.066 248.559 706.02 250.157C706.972 251.757 708.297 253.013 709.99 253.93ZM711.804 240.985C712.799 239.99 714.076 239.492 715.636 239.492C717.168 239.492 718.438 239.989 719.447 240.985C720.455 241.979 720.958 243.256 720.958 244.815C720.958 246.374 720.455 247.652 719.447 248.646C718.438 249.641 717.167 250.139 715.636 250.139C714.103 250.139 712.833 249.641 711.826 248.646C710.818 247.652 710.314 246.374 710.314 244.815C710.314 243.256 710.811 241.978 711.804 240.985Z" fill="white"/>
<path d="M747.679 235.457C746.349 234.704 744.822 234.328 743.101 234.328C741.785 234.328 740.575 234.563 739.473 235.034C738.37 235.504 737.417 236.17 736.609 237.03V234.731H731.487V254.893H737.093V244.368C737.093 242.971 737.55 241.814 738.464 240.901C739.378 239.988 740.534 239.53 741.931 239.53C743.249 239.53 744.291 239.96 745.057 240.821C745.823 241.681 746.221 242.864 746.247 244.368V254.893H751.892V243.481C751.892 241.653 751.521 240.047 750.782 238.663C750.045 237.279 749.01 236.21 747.679 235.457Z" fill="white"/>
</svg>
