<svg width="229" height="80" viewBox="0 0 229 80" fill="none" xmlns="http://www.w3.org/2000/svg">
<path d="M41.0694 22.6682L48.0342 15.7034L41.103 8.77222L34.1382 15.737L41.0694 22.6682Z" fill="#FF5112"/>
<path d="M49.7699 -1.16785e-05L42.8049 6.96497L49.7359 13.8959L56.7009 6.93094L49.7699 -1.16785e-05Z" fill="#FF5112"/>
<path d="M58.5928 8.73067L51.6281 15.6954L58.5592 22.6266L65.524 15.6618L58.5928 8.73067Z" fill="#FF5112"/>
<path d="M49.7296 17.3585L42.7646 24.3235L49.6958 31.2546L56.6608 24.2897L49.7296 17.3585Z" fill="#FF5112"/>
<path d="M120.261 27.2511H114.173L104.449 40.6092H95.9556V27.2511H90.5031V59.0567H95.9556V45.6985H104.404L114.127 59.0567H120.852L108.993 42.745L120.261 27.2511Z" fill="white"/>
<path d="M223.103 27.2511V40.6092H202.495V27.2511H197.042V59.0567H202.495V45.6985H223.103V59.0567H228.555V27.2511H223.103Z" fill="white"/>
<path d="M84.3298 37.0972L74.6492 27.4166V27.3417H62.6024V27.4359L62.5144 27.3479L52.7654 37.0972L52.7777 37.1095H52.7617V59.0567H58.214V48.6065H78.9456V59.0567H84.3982V37.1095H84.3179L84.3298 37.0972ZM58.2143 43.1539V39.3594L64.7795 32.7943H72.3163L78.9459 39.4238V43.1539H58.2143Z" fill="white"/>
<path d="M148.044 27.2621L148.025 27.2812V27.2559H128.021V27.2761L128.007 27.2621L122.247 33.0219L122.279 33.0541H122.167V53.2575H122.28L122.247 53.2906L128.007 59.0503L128.021 59.0364V59.0563H148.025V59.0312L148.043 59.05L153.803 53.2903L153.77 53.2572H153.803V33.0538H153.771L153.803 33.0216L148.044 27.2621ZM145.779 53.6043H130.272L127.62 50.9526V35.3604L130.272 32.7084H145.779L148.351 35.2804V51.0323L145.779 53.6043Z" fill="white"/>
<path d="M190.682 39.8739H165.18V35.2697L167.746 32.7038H190.336V27.2515H165.523V27.2871L165.487 27.2515L159.727 33.0112L159.738 33.022H159.727V39.8739H159.727V45.3262H185.23V51.0384L182.664 53.6044H159.727V59.0567H184.886V59.0211L184.922 59.0567L190.682 53.297L190.671 53.2864H190.682V44.3463H190.682V39.8739Z" fill="white"/>
<path d="M46.8318 37.0971L37.1511 27.4164V27.3416H30.6403V27.4358L30.5523 27.3478L23.4935 34.4067L16.5035 27.4164V27.3416H9.993V27.4358L9.90475 27.3478L0.15575 37.0971L0.168574 37.1093H0.152344V59.0566H5.60434V39.3593L12.1698 32.7941H14.1698L20.7999 39.4234V59.0566H26.2519V39.3593L32.8171 32.7941H34.8177L41.4472 39.4234V59.0566H46.8998V37.1093H46.8195L46.8318 37.0971Z" fill="white"/>
<path d="M0 68.4067H2.33084L1.22706 70.7134H1.10406L0 68.4067ZM0.306908 71.4126H2.01198V77.5465H0.306908V71.4126Z" fill="white"/>
<path d="M4.02368 71.4126V77.5465H5.72903V74.3445C5.72903 73.9194 5.86797 73.5675 6.14613 73.2896C6.42399 73.0115 6.77589 72.8726 7.20094 72.8726C7.6018 72.8726 7.91866 73.0032 8.15183 73.2652C8.385 73.5268 8.50571 73.887 8.51369 74.3445V77.5465H10.2313V74.0746C10.2313 73.5183 10.1188 73.0297 9.89392 72.6087C9.66901 72.1876 9.35413 71.8624 8.94929 71.6333C8.54444 71.4044 8.08038 71.2899 7.55682 71.2899C7.15625 71.2899 6.78813 71.3614 6.45303 71.5046C6.11737 71.6478 5.82698 71.8502 5.58185 72.1119V71.4126H4.02368Z" fill="white"/>
<path d="M18.2306 71.4126H16.39L14.7217 76.0498H14.6237L12.9551 71.4126H11.0784L13.4827 77.5465H15.8135L18.2306 71.4126Z" fill="white"/>
<path d="M25.2357 74.4548C25.2357 73.8495 25.0945 73.306 24.8123 72.8232C24.5302 72.3406 24.1416 71.9642 23.6468 71.6946C23.152 71.4247 22.6019 71.2898 21.9966 71.2898C21.3834 71.2898 20.8208 71.4287 20.3098 71.7069C19.7988 71.985 19.3939 72.3714 19.0955 72.8662C18.7969 73.3607 18.6477 73.915 18.6477 74.5283C18.6477 75.1415 18.7886 75.6859 19.0708 76.1599C19.3532 76.6345 19.7475 77.0046 20.2548 77.2702C20.7616 77.5358 21.3424 77.6688 21.9966 77.6688C22.5367 77.6688 23.0253 77.5765 23.4628 77.3926C23.9001 77.2087 24.254 76.9673 24.5239 76.6689C24.7938 76.3703 24.9655 76.0454 25.0392 75.6935H23.3342C23.2194 75.8735 23.0458 76.0167 22.8126 76.1226C22.5797 76.2293 22.3198 76.2826 22.0336 76.2826C21.5756 76.2826 21.1912 76.1579 20.8803 75.9082C20.5694 75.6591 20.3775 75.3459 20.3038 74.9698H25.1987C25.2229 74.7979 25.2357 74.6268 25.2357 74.4548ZM20.3402 73.8538C20.4385 73.5025 20.6366 73.2198 20.9353 73.0071C21.2339 72.7944 21.5753 72.6882 21.9596 72.6882C22.3605 72.6882 22.7018 72.7924 22.984 73.0011C23.2664 73.2095 23.4563 73.4939 23.5545 73.8538H20.3402Z" fill="white"/>
<path d="M30.0932 76.2523C29.8558 76.3462 29.5859 76.3932 29.2833 76.3932C28.8744 76.3932 28.5351 76.3072 28.2652 76.1358C27.9953 75.9639 27.8276 75.7307 27.7621 75.4366H26.02C26.11 76.1891 26.4556 76.7576 27.0566 77.1417C27.6579 77.5263 28.3958 77.7182 29.271 77.7182C30.1052 77.7182 30.8024 77.5462 31.3627 77.2029C31.9227 76.8596 32.2031 76.3727 32.2031 75.743C32.2031 75.3504 32.0884 75.0335 31.8598 74.7921C31.6306 74.5509 31.33 74.3647 30.9579 74.2341C30.5858 74.1034 30.1177 73.9804 29.5532 73.8659C29.406 73.8335 29.2998 73.8127 29.2343 73.8044C28.7517 73.7065 28.4186 73.6205 28.2344 73.5468C28.0505 73.4733 27.9583 73.3466 27.9583 73.1664C27.9583 72.9703 28.0628 72.8291 28.2712 72.7434C28.4798 72.6577 28.715 72.6147 28.9766 72.6147C29.3365 72.6147 29.6514 72.6864 29.9216 72.8293C30.1912 72.9725 30.3668 73.1832 30.4488 73.4614H32.1909C32.1009 72.7007 31.7695 72.1404 31.197 71.7805C30.6245 71.4207 29.9335 71.2407 29.1238 71.2407C28.641 71.2407 28.1809 71.3062 27.7436 71.4369C27.306 71.5678 26.9501 71.7782 26.6765 72.0689C26.4024 72.3593 26.2654 72.7291 26.2654 73.179C26.2734 73.596 26.3941 73.9331 26.6273 74.1911C26.8605 74.4487 27.1588 74.6432 27.5229 74.7738C27.8868 74.9048 28.3509 75.0275 28.9154 75.1417L29.271 75.2157C29.7291 75.2974 30.0397 75.3731 30.2034 75.4426C30.3668 75.5121 30.4488 75.6285 30.4488 75.7922C30.4488 76.0052 30.3301 76.1583 30.0932 76.2523Z" fill="white"/>
<path d="M34.2763 69.9402V70.6394C34.2763 70.8931 34.2108 71.0853 34.0801 71.2159C33.9492 71.3466 33.7613 71.4121 33.5156 71.4121H32.7551V72.9577H34.1413V75.6202C34.1413 76.9862 34.9265 77.6689 36.4967 77.6689C36.9547 77.6689 37.474 77.6154 38.0548 77.5089V75.9755C37.6212 76.0575 37.1879 76.0985 36.7546 76.0985C36.4272 76.0985 36.194 76.037 36.0551 75.9143C35.9159 75.7916 35.8467 75.5832 35.8467 75.2891V72.958H38.0548V71.4124H35.8467V69.9402H34.2763Z" fill="white"/>
<path d="M39.5393 71.4125V77.5464H41.2444V74.3443C41.2444 73.9193 41.3691 73.5654 41.6187 73.2833C41.8679 73.0011 42.1768 72.8602 42.5446 72.8602C42.921 72.8602 43.2213 72.9889 43.4462 73.2465C43.6714 73.5042 43.7879 73.8455 43.7961 74.2709V77.5464H45.5015V74.3443C45.5015 73.9193 45.6262 73.5654 45.8756 73.2833C46.125 73.0011 46.4376 72.8602 46.814 72.8602C47.1821 72.8602 47.4804 72.9889 47.7096 73.2465C47.9385 73.5042 48.0533 73.8455 48.0533 74.2709V77.5464H49.7706V74.001C49.7706 73.4612 49.6581 72.9869 49.4332 72.5778C49.2083 72.1689 48.8891 71.8524 48.4763 71.6272C48.0632 71.4023 47.5869 71.2898 47.0471 71.2898C46.63 71.2898 46.2414 71.3755 45.8818 71.5472C45.5217 71.7191 45.2191 71.9563 44.9739 72.2589C44.753 71.9477 44.4686 71.7089 44.1213 71.5412C43.7734 71.3735 43.383 71.2898 42.9494 71.2898C42.5816 71.2898 42.238 71.3613 41.9191 71.5045C41.6002 71.6477 41.3261 71.8541 41.0972 72.1243V71.4125H39.5393Z" fill="white"/>
<path d="M57.7073 74.4548C57.7073 73.8495 57.5661 73.306 57.284 72.8232C57.0018 72.3406 56.6132 71.9642 56.1184 71.6946C55.6236 71.4247 55.0736 71.2898 54.4683 71.2898C53.8548 71.2898 53.2925 71.4287 52.7815 71.7069C52.2704 71.985 51.8656 72.3714 51.5669 72.8662C51.2686 73.3607 51.1194 73.915 51.1194 74.5283C51.1194 75.1415 51.2603 75.6859 51.5424 76.1599C51.8249 76.6345 52.2192 77.0046 52.7265 77.2702C53.2333 77.5358 53.8141 77.6688 54.4683 77.6688C55.0084 77.6688 55.4969 77.5765 55.9345 77.3926C56.3718 77.2087 56.7257 76.9673 56.9956 76.6689C57.2655 76.3703 57.4372 76.0454 57.5109 75.6935H55.8058C55.6911 75.8735 55.5174 76.0167 55.2843 76.1226C55.0511 76.2293 54.7914 76.2826 54.5053 76.2826C54.0472 76.2826 53.6626 76.1579 53.352 75.9082C53.0411 75.6591 52.8492 75.3459 52.7755 74.9698H57.6703C57.6948 74.7979 57.7073 74.6268 57.7073 74.4548ZM52.8122 73.8538C52.9104 73.5025 53.1086 73.2198 53.4072 73.0071C53.7059 72.7944 54.0472 72.6882 54.4316 72.6882C54.8324 72.6882 55.1738 72.7924 55.4559 73.0011C55.7381 73.2095 55.9282 73.4939 56.0265 73.8538H52.8122Z" fill="white"/>
<path d="M59.1184 71.4125V77.5464H60.8238V74.3443C60.8238 73.9193 60.9627 73.5674 61.2408 73.2895C61.5187 73.0114 61.8706 72.8724 62.2957 72.8724C62.6965 72.8724 63.0134 73.0031 63.2466 73.265C63.4797 73.5267 63.6004 73.8868 63.6084 74.3443V77.5464H65.326V74.0744C65.326 73.5181 65.2135 73.0296 64.9886 72.6085C64.7637 72.1875 64.4488 71.8623 64.044 71.6331C63.6392 71.4042 63.1751 71.2898 62.6515 71.2898C62.251 71.2898 61.8828 71.3613 61.5477 71.5045C61.2121 71.6477 60.9217 71.8501 60.6766 72.1117V71.4125H59.1184Z" fill="white"/>
<path d="M67.7673 69.9402V70.6394C67.7673 70.8931 67.7018 71.0853 67.5708 71.2159C67.4401 71.3466 67.2519 71.4121 67.0065 71.4121H66.2461V72.9577H67.6323V75.6202C67.6323 76.9862 68.4175 77.6689 69.9876 77.6689C70.4457 77.6689 70.965 77.6154 71.5458 77.5089V75.9755C71.1122 76.0575 70.6789 76.0985 70.2453 76.0985C69.9182 76.0985 69.685 76.037 69.5461 75.9143C69.4068 75.7916 69.3374 75.5832 69.3374 75.2891V72.958H71.5458V71.4124H69.3374V69.9402H67.7673Z" fill="white"/>
<path d="M76.2935 73.0934H72.8341V74.6271H76.2935V73.0934Z" fill="white"/>
<path d="M78.1086 71.4125V79.9999H79.8137V76.9696C80.0512 77.1905 80.3231 77.3622 80.6297 77.4852C80.9366 77.6076 81.2614 77.6691 81.605 77.6691C82.1855 77.6691 82.7091 77.5299 83.1754 77.252C83.6415 76.9736 84.0073 76.5935 84.2733 76.1106C84.5389 75.6283 84.6718 75.0846 84.6718 74.4793C84.6718 73.8743 84.5389 73.3302 84.2733 72.848C84.0073 72.3654 83.6415 71.9848 83.1754 71.7069C82.7091 71.4287 82.1855 71.2898 81.605 71.2898C81.2204 71.2898 80.8646 71.3613 80.5377 71.5045C80.2103 71.6477 79.9199 71.8501 79.6665 72.1117V71.4125H78.1086ZM80.2248 73.3263C80.5235 73.0157 80.8976 72.8602 81.3474 72.8602C81.7972 72.8602 82.1733 73.0157 82.4759 73.3263C82.7783 73.6374 82.93 74.0215 82.93 74.4796C82.93 74.9377 82.7783 75.322 82.4759 75.6329C82.1733 75.9438 81.7972 76.0992 81.3474 76.0992C80.8976 76.0992 80.5235 75.9438 80.2248 75.6329C79.9262 75.322 79.777 74.9377 79.777 74.4796C79.777 74.0215 79.9262 73.6372 80.2248 73.3263Z" fill="white"/>
<path d="M87.3219 77.2528C87.8372 77.5304 88.4094 77.6696 89.0394 77.6696C89.6692 77.6696 90.2397 77.5304 90.7508 77.2528C91.2618 76.9741 91.6647 76.592 91.9593 76.1051C92.2537 75.6189 92.4009 75.0771 92.4009 74.4798C92.4009 73.8828 92.2557 73.341 91.9653 72.8544C91.6749 72.3676 91.2723 71.9855 90.757 71.7074C90.2417 71.4292 89.6692 71.2903 89.0394 71.2903C88.4094 71.2903 87.8372 71.4292 87.3219 71.7074C86.8068 71.9858 86.4037 72.3676 86.1133 72.8544C85.8229 73.341 85.678 73.8828 85.678 74.4798C85.678 75.0771 85.8229 75.6189 86.1133 76.1051C86.4037 76.5917 86.8068 76.9741 87.3219 77.2528ZM87.8739 73.3145C88.1765 73.0119 88.5651 72.8604 89.0394 72.8604C89.5055 72.8604 89.8918 73.0116 90.1987 73.3145C90.5054 73.6172 90.6588 74.0055 90.6588 74.4798C90.6588 74.9541 90.5054 75.343 90.1987 75.6453C89.8918 75.948 89.5055 76.0994 89.0394 76.0994C88.5734 76.0994 88.1871 75.948 87.8801 75.6453C87.5735 75.343 87.4201 74.9541 87.4201 74.4798C87.4201 74.0055 87.5712 73.6169 87.8739 73.3145Z" fill="white"/>
<path d="M97.7866 73.2774L98.9148 77.5465H101.025L102.583 71.4126H100.902L99.8225 75.7306L98.6942 71.4126H96.9279L95.7866 75.7677L94.6822 71.4126H92.9894L94.5478 77.5465H96.6574L97.7866 73.2774Z" fill="white"/>
<path d="M109.772 74.4548C109.772 73.8495 109.631 73.306 109.348 72.8232C109.066 72.3406 108.677 71.9642 108.183 71.6946C107.688 71.4247 107.138 71.2898 106.533 71.2898C105.919 71.2898 105.357 71.4287 104.846 71.7069C104.335 71.985 103.93 72.3714 103.631 72.8662C103.333 73.3607 103.184 73.915 103.184 74.5283C103.184 75.1415 103.325 75.6859 103.607 76.1599C103.889 76.6345 104.283 77.0046 104.791 77.2702C105.298 77.5358 105.878 77.6688 106.533 77.6688C107.073 77.6688 107.561 77.5765 107.999 77.3926C108.436 77.2087 108.79 76.9673 109.06 76.6689C109.33 76.3703 109.502 76.0454 109.575 75.6935H107.87C107.755 75.8735 107.582 76.0167 107.349 76.1226C107.116 76.2293 106.856 76.2826 106.569 76.2826C106.111 76.2826 105.727 76.1579 105.416 75.9082C105.106 75.6591 104.913 75.3459 104.84 74.9698H109.735C109.759 74.7979 109.772 74.6268 109.772 74.4548ZM104.877 73.8538C104.975 73.5025 105.173 73.2198 105.472 73.0071C105.77 72.7944 106.111 72.6882 106.496 72.6882C106.897 72.6882 107.238 72.7924 107.52 73.0011C107.803 73.2098 107.993 73.4939 108.091 73.8538H104.877Z" fill="white"/>
<path d="M111.183 71.4125V77.5464H112.888V74.2342C112.888 73.8581 113.009 73.5389 113.25 73.2773C113.491 73.0157 113.788 72.8847 114.139 72.8847C114.442 72.8847 114.683 72.9621 114.863 73.1179C115.043 73.2733 115.133 73.4979 115.133 73.7923V74.0377H116.838V73.6203C116.838 72.9009 116.625 72.3324 116.2 71.9153C115.775 71.4982 115.227 71.2898 114.557 71.2898C114.196 71.2898 113.859 71.3613 113.544 71.5045C113.229 71.6477 112.962 71.8501 112.741 72.1117V71.4125H111.183Z" fill="white"/>
<path d="M123.929 74.4548C123.929 73.8495 123.788 73.306 123.506 72.8232C123.224 72.3406 122.835 71.9642 122.341 71.6946C121.845 71.4247 121.296 71.2898 120.69 71.2898C120.077 71.2898 119.515 71.4287 119.003 71.7069C118.492 71.985 118.088 72.3714 117.789 72.8662C117.49 73.3607 117.341 73.915 117.341 74.5283C117.341 75.1415 117.482 75.6859 117.764 76.1599C118.046 76.6345 118.441 77.0046 118.948 77.2702C119.455 77.5358 120.036 77.6688 120.69 77.6688C121.23 77.6688 121.718 77.5765 122.156 77.3926C122.593 77.2087 122.947 76.9673 123.217 76.6689C123.487 76.3703 123.659 76.0454 123.733 75.6935H122.027C121.913 75.8735 121.739 76.0167 121.506 76.1226C121.273 76.2293 121.013 76.2826 120.728 76.2826C120.269 76.2826 119.885 76.1579 119.574 75.9082C119.263 75.6591 119.071 75.3459 118.997 74.9698H123.893C123.917 74.7979 123.929 74.6268 123.929 74.4548ZM119.034 73.8538C119.132 73.5025 119.33 73.2198 119.629 73.0071C119.928 72.7944 120.269 72.6882 120.654 72.6882C121.054 72.6882 121.396 72.7924 121.678 73.0011C121.96 73.2095 122.15 73.4939 122.248 73.8538H119.034Z" fill="white"/>
<path d="M131.449 77.5463V68.8359H129.744V71.9887C129.507 71.7681 129.235 71.5961 128.928 71.4737C128.621 71.3507 128.292 71.2898 127.941 71.2898C127.36 71.2898 126.838 71.4287 126.376 71.7069C125.914 71.9847 125.55 72.3654 125.285 72.8479C125.019 73.3302 124.886 73.8743 124.886 74.4793C124.886 75.0848 125.019 75.6283 125.285 76.1106C125.55 76.5934 125.914 76.9735 126.376 77.252C126.838 77.5298 127.36 77.669 127.941 77.669C128.325 77.669 128.683 77.5973 129.014 77.4544C129.345 77.3112 129.634 77.1085 129.879 76.8468V77.5461H131.449V77.5463ZM129.327 75.6326C129.024 75.9435 128.652 76.0989 128.21 76.0989C127.76 76.0989 127.384 75.9435 127.082 75.6326C126.779 75.3217 126.628 74.9374 126.628 74.4793C126.628 74.0212 126.779 73.6371 127.082 73.3259C127.384 73.0153 127.76 72.8599 128.21 72.8599C128.652 72.8599 129.024 73.0153 129.327 73.3259C129.629 73.6371 129.781 74.0212 129.781 74.4793C129.781 74.9374 129.629 75.3217 129.327 75.6326Z" fill="white"/>
<path d="M136.527 71.4126V80H138.233V76.9697C138.47 77.1906 138.742 77.3623 139.049 77.4853C139.355 77.6077 139.68 77.6692 140.024 77.6692C140.605 77.6692 141.128 77.53 141.594 77.2521C142.06 76.9737 142.426 76.5936 142.692 76.1107C142.958 75.6285 143.091 75.0847 143.091 74.4794C143.091 73.8744 142.958 73.3304 142.692 72.8481C142.426 72.3655 142.06 71.9849 141.594 71.707C141.128 71.4289 140.605 71.2899 140.024 71.2899C139.639 71.2899 139.283 71.3614 138.957 71.5046C138.63 71.6478 138.339 71.8502 138.085 72.1119V71.4126H136.527ZM138.644 73.3264C138.942 73.0158 139.316 72.8603 139.766 72.8603C140.216 72.8603 140.592 73.0158 140.895 73.3264C141.197 73.6376 141.349 74.0216 141.349 74.4797C141.349 74.9378 141.197 75.3221 140.895 75.633C140.592 75.9439 140.216 76.0994 139.766 76.0994C139.316 76.0994 138.942 75.9439 138.644 75.633C138.345 75.3221 138.196 74.9378 138.196 74.4797C138.196 74.0216 138.345 73.6373 138.644 73.3264Z" fill="white"/>
<path d="M146.255 68.8359H144.55V77.5463H146.255V68.8359Z" fill="white"/>
<path d="M151.666 73.7801C151.486 73.8621 151.184 73.919 150.759 73.9517C148.698 74.0747 147.667 74.7409 147.667 75.9515C147.667 76.4833 147.855 76.9044 148.232 77.215C148.607 77.5259 149.123 77.6813 149.777 77.6813C150.251 77.6813 150.699 77.6016 151.121 77.4419C151.542 77.2825 151.883 77.0638 152.145 76.7854V77.5583L154.28 77.5461V76.0494H153.568V73.792C153.568 73.0313 153.325 72.424 152.839 71.9702C152.352 71.5164 151.699 71.2898 150.882 71.2898C150.08 71.2898 149.414 71.4939 148.882 71.9028C148.351 72.3122 148.036 72.8596 147.938 73.5463H149.533C149.598 73.2602 149.743 73.0396 149.968 72.8841C150.193 72.7287 150.473 72.6512 150.808 72.6512C151.135 72.6512 151.405 72.723 151.618 72.8659C151.831 73.0091 151.937 73.191 151.937 73.4117C151.936 73.5757 151.846 73.6986 151.666 73.7801ZM152.01 74.7005V74.7739C152.01 75.0524 151.926 75.3138 151.758 75.5592C151.59 75.8043 151.366 76.0007 151.084 76.1479C150.801 76.2951 150.501 76.3686 150.182 76.3686C149.928 76.3686 149.734 76.3173 149.599 76.2154C149.464 76.1132 149.396 75.968 149.396 75.7798C149.396 75.5509 149.509 75.373 149.734 75.2463C149.959 75.1196 150.329 75.0359 150.844 74.9946C151.114 74.9701 151.358 74.9294 151.574 74.8722C151.791 74.815 151.936 74.7574 152.01 74.7005Z" fill="white"/>
<path d="M155.689 71.4126V77.5465H157.395V74.3445C157.395 73.9194 157.534 73.5675 157.812 73.2896C158.09 73.0115 158.442 72.8726 158.867 72.8726C159.268 72.8726 159.585 73.0032 159.818 73.2652C160.051 73.5268 160.171 73.887 160.179 74.3445V77.5465H161.897V74.0746C161.897 73.5183 161.784 73.0297 161.559 72.6087C161.334 72.1876 161.019 71.8624 160.615 71.6333C160.21 71.4044 159.745 71.2899 159.222 71.2899C158.821 71.2899 158.454 71.3614 158.118 71.5046C157.783 71.6478 157.493 71.8502 157.247 72.1119V71.4126H155.689Z" fill="white"/>
<path d="M164.338 69.9402V70.6394C164.338 70.8931 164.273 71.0853 164.142 71.2159C164.012 71.3466 163.823 71.4121 163.578 71.4121H162.818V72.9577H164.204V75.6202C164.204 76.9862 164.989 77.6689 166.559 77.6689C167.017 77.6689 167.536 77.6154 168.117 77.5089V75.9755C167.684 76.0575 167.25 76.0985 166.817 76.0985C166.49 76.0985 166.257 76.037 166.117 75.9143C165.978 75.7916 165.909 75.5832 165.909 75.2891V72.958H168.117V71.4124H165.909V69.9402H164.338Z" fill="white"/>
<path d="M172.668 71.4125V77.5464H174.374V74.3443C174.374 73.9193 174.512 73.5674 174.791 73.2895C175.069 73.0117 175.42 72.8724 175.845 72.8724C176.246 72.8724 176.563 73.0031 176.796 73.265C177.03 73.5267 177.151 73.8868 177.158 74.3443V77.5464H178.876V74.0744C178.876 73.5181 178.763 73.0296 178.538 72.6085C178.313 72.1875 177.998 71.8623 177.594 71.6331C177.189 71.4042 176.724 71.2898 176.201 71.2898C175.8 71.2898 175.432 71.3613 175.097 71.5045C174.762 71.6477 174.471 71.8501 174.226 72.1117V71.4125H172.668Z" fill="white"/>
<path d="M186.85 77.5465V71.4126H185.144V74.6143C185.144 75.0397 185.005 75.3913 184.728 75.6694C184.449 75.9476 184.098 76.0868 183.672 76.0868C183.272 76.0868 182.955 75.9535 182.722 75.6882C182.489 75.4223 182.372 75.0647 182.372 74.6146L182.359 71.4129H180.642V74.8848C180.642 75.4408 180.755 75.9294 180.979 76.3504C181.204 76.7715 181.519 77.0966 181.924 77.3258C182.329 77.5547 182.793 77.6694 183.317 77.6694C183.717 77.6694 184.085 77.5977 184.421 77.4548C184.756 77.3116 185.046 77.1089 185.292 76.8472V77.5465H186.85Z" fill="white"/>
<path d="M189.573 69.9402V70.6394C189.573 70.8931 189.507 71.0853 189.377 71.2159C189.246 71.3466 189.058 71.4121 188.813 71.4121H188.052V72.9577H189.438V75.6202C189.438 76.9862 190.223 77.6689 191.794 77.6689C192.251 77.6689 192.771 77.6154 193.352 77.5089V75.9755C192.918 76.0575 192.484 76.0985 192.051 76.0985C191.724 76.0985 191.491 76.037 191.352 75.9143C191.213 75.7916 191.144 75.5832 191.144 75.2891V72.958H193.352V71.4124H191.144V69.9402H189.573Z" fill="white"/>
<path d="M194.836 71.4126V77.5465H196.541V74.2343C196.541 73.8582 196.662 73.5391 196.903 73.2774C197.144 73.0158 197.441 72.8848 197.793 72.8848C198.095 72.8848 198.336 72.9623 198.516 73.118C198.696 73.2734 198.786 73.498 198.786 73.7924V74.0378H200.491V73.6205C200.491 72.901 200.279 72.3325 199.854 71.9154C199.428 71.4983 198.88 71.2899 198.21 71.2899C197.85 71.2899 197.512 71.3614 197.198 71.5046C196.883 71.6478 196.615 71.8502 196.394 72.1119V71.4126H194.836Z" fill="white"/>
<path d="M201.142 68.4067L202.246 70.7134H202.368L203.472 68.4067H201.142Z" fill="white"/>
<path d="M203.154 71.4126H201.448V77.5465H203.154V71.4126Z" fill="white"/>
<path d="M205.878 69.9402V70.6394C205.878 70.8931 205.812 71.0853 205.681 71.2159C205.551 71.3466 205.363 71.4121 205.117 71.4121H204.357V72.9577H205.743V75.6202C205.743 76.9862 206.528 77.6689 208.098 77.6689C208.556 77.6689 209.076 77.6154 209.656 77.5089V75.9755C209.223 76.0575 208.789 76.0985 208.356 76.0985C208.029 76.0985 207.796 76.037 207.657 75.9143C207.518 75.7916 207.448 75.5832 207.448 75.2891V72.958H209.657V71.4124H207.448V69.9402H205.878Z" fill="white"/>
<path d="M212.845 71.4126H211.14V77.5465H212.845V71.4126Z" fill="white"/>
<path d="M210.833 68.4067L211.937 70.7134H212.059L213.164 68.4067H210.833Z" fill="white"/>
<path d="M215.961 77.2528C216.477 77.5304 217.049 77.6696 217.679 77.6696C218.309 77.6696 218.879 77.5304 219.39 77.2528C219.901 76.9741 220.304 76.592 220.599 76.1051C220.893 75.6189 221.041 75.0771 221.041 74.4798C221.041 73.8828 220.895 73.341 220.605 72.8544C220.315 72.3676 219.912 71.9855 219.397 71.7074C218.881 71.4292 218.309 71.2903 217.679 71.2903C217.05 71.2903 216.477 71.4292 215.962 71.7074C215.446 71.9858 215.044 72.3676 214.753 72.8544C214.463 73.341 214.318 73.8828 214.318 74.4798C214.318 75.0771 214.463 75.6189 214.753 76.1051C215.043 76.5917 215.446 76.9741 215.961 77.2528ZM216.513 73.3145C216.816 73.0119 217.204 72.8604 217.679 72.8604C218.145 72.8604 218.531 73.0116 218.838 73.3145C219.145 73.6172 219.298 74.0055 219.298 74.4798C219.298 74.9541 219.145 75.343 218.838 75.6453C218.531 75.948 218.145 76.0994 217.679 76.0994C217.213 76.0994 216.826 75.948 216.52 75.6453C216.213 75.343 216.06 74.9541 216.06 74.4798C216.06 74.0055 216.211 73.6169 216.513 73.3145Z" fill="white"/>
<path d="M227.425 71.6331C227.021 71.4042 226.556 71.2898 226.032 71.2898C225.632 71.2898 225.264 71.3613 224.929 71.5045C224.593 71.6477 224.303 71.8501 224.057 72.1117V71.4125H222.499V77.5464H224.205V74.3443C224.205 73.9193 224.344 73.5674 224.622 73.2895C224.9 73.0117 225.251 72.8724 225.676 72.8724C226.077 72.8724 226.395 73.0031 226.627 73.265C226.861 73.5267 226.982 73.8868 226.99 74.3443V77.5464H228.707V74.0744C228.707 73.5181 228.594 73.0296 228.369 72.6085C228.145 72.1875 227.83 71.8623 227.425 71.6331Z" fill="white"/>
</svg>
