<svg width="50" height="50" viewBox="0 0 50 50" fill="none" xmlns="http://www.w3.org/2000/svg">
<path d="M26.5852 41.5413C24.4188 43.5723 21.5473 44.6812 18.5781 44.6333C15.6089 44.5855 12.7747 43.3847 10.6749 41.2849C8.57509 39.185 7.37428 36.3508 7.32643 33.3816C7.27858 30.4124 8.38743 27.541 10.4185 25.3746L28.6685 7.14544C29.7534 6.06907 31.1323 5.33749 32.6319 5.04269C34.1315 4.7479 35.6848 4.90305 37.0964 5.48863C38.508 6.07422 39.715 7.06409 40.5656 8.3338C41.4162 9.6035 41.8724 11.0963 41.8768 12.6246C41.8757 13.6409 41.6725 14.6468 41.2791 15.5839C40.8857 16.5209 40.3098 17.3704 39.5852 18.0829L22.231 35.4163C21.6884 35.8487 21.006 36.0671 20.3132 36.0299C19.6203 35.9927 18.9652 35.7026 18.472 35.2146C17.9789 34.7265 17.6819 34.0745 17.6375 33.3821C17.593 32.6897 17.8042 32.005 18.231 31.4579L35.606 14.0829L32.6477 11.1454L15.2727 28.5204C14.0188 29.8445 13.331 31.6056 13.3558 33.4289C13.3806 35.2523 14.116 36.994 15.4054 38.2835C16.6949 39.5729 18.4366 40.3083 20.26 40.3331C22.0834 40.3579 23.8444 39.6702 25.1685 38.4163L42.5643 21.0413C44.8021 18.8063 46.0603 15.7739 46.0623 12.6111C46.0643 9.44842 44.8097 6.41446 42.5747 4.17669C40.3397 1.93893 37.3073 0.680667 34.1446 0.678713C30.9819 0.67676 27.9479 1.93127 25.7102 4.16627L7.46015 22.4371C4.63782 25.3838 3.08194 29.3187 3.12591 33.3987C3.16987 37.4787 4.81018 41.3792 7.69536 44.2644C10.5805 47.1496 14.481 48.7899 18.561 48.8339C22.641 48.8778 26.576 47.3219 29.5227 44.4996L46.0227 27.9788L43.0852 24.9996L26.5852 41.5413Z" fill="#FF5112"/>
</svg>
