<svg width="45" height="45" viewBox="0 0 45 45" fill="none" xmlns="http://www.w3.org/2000/svg">
<path fill-rule="evenodd" clip-rule="evenodd" d="M0.736328 22.1457C0.736328 34.3397 10.6224 44.225 22.8174 44.225C35.0124 44.225 44.8984 34.3397 44.8984 22.1457C44.8984 9.95164 35.0124 0.0664062 22.8174 0.0664062C10.6224 0.0664062 0.736328 9.95164 0.736328 22.1457ZM18.7695 32.2652L19.1452 26.637L19.1449 26.6368L29.384 17.3975C29.8333 16.9987 29.2858 16.8043 28.6893 17.166L16.0529 25.1375L10.5946 23.4341C9.41587 23.0732 9.40741 22.2633 10.8593 21.681L32.1288 13.4802C33.1003 13.0392 34.0379 13.7135 33.667 15.2002L30.0448 32.268C29.7919 33.4809 29.059 33.771 28.0435 33.2107L22.5258 29.1344L19.8736 31.7132C19.8652 31.7213 19.8569 31.7294 19.8486 31.7375C19.552 32.0262 19.3065 32.2652 18.7695 32.2652Z" fill="black"/>
</svg>
