<svg width="26" height="32" viewBox="0 0 26 32" fill="none" xmlns="http://www.w3.org/2000/svg">
<path d="M22.1079 13.0579C22.9725 11.8457 23.427 10.4865 23.427 9.1013C23.427 4.61028 18.7496 0.956543 13.0002 0.956543C7.25042 0.956543 2.57264 4.61028 2.57264 9.1013C2.57264 10.4865 3.02713 11.8457 3.8921 13.0579C2.02369 15.237 1 17.9871 1 20.8515C1 25.0524 3.24267 29.0019 6.85238 31.1594C6.93511 31.2087 7.02956 31.2347 7.12579 31.2347C7.1265 31.2347 7.12721 31.2347 7.12792 31.2347L18.9513 31.1892C19.0478 31.1889 19.143 31.1622 19.2257 31.1115C22.8415 28.9135 25 25.0776 25 20.8511C24.9996 17.9864 23.9756 15.2367 22.1079 13.0579ZM18.7972 30.1247L7.27385 30.1687C4.05721 28.187 2.06523 24.6306 2.06523 20.8515C2.06523 18.1075 3.09744 15.4778 4.97189 13.4467C5.15049 13.2532 5.16079 12.9581 4.99604 12.7526C4.10763 11.6433 3.63787 10.381 3.63787 9.10165C3.63787 5.19794 7.83771 2.02213 13.0002 2.02213C18.1623 2.02213 22.3618 5.19794 22.3618 9.10165C22.3618 10.3813 21.8924 11.644 21.004 12.7526C20.8392 12.9581 20.8495 13.2532 21.0281 13.4467C22.9019 15.4774 23.9344 18.1071 23.9348 20.8515C23.9348 24.6537 22.017 28.1093 18.7972 30.1247Z" fill="#FF5112" stroke="#FF5112"/>
<path d="M19.4407 11.8975C19.4751 11.8975 19.5095 11.8943 19.544 11.8875C19.6839 11.8598 19.8064 11.7771 19.8852 11.6582C20.4171 10.8521 20.687 9.99213 20.687 9.10124C20.687 5.92508 17.2385 3.34119 13.0003 3.34119C8.76207 3.34119 5.31321 5.92508 5.3125 9.10124C5.3125 9.99178 5.582 10.8521 6.1132 11.6582C6.19167 11.7771 6.31453 11.8598 6.45443 11.8875C6.59433 11.9156 6.73955 11.8858 6.85744 11.8055C8.67401 10.5702 10.7977 9.91721 12.9992 9.91721C15.2007 9.91721 17.3248 10.5702 19.141 11.8055C19.2301 11.8655 19.3345 11.8975 19.4407 11.8975ZM6.73955 10.6135C6.49917 10.1239 6.37738 9.61682 6.37738 9.10124C6.37809 6.51238 9.34901 4.40642 12.9999 4.40642C16.6512 4.40642 19.6214 6.51238 19.6214 9.10124C19.6214 9.61717 19.4996 10.1239 19.2589 10.6139C17.3755 9.45916 15.2234 8.85198 12.9988 8.85198C10.775 8.85162 8.62288 9.45916 6.73955 10.6135Z" fill="#FF5112"/>
<path d="M14.0756 13.4102C13.7816 13.4102 13.543 13.6484 13.543 13.9428C13.543 14.2371 13.7816 14.4754 14.0756 14.4754C17.2947 14.4754 19.9138 17.1239 19.9138 20.3796C19.9138 20.6736 20.1524 20.9122 20.4464 20.9122C20.7404 20.9122 20.979 20.6736 20.979 20.3796C20.9793 16.5366 17.8824 13.4102 14.0756 13.4102Z" fill="#FF5112"/>
</svg>
