<svg width="46" height="45" viewBox="0 0 46 45" fill="none" xmlns="http://www.w3.org/2000/svg">
<g clip-path="url(#clip0_134_5947)">
<path d="M23.0694 0.0664062C10.8941 0.0664062 0.988424 9.97137 0.988424 22.1457C0.988424 25.9472 1.97055 29.6853 3.83303 32.9837L1.02395 43.0058C0.931781 43.3351 1.02107 43.6884 1.25916 43.9331C1.44252 44.1223 1.69214 44.225 1.94847 44.225C2.02527 44.225 2.10303 44.2154 2.17888 44.1971L12.6395 41.6062C15.8336 43.3207 19.4308 44.225 23.0694 44.225C35.2447 44.225 45.1504 34.32 45.1504 22.1457C45.1504 9.97137 35.2447 0.0664062 23.0694 0.0664062ZM34.1771 29.9368C33.7048 31.2443 31.4391 32.4375 30.3504 32.5978C29.373 32.7409 28.1365 32.8023 26.779 32.3761C25.9563 32.1169 24.9002 31.7732 23.5475 31.1963C17.8612 28.7714 14.1477 23.1181 13.8636 22.7447C13.5803 22.3713 11.5489 19.7103 11.5489 16.9561C11.5489 14.2019 13.013 12.8474 13.5333 12.2868C14.0536 11.7262 14.6671 11.586 15.0454 11.586C15.4236 11.586 15.8009 11.5908 16.1321 11.6062C16.4806 11.6235 16.9482 11.4747 17.408 12.5671C17.8804 13.6884 19.0142 16.4425 19.1544 16.7238C19.2964 17.0041 19.3905 17.3314 19.2024 17.7049C19.0142 18.0783 18.9201 18.3116 18.6359 18.6389C18.3518 18.9663 18.0407 19.3685 17.7853 19.62C17.5012 19.8994 17.2064 20.2018 17.5367 20.7624C17.8669 21.323 19.0046 23.1556 20.6904 24.6397C22.8553 26.5462 24.6823 27.1375 25.2487 27.4178C25.8151 27.6982 26.1463 27.6511 26.4766 27.2777C26.8069 26.9033 27.8936 25.6429 28.2709 25.0832C28.6482 24.5235 29.0265 24.6157 29.5468 24.8029C30.0672 24.9891 32.8542 26.3427 33.4206 26.623C33.987 26.9033 34.3653 27.0435 34.5074 27.2767C34.6494 27.509 34.6494 28.6303 34.1771 29.9368Z" fill="black"/>
</g>
<defs>
<clipPath id="clip0_134_5947">
<rect width="44.1621" height="44.1586" fill="white" transform="translate(0.988281 0.0664062)"/>
</clipPath>
</defs>
</svg>
